$MeshFormat
4.1 0 8
$EndMeshFormat
$PhysicalNames
4
2 1 "anterior"
2 2 "posterior"
2 3 "limbus"
3 10 "cornea"
$EndPhysicalNames
$Entities
0 0 3 1
1 -5.442801716632686 -4.760393974375548 -1.332267629550188e-15 5.442801716632686 4.760393974375548 2.908416207305078 1 2 0 
2 -5.930000000000001 -5.250000000000001 0.4388794415106196 5.930000000000001 5.250000000000001 3.408416207305078 1 1 0 
3 -5.930000000000001 -5.250000000000001 -1.332267629550188e-15 5.930000000000001 5.250000000000001 0.8043515976926647 1 3 0 
1 -5.930000000000001 -5.250000000000001 -1.332267629550188e-15 5.930000000000001 5.250000000000001 3.408416207305078 1 10 3 1 2 3 
$EndEntities
$Nodes
4 171 1 171
2 1 0 0
2 2 0 0
2 3 0 0
3 1 0 171
1
2
3
4
5
6
7
8
9
10
11
12
13
14
15
16
17
18
19
20
21
22
23
24
25
26
27
28
29
30
31
32
33
34
35
36
37
38
39
40
41
42
43
44
45
46
47
48
49
50
51
52
53
54
55
56
57
58
59
60
61
62
63
64
65
66
67
68
69
70
71
72
73
74
75
76
77
78
79
80
81
82
83
84
85
86
87
88
89
90
91
92
93
94
95
96
97
98
99
100
101
102
103
104
105
106
107
108
109
110
111
112
113
114
115
116
117
118
119
120
121
122
123
124
125
126
127
128
129
130
131
132
133
134
135
136
137
138
139
140
141
142
143
144
145
146
147
148
149
150
151
152
153
154
155
156
157
158
159
160
161
162
163
164
165
166
167
168
169
170
171
-2.792540038005764 -2.451985334523112 1.520846245992066
-2.828757172616091 -1.244131916588586 1.998085518416534
-2.843200429158171 -1.497416676578773e-17 2.159239565510895
-2.828757172616091 1.244131916588586 1.998085518416534
-2.792540038005764 2.451985334523112 1.520846245992066
-1.414280655716591 -2.48817790414377 2.061339512623883
-1.439385009501441 -1.269246333630778 2.548737740266147
-1.452050107289543 -3.743541691446932e-18 2.715794535996741
-1.439385009501441 1.269246333630778 2.548737740266147
-1.414280655716591 2.48817790414377 2.061339512623883
-7.475954572951501e-18 -2.502598493593887 2.243110358944671
-1.868988643237875e-18 -1.281899623398472 2.736379362119922
0 0 2.908416207305078
-1.868988643237875e-18 1.281899623398472 2.736379362119922
-7.475954572951501e-18 2.502598493593887 2.243110358944671
1.414280655716591 -2.48817790414377 2.061339512623883
1.439385009501441 -1.269246333630778 2.548737740266147
1.452050107289543 0 2.715794535996741
1.439385009501441 1.269246333630778 2.548737740266147
1.414280655716591 2.48817790414377 2.061339512623883
2.792540038005764 -2.451985334523112 1.520846245992066
2.828757172616091 -1.244131916588587 1.998085518416534
2.843200429158171 0 2.159239565510895
2.828757172616091 1.244131916588587 1.998085518416534
2.792540038005764 2.451985334523112 1.520846245992066
3.372678600684708 -2.955433289187589 0.849168493185636
3.897467833881789 -1.709358010088777 1.141562664002668
4.173450965605886 0 1.255439287526289
3.897467833881789 1.709358010088777 1.141562664002668
3.372678600684708 2.955433289187589 0.849168493185636
3.848223288447755 -3.366281270275598 0.1792467046711632
4.867976195000993 -2.129093509458257 0.07173810009672144
5.442801716632686 0 -1.332267629550188e-15
4.867976195000993 2.129093509458257 0.07173810009672144
3.848223288447755 3.366281270275598 0.1792467046711632
1.948540536666558 3.418546338979819 1.269799597233448
2.555099341712518e-16 3.662096610586246 1.449349912286329
-1.948540536666558 3.418546338979819 1.269799597233448
-3.372678600684707 2.955433289187589 0.8491684931856365
2.433674719607843 4.257912046009625 0.2866371713375271
3.332039576553842e-16 4.760393974375548 0.3581652517366662
-2.433674719607843 4.257912046009625 0.2866371713375271
-3.848223288447755 3.366281270275599 0.1792467046711637
-3.897467833881789 1.709358010088778 1.141562664002667
-4.173450965605886 4.485128019412479e-16 1.255439287526289
-3.897467833881789 -1.709358010088777 1.141562664002668
-3.372678600684707 -2.955433289187588 0.8491684931856365
-4.867976195000993 2.129093509458257 0.07173810009672099
-5.442801716632686 5.830429024892095e-16 -1.332267629550188e-15
-4.867976195000993 -2.129093509458256 0.07173810009672144
-3.848223288447755 -3.366281270275598 0.1792467046711632
-1.948540536666559 -3.418546338979819 1.269799597233448
-7.72816384464488e-16 -3.662096610586246 1.449349912286329
1.948540536666557 -3.418546338979819 1.269799597233448
-2.433674719607844 -4.257912046009624 0.2866371713375271
-1.010788018656344e-15 -4.760393974375548 0.3581652517366662
2.433674719607842 -4.257912046009626 0.2866371713375266
-2.878770019002882 -2.538492667261556 1.801635163819221
-2.896878586308045 -1.278315958294293 2.2798864499285
-2.904100214579086 -7.487083382893864e-18 2.438550875073066
-2.896878586308045 1.278315958294293 2.2798864499285
-2.878770019002882 2.538492667261556 1.801635163819221
-1.448390327858295 -2.556588952071885 2.343271340208938
-1.460942504750721 -1.290873166815389 2.818162430732671
-1.467275053644771 -1.871770845723466e-18 2.977141227689985
-1.460942504750721 1.290873166815389 2.818162430732671
-1.448390327858295 2.556588952071885 2.343271340208938
-3.737977286475751e-18 -2.563799246796943 2.522572442166961
-9.344943216189377e-19 -1.297199811699236 2.997770881152738
0 0 3.158416207305078
-9.344943216189377e-19 1.297199811699236 2.997770881152738
-3.737977286475751e-18 2.563799246796943 2.522572442166961
1.448390327858295 -2.556588952071885 2.343271340208938
1.460942504750721 -1.290873166815389 2.818162430732671
1.467275053644771 0 2.977141227689985
1.460942504750721 1.290873166815389 2.818162430732671
1.448390327858295 2.556588952071885 2.343271340208938
2.878770019002882 -2.538492667261556 1.801635163819221
2.896878586308045 -1.278315958294293 2.2798864499285
2.904100214579086 0 2.438550875073066
2.896878586308045 1.278315958294293 2.2798864499285
2.878770019002882 2.538492667261556 1.801635163819221
3.502023572180385 -3.085194288295255 1.110345281659498
4.031984918608252 -1.776860097688034 1.415384698416801
4.310475482802943 0 1.532835782802677
4.031984918608252 1.776860097688034 1.415384698416801
3.502023572180385 3.085194288295255 1.110345281659498
4.020683250441992 -3.539295935752486 0.4005091575288955
5.085964718815248 -2.238482442916518 0.2919059891266627
5.686400858316343 0 0.2194397207553092
5.085964718815248 2.238482442916518 0.2919059891266627
4.020683250441992 3.539295935752486 0.4005091575288955
2.015895769166958 3.553635354777199 1.54421959113769
2.639203830658223e-16 3.799798305293123 1.727536034644212
-2.015895769166958 3.553635354777199 1.54421959113769
-3.502023572180384 3.085194288295256 1.110345281659498
2.542825670461297 4.476827399379593 0.5089970644407575
3.481558668012872e-16 5.005196987187775 0.5812584247146655
-2.542825670461297 4.476827399379593 0.5089970644407575
-4.020683250441991 3.539295935752487 0.4005091575288957
-4.031984918608252 1.776860097688034 1.415384698416801
-4.310475482802943 4.653587395527591e-16 1.532835782802677
-4.031984918608252 -1.776860097688034 1.415384698416801
-3.502023572180384 -3.085194288295255 1.110345281659498
-5.085964718815248 2.238482442916519 0.2919059891266622
-5.686400858316343 6.12991236020785e-16 0.2194397207553092
-5.085964718815248 -2.238482442916518 0.2919059891266624
-4.020683250441992 -3.539295935752486 0.4005091575288955
-2.015895769166959 -3.553635354777199 1.54421959113769
-7.949044401728331e-16 -3.799798305293123 1.727536034644212
2.015895769166957 -3.553635354777199 1.544219591137691
-2.542825670461299 -4.476827399379591 0.5089970644407575
-1.050055673248957e-15 -5.005196987187775 0.5812584247146655
2.542825670461296 -4.476827399379593 0.5089970644407569
-2.965 -2.625 2.082424081646376
-2.965 -1.3125 2.561687381440465
-2.965 0 2.717862184635236
-2.965 1.3125 2.561687381440465
-2.965 2.625 2.082424081646376
-1.4825 -2.625 2.625203167793994
-1.4825 -1.3125 3.087587121199196
-1.4825 0 3.238487919383227
-1.4825 1.3125 3.087587121199196
-1.4825 2.625 2.625203167793994
0 -2.625 2.802034525389251
0 -1.3125 3.259162400185555
0 0 3.408416207305078
0 1.3125 3.259162400185555
0 2.625 2.802034525389251
1.4825 -2.625 2.625203167793994
1.4825 -1.3125 3.087587121199196
1.4825 0 3.238487919383227
1.4825 1.3125 3.087587121199196
1.4825 2.625 2.625203167793994
2.965 -2.625 2.082424081646376
2.965 -1.3125 2.561687381440465
2.965 0 2.717862184635236
2.965 1.3125 2.561687381440465
2.965 2.625 2.082424081646376
3.631368543676062 -3.214955287402921 1.37152207013336
4.166502003334716 -1.84436218528729 1.689206732830934
4.447500000000001 0 1.810232278079066
4.166502003334716 1.84436218528729 1.689206732830934
3.631368543676062 3.214955287402921 1.37152207013336
4.193143212436228 -3.712310601229375 0.6217716103866278
5.303953242629502 -2.34787137637478 0.5120738781566039
5.930000000000001 0 0.4388794415106196
5.303953242629502 2.34787137637478 0.5120738781566039
4.193143212436228 3.712310601229375 0.6217716103866278
2.083251001667358 3.68872437057458 1.818639585041933
2.723308319603927e-16 3.9375 2.005722157002095
-2.083251001667358 3.68872437057458 1.818639585041933
-3.631368543676061 3.214955287402922 1.371522070133359
2.651976621314752 4.69574275274956 0.731356957543988
3.631077759471903e-16 5.250000000000001 0.8043515976926647
-2.651976621314751 4.69574275274956 0.731356957543988
-4.193143212436227 3.712310601229375 0.6217716103866278
-4.166502003334716 1.844362185287291 1.689206732830934
-4.447500000000001 4.822046771642703e-16 1.810232278079066
-4.166502003334716 -1.84436218528729 1.689206732830934
-3.631368543676062 -3.214955287402921 1.37152207013336
-5.303953242629502 2.347871376374781 0.5120738781566034
-5.930000000000001 6.429395695523605e-16 0.4388794415106196
-5.303953242629503 -2.347871376374779 0.5120738781566034
-4.193143212436228 -3.712310601229375 0.6217716103866278
-2.083251001667359 -3.68872437057458 1.818639585041932
-8.16992495881178e-16 -3.9375 2.005722157002095
2.083251001667358 -3.68872437057458 1.818639585041933
-2.651976621314752 -4.695742752749559 0.731356957543988
-1.089323327841571e-15 -5.250000000000001 0.8043515976926647
2.65197662131475 -4.695742752749561 0.7313569575439871
$EndNodes
$Elements
4 224 1 224
2 1 3 48
97 1 6 7 2 
98 2 7 8 3 
99 3 8 9 4 
100 4 9 10 5 
101 6 11 12 7 
102 7 12 13 8 
103 8 13 14 9 
104 9 14 15 10 
105 11 16 17 12 
106 12 17 18 13 
107 13 18 19 14 
108 14 19 20 15 
109 16 21 22 17 
110 17 22 23 18 
111 18 23 24 19 
112 19 24 25 20 
113 21 26 27 22 
114 22 27 28 23 
115 23 28 29 24 
116 24 29 30 25 
117 26 31 32 27 
118 27 32 33 28 
119 28 33 34 29 
120 29 34 35 30 
121 25 30 36 20 
122 20 36 37 15 
123 15 37 38 10 
124 10 38 39 5 
125 30 35 40 36 
126 36 40 41 37 
127 37 41 42 38 
128 38 42 43 39 
129 5 39 44 4 
130 4 44 45 3 
131 3 45 46 2 
132 2 46 47 1 
133 39 43 48 44 
134 44 48 49 45 
135 45 49 50 46 
136 46 50 51 47 
137 1 47 52 6 
138 6 52 53 11 
139 11 53 54 16 
140 16 54 26 21 
141 47 51 55 52 
142 52 55 56 53 
143 53 56 57 54 
144 54 57 31 26 
2 2 3 48
145 115 120 121 116 
146 116 121 122 117 
147 117 122 123 118 
148 118 123 124 119 
149 120 125 126 121 
150 121 126 127 122 
151 122 127 128 123 
152 123 128 129 124 
153 125 130 131 126 
154 126 131 132 127 
155 127 132 133 128 
156 128 133 134 129 
157 130 135 136 131 
158 131 136 137 132 
159 132 137 138 133 
160 133 138 139 134 
161 135 140 141 136 
162 136 141 142 137 
163 137 142 143 138 
164 138 143 144 139 
165 140 145 146 141 
166 141 146 147 142 
167 142 147 148 143 
168 143 148 149 144 
169 139 144 150 134 
170 134 150 151 129 
171 129 151 152 124 
172 124 152 153 119 
173 144 149 154 150 
174 150 154 155 151 
175 151 155 156 152 
176 152 156 157 153 
177 119 153 158 118 
178 118 158 159 117 
179 117 159 160 116 
180 116 160 161 115 
181 153 157 162 158 
182 158 162 163 159 
183 159 163 164 160 
184 160 164 165 161 
185 115 161 166 120 
186 120 166 167 125 
187 125 167 168 130 
188 130 168 140 135 
189 161 165 169 166 
190 166 169 170 167 
191 167 170 171 168 
192 168 171 145 140 
2 3 3 32
193 31 32 89 88 
194 32 33 90 89 
195 33 34 91 90 
196 34 35 92 91 
197 35 40 97 92 
198 40 41 98 97 
199 41 42 99 98 
200 42 43 100 99 
201 43 48 105 100 
202 48 49 106 105 
203 49 50 107 106 
204 50 51 108 107 
205 51 55 112 108 
206 55 56 113 112 
207 56 57 114 113 
208 57 31 88 114 
209 88 89 146 145 
210 89 90 147 146 
211 90 91 148 147 
212 91 92 149 148 
213 92 97 154 149 
214 97 98 155 154 
215 98 99 156 155 
216 99 100 157 156 
217 100 105 162 157 
218 105 106 163 162 
219 106 107 164 163 
220 107 108 165 164 
221 108 112 169 165 
222 112 113 170 169 
223 113 114 171 170 
224 114 88 145 171 
3 1 5 96
1 1 6 7 2 58 63 64 59 
2 2 7 8 3 59 64 65 60 
3 3 8 9 4 60 65 66 61 
4 4 9 10 5 61 66 67 62 
5 6 11 12 7 63 68 69 64 
6 7 12 13 8 64 69 70 65 
7 8 13 14 9 65 70 71 66 
8 9 14 15 10 66 71 72 67 
9 11 16 17 12 68 73 74 69 
10 12 17 18 13 69 74 75 70 
11 13 18 19 14 70 75 76 71 
12 14 19 20 15 71 76 77 72 
13 16 21 22 17 73 78 79 74 
14 17 22 23 18 74 79 80 75 
15 18 23 24 19 75 80 81 76 
16 19 24 25 20 76 81 82 77 
17 21 26 27 22 78 83 84 79 
18 22 27 28 23 79 84 85 80 
19 23 28 29 24 80 85 86 81 
20 24 29 30 25 81 86 87 82 
21 26 31 32 27 83 88 89 84 
22 27 32 33 28 84 89 90 85 
23 28 33 34 29 85 90 91 86 
24 29 34 35 30 86 91 92 87 
25 25 30 36 20 82 87 93 77 
26 20 36 37 15 77 93 94 72 
27 15 37 38 10 72 94 95 67 
28 10 38 39 5 67 95 96 62 
29 30 35 40 36 87 92 97 93 
30 36 40 41 37 93 97 98 94 
31 37 41 42 38 94 98 99 95 
32 38 42 43 39 95 99 100 96 
33 5 39 44 4 62 96 101 61 
34 4 44 45 3 61 101 102 60 
35 3 45 46 2 60 102 103 59 
36 2 46 47 1 59 103 104 58 
37 39 43 48 44 96 100 105 101 
38 44 48 49 45 101 105 106 102 
39 45 49 50 46 102 106 107 103 
40 46 50 51 47 103 107 108 104 
41 1 47 52 6 58 104 109 63 
42 6 52 53 11 63 109 110 68 
43 11 53 54 16 68 110 111 73 
44 16 54 26 21 73 111 83 78 
45 47 51 55 52 104 108 112 109 
46 52 55 56 53 109 112 113 110 
47 53 56 57 54 110 113 114 111 
48 54 57 31 26 111 114 88 83 
49 58 63 64 59 115 120 121 116 
50 59 64 65 60 116 121 122 117 
51 60 65 66 61 117 122 123 118 
52 61 66 67 62 118 123 124 119 
53 63 68 69 64 120 125 126 121 
54 64 69 70 65 121 126 127 122 
55 65 70 71 66 122 127 128 123 
56 66 71 72 67 123 128 129 124 
57 68 73 74 69 125 130 131 126 
58 69 74 75 70 126 131 132 127 
59 70 75 76 71 127 132 133 128 
60 71 76 77 72 128 133 134 129 
61 73 78 79 74 130 135 136 131 
62 74 79 80 75 131 136 137 132 
63 75 80 81 76 132 137 138 133 
64 76 81 82 77 133 138 139 134 
65 78 83 84 79 135 140 141 136 
66 79 84 85 80 136 141 142 137 
67 80 85 86 81 137 142 143 138 
68 81 86 87 82 138 143 144 139 
69 83 88 89 84 140 145 146 141 
70 84 89 90 85 141 146 147 142 
71 85 90 91 86 142 147 148 143 
72 86 91 92 87 143 148 149 144 
73 82 87 93 77 139 144 150 134 
74 77 93 94 72 134 150 151 129 
75 72 94 95 67 129 151 152 124 
76 67 95 96 62 124 152 153 119 
77 87 92 97 93 144 149 154 150 
78 93 97 98 94 150 154 155 151 
79 94 98 99 95 151 155 156 152 
80 95 99 100 96 152 156 157 153 
81 62 96 101 61 119 153 158 118 
82 61 101 102 60 118 158 159 117 
83 60 102 103 59 117 159 160 116 
84 59 103 104 58 116 160 161 115 
85 96 100 105 101 153 157 162 158 
86 101 105 106 102 158 162 163 159 
87 102 106 107 103 159 163 164 160 
88 103 107 108 104 160 164 165 161 
89 58 104 109 63 115 161 166 120 
90 63 109 110 68 120 166 167 125 
91 68 110 111 73 125 167 168 130 
92 73 111 83 78 130 168 140 135 
93 104 108 112 109 161 165 169 166 
94 109 112 113 110 166 169 170 167 
95 110 113 114 111 167 170 171 168 
96 111 114 88 83 168 171 145 140 
$EndElements
$ElementData
1
"e_1"
1
0.0
3
0
3
96
1 0.93108345826273897 -0.019295328463004115 0.36429559982108389
2 0.93003563216367624 -0.008709936807727036 0.36736611153822635
3 0.93003563219365271 0.0087099367512814847 0.36736611146367537
4 0.93108345821748739 0.019295328457516383 0.36429559993703081
5 0.99183344682312891 -0.0090488240409310038 0.12721844420691417
6 0.99159128452435885 -0.006753862593263802 0.12923277368919792
7 0.99159128452435885 0.006753862593263802 0.12923277368919792
8 0.99183344682312891 0.0090488240409310038 0.12721844420691417
9 0.99183344682609709 0.0090488238128482567 -0.12721844419999684
10 0.99159128452304202 0.0067538626498034561 -0.12923277369634636
11 0.99159128452435885 -0.006753862593263802 -0.12923277368919792
12 0.99183344679358187 -0.0090488239279042631 -0.12721844444531108
13 0.93108345826273897 0.019295328463004115 -0.36429559982108389
14 0.93003563223840213 0.0087099368084268564 -0.36736611134903119
15 0.93003563241738763 -0.0087099368080548103 -0.36736611089591503
16 0.93108345826273897 -0.019295328463004115 -0.36429559982108389
17 0.85081927176942929 0.022506485578643588 -0.52497621364461466
18 0.83392494816541962 0.01000898546014275 -0.55178709756332733
19 0.83392494816541962 -0.01000898546014275 -0.55178709756332733
20 0.85081927186147244 -0.02250648558107838 -0.52497621349533796
21 0.77947712904462152 0.026299719458094267 -0.62587836681960796
22 0.72620613353302266 0.01267912882921552 -0.68736008853522312
23 0.72620613360285902 -0.012679128784084406 -0.68736008846227248
24 0.77947712904858479 -0.026299719264900413 -0.6258783668227903
25 0.91214673639717636 -0.023906009466585432 -0.40916602252797513
26 0.9882255342445605 -0.011376963433555747 -0.15258066119297187
27 0.98822553422714643 0.011376963433355267 0.15258066130577377
28 0.91214673647766953 0.02390600969192436 0.40916602233536764
29 0.86879374481289851 -0.028779882352898536 -0.4943370786677177
30 0.9785542871428502 -0.01609387985765906 -0.20535942672659452
31 0.97855428701851033 0.016093879853690003 0.20535942731939524
32 0.86879374473852566 0.02877988235742273 0.4943370787981643
33 0.85081927187234807 0.022506485575914965 0.52497621347793333
34 0.83392494821230523 0.010008985460705484 0.55178709749245813
35 0.83392494811853402 -0.010008985459580016 0.55178709763419664
36 0.85081927181545103 -0.022506485579860985 0.52497621356997637
37 0.77947712912561384 0.026299719447781141 0.62587836671917274
38 0.72620613382395605 0.012679128827821039 0.68736008822787342
39 0.72620613395378741 -0.012679128730912977 0.68736008809249227
40 0.77947712899746335 -0.026299719456503143 0.62587836687840626
41 0.91214673635589083 -0.023906009688732723 0.40916602260703316
42 0.98822553422974324 -0.011376963202403919 0.1525806613061747
43 0.9882255342432088 0.01137696343420498 -0.15258066120167896
44 0.91214673639717636 0.023906009466585432 -0.40916602252797513
45 0.86879374477739901 -0.028779882365698346 0.49433707872936306
46 0.97855428712926862 -0.016093879853587508 0.20535942679163136
47 0.97855428707670578 0.016093880324532128 -0.20535942700518903
48 0.86879374482269733 0.028779882367198913 -0.49433707864966392
49 0.93669138167958699 -0.0082145119069719219 0.3500596767428612
50 0.93754472401735389 -0.0037616062135518045 0.34784442037485369
51 0.93754472401735389 0.0037616062135518045 0.34784442037485369
52 0.93669138167876587 0.0082145120136855928 0.35005967674255434
53 0.9926108311586278 -0.003929195865101682 0.12127777738081978
54 0.99265726292349588 -0.0029998200629243387 0.12092377534969538
55 0.99265726289679912 0.0029998200628436607 0.1209237755688498
56 0.9926108311590639 0.0039291957533034499 0.12127777738087306
57 0.99261083113296955 0.0039291957529788805 -0.12127777759445486
58 0.99265726289679912 0.0029998200628436607 -0.1209237755688498
59 0.99265726292349588 -0.0029998200629243387 -0.12092377534969538
60 0.9926108311047932 -0.0039291958648885799 -0.12127777782144206
61 0.93669138167876587 0.0082145120136855928 -0.35005967674255434
62 0.93754472401735389 0.0037616062135518045 -0.34784442037485369
63 0.93754472401735389 -0.0037616062135518045 -0.34784442037485369
64 0.93669138167876587 -0.0082145120136855928 -0.35005967674255434
65 0.85899855539874204 0.0089917820911070249 -0.51189904246609041
66 0.84641063813933881 0.0043154469109992558 -0.53251329425894678
67 0.84641063799526517 -0.0043154469602533184 -0.53251329448754769
68 0.85899855544218295 -0.0089917820915617532 -0.51189904239318607
69 0.78481343957691951 0.010372900429769091 -0.61964527594109753
70 0.73722935515344468 0.0056876869183029831 -0.67561862623639624
71 0.73722935515344468 -0.0056876869183029831 -0.67561862623639624
72 0.78481343962123384 -0.010372900430354794 -0.61964527588496143
73 0.91604368254232826 -0.0096781813247289027 -0.40096172445825262
74 0.9888222174041128 -0.0049836471750062993 -0.14901605829187886
75 0.98882221740536103 0.004983647174729571 0.1490160582836044
76 0.91604368254232826 0.0096781813247289027 0.40096172445825262
77 0.86989595880451032 -0.011488456940900808 -0.493101446167722
78 0.97849627582244258 -0.0074332899840862049 -0.20613050332646779
79 0.97849627580453935 0.0074332899830956509 0.20613050341148945
80 0.86989595877885462 0.011488456932623875 0.49310144621317487
81 0.85899855545053305 0.008991782089580902 0.5118990423792088
82 0.84641063805101568 0.004315446910548938 0.53251329439933703
83 0.84641063805083672 -0.0043154469595375541 0.53251329439922446
84 0.85899855549244775 -0.0089917822876035922 0.51189904230539474
85 0.78481343961975014 0.01037290061258358 0.61964527588379004
86 0.73722935515307886 0.0056876870055636731 0.67561862623606106
87 0.73722935531278544 -0.0056876869168393544 0.67561862606253742
88 0.78481343967259676 -0.010372900426216095 0.61964527581997664
89 0.91604368254232826 -0.0096781813247289027 0.40096172445825262
90 0.9888222174041128 -0.0049836471750062993 0.14901605829187886
91 0.98882221740189891 0.0049836476242343403 -0.14901605829154521
92 0.91604368261926694 0.0096781813255417751 -0.4009617242824578
93 0.86989595885902471 -0.011488456936328693 0.49310144607165785
94 0.97849627578512299 -0.0074332895329862819 0.20613050351988965
95 0.97849627580453935 0.0074332899830956509 -0.20613050341148945
96 0.86989595875376524 0.011488457143232163 -0.49310144625252883
$EndElementData
$ElementData
1
"e_2"
1
0.0
3
0
3
96
1 -0.11107077270869348 0.93619623325641299 0.3334664845024129
2 -0.03717773865531615 0.99235915257266083 0.11764832363339278
3 0.037177738580400646 0.99235915261272623 -0.11764832331911741
4 0.11107077273504679 0.93619623327665524 -0.3334664844368056
5 -0.038533531315851743 0.92960393994684598 0.36654015032412329
6 -0.010209165398306614 0.99144202046686869 0.13014796577143675
7 0.010209165398306614 0.99144202046686869 -0.13014796577143675
8 0.038533531371617864 0.92960393977784583 -0.36654015074687218
9 0.038533531562867082 0.92960393982949441 0.36654015059577738
10 0.010209165310319186 0.99144202050018859 0.13014796552451377
11 -0.010209165398306614 0.99144202046686869 -0.13014796577143675
12 -0.038533531539760441 0.92960393985192735 -0.36654015054131306
13 0.11107077269339123 0.93619623327186763 0.3334664844641213
14 0.037177738601902377 0.99235915258236218 0.11764832356844093
15 -0.037177738638705826 0.99235915255079454 -0.11764832382308336
16 -0.11107077269339123 0.93619623327186763 -0.3334664844641213
17 0.1763481598661874 0.92890681618323723 0.32562778345855409
18 0.066536215018914657 0.99071893640018005 0.1185281449658816
19 -0.066536215049172315 0.99071893639269315 -0.11852814501147468
20 -0.17634815981726548 0.92890681617562643 -0.32562778350676003
21 0.24634363222123493 0.90575193982834834 0.34485973722838786
22 0.10383473434702013 0.98633700997522067 0.12789703161616162
23 -0.10383473438600073 0.986337009971056 -0.12789703161663049
24 -0.24634363227004358 0.90575193989734903 -0.3448597370122965
25 -0.18549188689950216 0.86613312167884438 -0.46411870833367869
26 -0.074710771548849669 0.83438380418679103 -0.54609703160276757
27 0.074710771615742563 0.83438380416866287 -0.54609703162131473
28 0.18549188657613674 0.86613312174022883 -0.46411870834836183
29 -0.2670782948055353 0.81341523689169781 -0.51674445989888518
30 -0.12877481655448772 0.73032030950147542 -0.67085713244403034
31 0.12877481695523893 0.73032030953753024 -0.67085713232785338
32 0.26707829479011613 0.81341523701677376 -0.51674445970997085
33 0.17634815976776003 0.92890681621075988 -0.32562778343334631
34 0.066536215121041589 0.99071893637229747 -0.11852814514160918
35 -0.06653621504169227 0.99071893639715702 0.11852814497836367
36 -0.17634815976742949 0.92890681623491322 0.32562778336462395
37 0.24634363223012654 0.90575193979472646 -0.3448597373103422
38 0.10383473445112512 0.98633700993723505 -0.1278970318245862
39 -0.10383473466232644 0.98633700989838236 0.12789703195275035
40 -0.24634363221147806 0.90575193985547364 0.3448597371641145
41 -0.18549188668623612 0.8661331217821433 0.46411870822613849
42 -0.074710771824281832 0.83438380409623092 0.54609703170345358
43 0.074710771589476768 0.83438380403676349 0.54609703182643743
44 0.18549188687688234 0.86613312170974222 0.46411870828505797
45 -0.26707829489569185 0.81341523680440653 0.51674445998969509
46 -0.12877481664943513 0.73032030929993197 0.67085713264521252
47 0.12877481638431279 0.73032030961698113 0.67085713235095246
48 0.26707829484055345 0.81341523681368688 0.51674446000358465
49 -0.10941269287181769 0.94280042769386374 0.31489080040357609
50 -0.036664367212282056 0.99330340747376389 0.10956306347457082
51 0.036664367212282056 0.99330340747376389 -0.10956306347457082
52 0.10941269280322533 0.9428004276673343 -0.31489080050684037
53 -0.038291039200483344 0.93826362694224341 0.34379523364080228
54 -0.011622509155281902 0.99270161591259842 0.1200350742302059
55 0.011622509121882896 0.99270161597265671 -0.12003507373675297
56 0.038291039273985493 0.9382636270346435 -0.34379523338044338
57 0.038291039342548405 0.9382636270518111 0.34379523332595385
58 0.011622509121882896 0.99270161597265671 0.12003507373675297
59 -0.011622509155281902 0.99270161591259842 -0.1200350742302059
60 -0.038291039325495227 0.93826362702575294 -0.34379523339896989
61 0.10941269278974082 0.94280042768084449 0.31489080047107554
62 0.036664367212282056 0.99330340747376389 0.10956306347457082
63 -0.036664367212282056 0.99330340747376389 -0.10956306347457082
64 -0.10941269271834703 0.94280042775237416 -0.31489080028171823
65 0.17552515083220638 0.93407771650433702 0.31094974024008176
66 0.065567009358737716 0.99151427489701016 0.112251547691814
67 -0.065567009223776437 0.99151427492727418 -0.1122515475033244
68 -0.17552515086469095 0.9340777164603663 -0.31094974035383105
69 0.24938794172460735 0.9100441252029734 0.33109718317424353
70 0.10425110820244891 0.98703155692370181 0.12206724407200449
71 -0.10425110820244891 0.98703155692370181 -0.12206724407200449
72 -0.2493879415197098 0.9100441253350221 -0.33109718296563112
73 -0.18550312205142616 0.87613194476070166 -0.44495101649395558
74 -0.074559550002221364 0.84897543274627085 -0.52314585738276498
75 0.074559549982911047 0.84897543280833332 -0.52314585728480034
76 0.18550312207130534 0.87613194473375788 -0.44495101653872154
77 -0.27255682507350854 0.82203079756352548 -0.49997814448525968
78 -0.13227926180024299 0.74417005529727842 -0.65476188473095176
79 0.13227926190267242 0.74417005510813472 -0.65476188492522958
80 0.27255682511954077 0.82203079754419317 -0.49997814449195038
81 0.1755251508577052 0.93407771646298987 -0.31094974034989376
82 0.065567009258129139 0.99151427492641697 -0.11225154749083151
83 -0.065567009216777522 0.99151427492626598 0.11225154751631952
84 -0.1755251506320849 0.93407771649125881 0.31094974039233331
85 0.24938794155319119 0.91004412521377542 -0.33109718327366711
86 0.10425110796427593 0.98703155696518963 -0.12206724393994731
87 -0.10425110785559688 0.98703155700040313 0.12206724374802885
88 -0.24938794170115083 0.91004412518466404 0.33109718324223597
89 -0.18550312205142613 0.87613194476070155 0.44495101649395552
90 -0.074559550003152106 0.8489754327424619 0.52314585738881381
91 0.074559549616656562 0.84897543277888943 0.52314585738478203
92 0.1855031220298381 0.87613194467333833 0.44495101667497911
93 -0.2725568250525135 0.82203079752068664 0.49997814456713768
94 -0.13227926226313147 0.74417005527686486 0.65476188466063701
95 0.13227926186021782 0.74417005528731461 0.65476188473016006
96 0.27255682482706733 0.82203079777093313 0.49997814427859782
$EndElementData
$ElementData
1
"e_3"
1
0.0
3
0
3
96
1 -0.34748651369426159 -0.35094772137172936 0.86953367943087678
2 -0.36558383259436977 -0.12307497432896712 0.92260555604198258
3 -0.36558383252572901 0.12307497400991345 0.92260555611174322
4 -0.34748651380708895 0.35094772131803231 0.86953367940746062
5 -0.1215795242928748 -0.36844895659884408 0.92166359679328835
6 -0.12900580373456907 -0.1303729473190062 0.98303631530587587
7 -0.12900580373456907 0.1303729473190062 0.98303631530587587
8 -0.12157952427520022 0.36844895702523506 0.92166359662516373
9 0.12157952419037182 -0.36844895690052604 0.92166359668620801
10 0.12900580375165319 -0.13037294706269029 0.98303631533762714
11 0.12900580373456907 0.1303729473190062 0.98303631530587587
12 0.12157952446295059 0.36844895684110157 0.9216635966740071
13 0.34748651369915279 -0.35094772133050217 0.8695336794455617
14 0.36558383240970077 -0.12307497425069472 0.92260555612559947
15 0.36558383195062405 0.12307497450525308 0.92260555627355134
16 0.34748651369915279 0.35094772133050217 0.8695336794455617
17 0.49498272020096568 -0.36962898283984674 0.78636284356983244
18 0.54785227289686311 -0.13555740211495254 0.82551927767532252
19 0.54785227289318827 0.13555740216966952 0.8255192776687762
20 0.49498272006018362 0.36962898285882551 0.78636284364952802
21 0.5759602591849573 -0.42299142810890311 0.69953415326629154
22 0.67959031744287046 -0.16425146101412263 0.71496745240089421
23 0.67959031736228781 0.16425146104261387 0.71496745247094395
24 0.57596025915871774 0.42299142797316375 0.69953415336997404
25 0.36548747061211584 0.49924134268131637 0.7856061294206621
26 0.13352375849124579 0.55106644972617425 0.82370939894149642
27 -0.13352375858270135 0.55106644975362717 0.82370939890830541
28 -0.36548747057534353 0.49924134256403058 0.78560612951230324
29 0.41697315671125357 0.58097105845659502 0.69900358784349315
30 0.16077485417721996 0.68291524551791671 0.71258558342384193
31 -0.16077485461302618 0.6829152454794527 0.7125855833623771
32 -0.41697315687609121 0.58097105828125273 0.69900358789089767
33 -0.49498272005912691 0.3696289827708466 0.78636284369154752
34 -0.54785227281309201 0.13555740231869037 0.82551927769746125
35 -0.54785227296546479 -0.13555740213708814 0.8255192776261604
36 -0.49498272015704448 -0.36962898270990707 0.78636284365855702
37 -0.57596025907154336 0.42299142818153895 0.69953415331574942
38 -0.67959031711607454 0.16425146124233539 0.71496745265909201
39 -0.67959031694506811 -0.16425146148312811 0.7149674527663189
40 -0.57596025925295202 -0.42299142805091855 0.69953415324537005
41 -0.36548747082338895 -0.4992413424914659 0.78560612944301889
42 -0.13352375844679684 -0.55106644986806608 0.82370939885377525
43 0.13352375847851874 -0.55106644995332155 0.82370939879159655
44 0.36548747062359588 -0.49924134262771186 0.78560612944938624
45 -0.41697315672747304 -0.58097105857817755 0.69900358773276561
46 -0.16077485418383522 -0.68291524573354645 0.71258558321569798
47 0.16077485471611053 -0.68291524538339055 0.71258558343118139
48 0.4169731566684074 -0.58097105856510967 0.69900358777886096
49 -0.33262308718085637 -0.33325647080649123 0.88221426339630138
50 -0.34592718112942022 -0.11547376766912937 0.93112845211396544
51 -0.34592718112942022 0.11547376766912937 0.93112845211396544
52 -0.33262308720573153 0.33325647087891441 0.88221426335956488
53 -0.11514136608328505 -0.34589872474040789 0.93118018559215199
54 -0.12040131081582502 -0.12055912592626794 0.98537760351538595
55 -0.12040131103915248 0.12055912543174215 0.98537760354860238
56 -0.11514136605508242 0.34589872449103892 0.93118018568827043
57 0.11514136625723484 -0.34589872444447439 0.93118018568057104
58 0.12040131103915248 -0.12055912543174215 0.98537760354860238
59 0.12040131081582502 0.12055912592626794 0.98537760351538595
60 0.11514136650580929 0.34589872451388737 0.93118018562405025
61 0.33262308721016709 -0.33325647084069338 0.88221426337233055
62 0.34592718112942022 -0.11547376766912937 0.93112845211396544
63 0.34592718112942022 0.11547376766912937 0.93112845211396544
64 0.33262308723365125 0.33325647063833191 0.88221426343991827
65 0.48094948097300766 -0.35695653430756691 0.80079312519958945
66 0.52847894842491927 -0.12992620826228532 0.83894527919184148
67 0.52847894867241163 0.12992620802969321 0.83894527907195904
68 0.48094948088356476 0.35695653442261749 0.80079312520202373
69 0.5673389811936147 -0.41438157912753409 0.71162798377942005
70 0.66755118480802444 -0.16042554613992249 0.72707569056261978
71 0.66755118480802444 0.16042554613992249 0.72707569056261978
72 0.56733898122238158 0.41438157883752114 0.71162798392536086
73 0.35560169204246445 0.48197421941020485 0.80077980022004791
74 0.12911814694875323 0.52840881697234865 0.83911419143904542
75 -0.12911814695034379 0.52840881687263774 0.83911419150159094
76 -0.3556016920320943 0.48197421945918323 0.80077980019517392
77 0.41108855245729065 0.56932713198493479 0.71195001146455361
78 0.15826318301864536 0.6679488565742574 0.72718435757512601
79 -0.15826318304372322 0.6679488567849956 0.72718435737609621
80 -0.41108855248106024 0.56932713201301477 0.71195001142837389
81 -0.4809494808712006 0.3569565344158025 0.80079312521248758
82 -0.5284789485788598 0.12992620803788674 0.83894527912962169
83 -0.5284789485842768 -0.12992620803741231 0.83894527912628281
84 -0.48094948087868022 -0.35695653433684044 0.80079312524319302
85 -0.56733898120971626 0.41438157909923512 0.71162798378306158
86 -0.66755118484562392 0.16042554588157229 0.72707569058510213
87 -0.66755118468621977 -0.16042554566806372 0.72707569077856571
88 -0.56733898107157299 -0.41438157916783319 0.71162798385325055
89 -0.35560169204246439 -0.4819742194102048 0.80077980022004791
90 -0.12911814694821575 -0.52840881697846853 0.83911419143527433
91 0.12911814718835249 -0.52840881691570485 0.83911419143784716
92 0.35560169185552926 -0.48197421956899772 0.80077980020748574
93 -0.41108855235585379 -0.56932713204688057 0.71195001147358816
94 -0.15826318286249061 -0.66794885660202052 0.72718435758360978
95 0.15826318307920761 -0.66794885658536962 0.7271843575517386
96 0.41108855272806455 -0.56932713168138338 0.71195001155094728
$EndElementData
