$MeshFormat
2.2 0 8
$EndMeshFormat
$PhysicalNames
5
1 1 "anterior"
1 2 "posterior"
1 3 "limbus"
1 4 "central_line"
2 10 "cornea"
$EndPhysicalNames
$Nodes
300
1 0 2.31392385991 0
2 0.121042855411 2.31284649847 0
3 0.242047367876 2.30961512388 0
4 0.362975258991 2.30423186308 0
5 0.483788379083 2.29670025304 0
6 0.604448770658 2.28702522906 0
7 0.724918730779 2.27521310841 0
8 0.84516087203 2.26127156959 0
9 0.965138181727 2.24520962733 0
10 1.08481407909 2.22703760344 0
11 1.20415247008 2.20676709391 0
12 1.32311779965 2.18441093236 0
13 1.44167510118 2.15998315018 0
14 1.55979004291 2.1334989337 0
15 1.6774289711 2.10497457855 0
16 1.79455895001 2.07442744175 0
17 1.91114779828 2.04187589161 0
18 2.02716412191 2.00733925598 0
19 2.1425773436 1.97083776908 0
20 2.25735772855 1.93239251723 0
21 2.37147640667 1.89202538382 0
22 2.48490539126 1.84975899388 0
23 2.59761759419 1.80561665839 0
24 2.70958683774 1.75962231887 0
25 2.82078786309 1.71180049223 0
26 2.93119633572 1.66217621633 0
27 3.04078884766 1.61077499641 0
28 3.14954291702 1.55762275258 0
29 3.25743698466 1.50274576856 0
30 3.36445040838 1.44617064192 0
31 3.47056345475 1.3879242358 0
32 3.57575728867 1.32803363245 0
33 3.680013961 1.26652608845 0
34 3.78331639431 1.20342899192 0
35 3.88564836696 1.13876982165 0
36 3.98699449572 1.07257610823 0
37 4.08734021712 1.00487539726 0
38 4.18667176757 0.93569521457 0
39 4.2849761626 0.865063033566 0
40 4.38224117519 0.79300624456 0
41 4.47845531343 0.719552126193 0
42 4.57360779773 0.644727818844 0
43 4.66768853748 0.568560299994 0
44 4.76068810745 0.491076361534 0
45 4.85259772413 0.412302588917 0
46 4.94340922178 0.332265342131 0
47 5.03311502865 0.250990738408 0
48 5.12170814327 0.168504636619 0
49 5.20918211085 0.0848326232621 0
50 5.295531 8.881784197e-16 0
51 0 2.41992385991 0
52 0.122854163724 2.41884496034 0
53 0.245670414903 2.41560892325 0
54 0.368410899104 2.41021773157 0
55 0.491037877809 2.40267468322 0
56 0.613513785589 2.39298438094 0
57 0.73580128636 2.381152718 0
58 0.857863328416 2.36718686004 0
59 0.979663197968 2.35109522325 0
60 1.10116457092 2.33288744885 0
61 1.22233156266 2.31257437431 0
62 1.34312877558 2.29016800133 0
63 1.46352134422 2.26568146088 0
64 1.58347497776 2.23912897563 0
65 1.7029559998 2.21052581986 0
66 1.82193138524 2.17988827726 0
67 1.94036879416 2.1472335969 0
68 2.05823660268 2.11257994752 0
69 2.1755039307 2.07594637059 0
70 2.29214066654 2.03735273226 0
71 2.40811748844 1.99681967465 0
72 2.52340588297 1.95436856654 0
73 2.6379781604 1.91002145393 0
74 2.75180746706 1.86380101052 0
75 2.86486779485 1.81573048846 0
76 2.97713398791 1.76583366961 0
77 3.08858174655 1.71413481736 0
78 3.19918762872 1.66065862936 0
79 3.30892904894 1.60543019123 0
80 3.41778427499 1.54847493142 0
81 3.52573242243 1.48981857737 0
82 3.6327534471 1.42948711304 0
83 3.73882813578 1.36750673801 0
84 3.84393809516 1.30390382805 0
85 3.94806573927 1.23870489742 0
86 4.05119427545 1.17193656283 0
87 4.15330768917 1.10362550917 0
88 4.25439072764 1.03379845691 0
89 4.3544288825 0.962482131336 0
90 4.45340837171 0.889703233574 0
91 4.55131612065 0.815488413292 0
92 4.64813974266 0.73986424321 0
93 4.74386751915 0.662857195288 0
94 4.83848837925 0.584493618613 0
95 4.93199187931 0.504799718916 0
96 5.02436818208 0.423801539692 0
97 5.11560803592 0.341524944861 0
98 5.20570275392 0.257995602934 0
99 5.29464419311 0.17323897261 0
100 5.3824247338 0.0872802897602 0
101 0 2.52592385991 0
102 0.124665472037 2.52484342221 0
103 0.24929346193 2.52160272263 0
104 0.373846539217 2.51620360005 0
105 0.498287376534 2.50864911339 0
106 0.62257880052 2.49894353282 0
107 0.74668384194 2.48709232759 0
108 0.870565784801 2.4731021505 0
109 0.99418821421 2.45698081917 0
110 1.11751506276 2.43873729426 0
111 1.24051065525 2.41838165471 0
112 1.36313975152 2.3959250703 0
113 1.48536758725 2.37137977158 0
114 1.60715991261 2.34475901756 0
115 1.7284830285 2.31607706116 0
116 1.84930382047 2.28534911277 0
117 1.96958979004 2.25259130219 0
118 2.08930908344 2.21782063907 0
119 2.2084305178 2.1810549721 0
120 2.32692360454 2.14231294729 0
121 2.44475857022 2.10161396547 0
122 2.56190637469 2.05897813921 0
123 2.67833872661 2.01442624948 0
124 2.79402809638 1.96797970216 0
125 2.90894772661 1.91966048469 0
126 3.0230716401 1.86949112289 0
127 3.13637464543 1.81749463831 0
128 3.24883234041 1.76369450615 0
129 3.36042111321 1.70811461391 0
130 3.4711181416 1.65077922093 0
131 3.58090139012 1.59171291893 0
132 3.68974960553 1.53094059363 0
133 3.79764231055 1.46848738757 0
134 3.90455979601 1.40437866417 0
135 4.01048311158 1.33863997318 0
136 4.11539405519 1.27129701744 0
137 4.21927516123 1.20237562109 0
138 4.3221096877 1.13190169924 0
139 4.4238816024 1.05990122911 0
140 4.52457556824 0.986400222588 0
141 4.62417692787 0.911424700391 0
142 4.72267168759 0.835000667576 0
143 4.82004650082 0.757154090582 0
144 4.91628865105 0.677910875692 0
145 5.01138603449 0.597296848915 0
146 5.10532714239 0.515337737253 0
147 5.19810104319 0.432059151313 0
148 5.28969736457 0.347486569249 0
149 5.38010627537 0.261645321958 0
150 5.46931846759 0.17456057952 0
151 0 2.63192385991 0
152 0.12647678035 2.63084188408 0
153 0.252916508957 2.627596522 0
154 0.379282179329 2.62218946854 0
155 0.50553687526 2.61462354357 0
156 0.631643815451 2.60490268471 0
157 0.757566397521 2.59303193718 0
158 0.883268241187 2.57901744095 0
159 1.00871323045 2.56286641509 0
160 1.1338655546 2.54458713967 0
161 1.25868974784 2.52418893511 0
162 1.38315072745 2.50168213926 0
163 1.50721383028 2.47707808228 0
164 1.63084484746 2.4503890595 0
165 1.7540100572 2.42162830246 0
166 1.8766762557 2.39080994828 0
167 1.99881078592 2.35794900749 0
168 2.12038156421 2.32306133062 0
169 2.2413571049 2.28616357361 0
170 2.36170654253 2.24727316232 0
171 2.48139965199 2.2064082563 0
172 2.60040686641 2.16358771188 0
173 2.71869929282 2.11883104502 0
174 2.8362487257 2.07215839381 0
175 2.95302765838 2.02359048092 0
176 3.06900929229 1.97314857617 0
177 3.18416754432 1.92085445925 0
178 3.2984770521 1.86673038293 0
179 3.41191317749 1.81079903658 0
180 3.52445200821 1.75308351043 0
181 3.6360703578 1.69360726049 0
182 3.74674576396 1.63239407422 0
183 3.85645648532 1.56946803712 0
184 3.96518149686 1.50485350029 0
185 4.07290048389 1.43857504895 0
186 4.17959383492 1.37065747204 0
187 4.28524263328 1.30112573301 0
188 4.38982864776 1.23000494158 0
189 4.4933343223 1.15732032688 0
190 4.59574276477 1.0830972116 0
191 4.69703773509 1.00736098749 0
192 4.79720363251 0.930137091943 0
193 4.89622548249 0.851450985876 0
194 4.99408892285 0.771328132771 0
195 5.09078018967 0.689793978914 0
196 5.1862861027 0.606873934813 0
197 5.28059405046 0.522593357766 0
198 5.37369197521 0.436977535564 0
199 5.46556835762 0.350051671306 0
200 5.55621220139 0.261840869281 0
201 0 2.73792385991 0
202 0.128288088662 2.73684034595 0
203 0.256539555985 2.73359032137 0
204 0.384717819442 2.72817533702 0
205 0.512786373985 2.72059797374 0
206 0.640708830382 2.71086183659 0
207 0.768448953101 2.69897154678 0
208 0.895970697573 2.6849327314 0
209 1.02323824669 2.66875201101 0
210 1.15021604643 2.65043698508 0
211 1.27686884042 2.62999621551 0
212 1.40316170339 2.60743920823 0
213 1.52906007332 2.58277639298 0
214 1.65452978231 2.55601910143 0
215 1.7795370859 2.52717954376 0
216 1.90404869093 2.49627078379 0
217 2.02803178179 2.46330671278 0
218 2.15145404498 2.42830202216 0
219 2.274283692 2.39127217512 0
220 2.39648948052 2.35223337736 0
221 2.51804073376 2.31120254712 0
222 2.63890735812 2.26819728454 0
223 2.75905985903 2.22323584057 0
224 2.87846935503 2.17633708546 0
225 2.99710759014 2.12752047716 0
226 3.11494694448 2.07680602945 0
227 3.2319604432 2.0242142802 0
228 3.34812176379 1.96976625971 0
229 3.46340524176 1.91348345925 0
230 3.57778587482 1.85538779994 0
231 3.69123932549 1.79550160206 0
232 3.80374192239 1.73384755481 0
233 3.9152706601 1.67044868668 0
234 4.02580319771 1.60532833641 0
235 4.1353178562 1.53851012471 0
236 4.24379361465 1.47001792665 0
237 4.35121010533 1.39987584493 0
238 4.45754760782 1.32810818392 0
239 4.56278704219 1.25473942465 0
240 4.6669099613 1.17979420062 0
241 4.7698985423 1.10329727459 0
242 4.87173557744 1.02527351631 0
243 4.97240446416 0.94574788117 0
244 5.07188919465 0.864745389849 0
245 5.17017434486 0.782291108913 0
246 5.267245063 0.698410132374 0
247 5.36308705773 0.613127564219 0
248 5.45768658586 0.52646850188 0
249 5.55103043988 0.438458020654 0
250 5.64310593519 0.349121159041 0
251 0 2.84392385991 0
252 0.130099396975 2.84283880781 0
253 0.260162603012 2.83958412074 0
254 0.390153459555 2.83416120551 0
255 0.52003587271 2.82657240392 0
256 0.649773845313 2.81682098847 0
257 0.779331508682 2.80491115637 0
258 0.908673153958 2.79084802185 0
259 1.03776326293 2.77463760693 0
260 1.16656653827 2.75628683048 0
261 1.29504793301 2.73580349591 0
262 1.42317267932 2.7131962772 0
263 1.55090631635 2.68847470368 0
264 1.67821471716 2.66164914336 0
265 1.8050641146 2.63273078506 0
266 1.93142112617 2.60173161929 0
267 2.05725277767 2.56866441808 0
268 2.18252652575 2.53354271371 0
269 2.3072102791 2.49638077662 0
270 2.43127241851 2.45719359239 0
271 2.55468181554 2.41599683794 0
272 2.67740784984 2.37280685721 0
273 2.79942042524 2.32764063611 0
274 2.92068998435 2.28051577711 0
275 3.0411875219 2.23145047339 0
276 3.16088459667 2.18046348272 0
277 3.27975334208 2.12757410115 0
278 3.39776647548 2.0728021365 0
279 3.51489730604 2.01616788192 0
280 3.63111974143 1.95769208945 0
281 3.74640829317 1.89739594362 0
282 3.86073808082 1.8353010354 0
283 3.97408483487 1.77142933623 0
284 4.08642489855 1.70580317254 0
285 4.19773522851 1.63844520048 0
286 4.30799339438 1.56937838126 0
287 4.41717757738 1.49862595684 0
288 4.52526656788 1.42621142626 0
289 4.63223976209 1.35215852242 0
290 4.73807715783 1.27649118963 0
291 4.84275934952 1.19923356169 0
292 4.94626752236 1.12040994068 0
293 5.04858344583 1.04004477646 0
294 5.14968946645 0.958162646928 0
295 5.24956850004 0.874788238912 0
296 5.34820402331 0.789946329935 0
297 5.445580065 0.703661770672 0
298 5.54168119651 0.615959468195 0
299 5.63649252214 0.526864370001 0
300 5.72999966898 0.436401448801 0
$EndNodes
$Elements
353
1 1 2 2 2 1 2
2 1 2 2 2 2 3
3 1 2 2 2 3 4
4 1 2 2 2 4 5
5 1 2 2 2 5 6
6 1 2 2 2 6 7
7 1 2 2 2 7 8
8 1 2 2 2 8 9
9 1 2 2 2 9 10
10 1 2 2 2 10 11
11 1 2 2 2 11 12
12 1 2 2 2 12 13
13 1 2 2 2 13 14
14 1 2 2 2 14 15
15 1 2 2 2 15 16
16 1 2 2 2 16 17
17 1 2 2 2 17 18
18 1 2 2 2 18 19
19 1 2 2 2 19 20
20 1 2 2 2 20 21
21 1 2 2 2 21 22
22 1 2 2 2 22 23
23 1 2 2 2 23 24
24 1 2 2 2 24 25
25 1 2 2 2 25 26
26 1 2 2 2 26 27
27 1 2 2 2 27 28
28 1 2 2 2 28 29
29 1 2 2 2 29 30
30 1 2 2 2 30 31
31 1 2 2 2 31 32
32 1 2 2 2 32 33
33 1 2 2 2 33 34
34 1 2 2 2 34 35
35 1 2 2 2 35 36
36 1 2 2 2 36 37
37 1 2 2 2 37 38
38 1 2 2 2 38 39
39 1 2 2 2 39 40
40 1 2 2 2 40 41
41 1 2 2 2 41 42
42 1 2 2 2 42 43
43 1 2 2 2 43 44
44 1 2 2 2 44 45
45 1 2 2 2 45 46
46 1 2 2 2 46 47
47 1 2 2 2 47 48
48 1 2 2 2 48 49
49 1 2 2 2 49 50
50 1 2 1 1 251 252
51 1 2 1 1 252 253
52 1 2 1 1 253 254
53 1 2 1 1 254 255
54 1 2 1 1 255 256
55 1 2 1 1 256 257
56 1 2 1 1 257 258
57 1 2 1 1 258 259
58 1 2 1 1 259 260
59 1 2 1 1 260 261
60 1 2 1 1 261 262
61 1 2 1 1 262 263
62 1 2 1 1 263 264
63 1 2 1 1 264 265
64 1 2 1 1 265 266
65 1 2 1 1 266 267
66 1 2 1 1 267 268
67 1 2 1 1 268 269
68 1 2 1 1 269 270
69 1 2 1 1 270 271
70 1 2 1 1 271 272
71 1 2 1 1 272 273
72 1 2 1 1 273 274
73 1 2 1 1 274 275
74 1 2 1 1 275 276
75 1 2 1 1 276 277
76 1 2 1 1 277 278
77 1 2 1 1 278 279
78 1 2 1 1 279 280
79 1 2 1 1 280 281
80 1 2 1 1 281 282
81 1 2 1 1 282 283
82 1 2 1 1 283 284
83 1 2 1 1 284 285
84 1 2 1 1 285 286
85 1 2 1 1 286 287
86 1 2 1 1 287 288
87 1 2 1 1 288 289
88 1 2 1 1 289 290
89 1 2 1 1 290 291
90 1 2 1 1 291 292
91 1 2 1 1 292 293
92 1 2 1 1 293 294
93 1 2 1 1 294 295
94 1 2 1 1 295 296
95 1 2 1 1 296 297
96 1 2 1 1 297 298
97 1 2 1 1 298 299
98 1 2 1 1 299 300
99 1 2 4 4 1 51
100 1 2 4 4 51 101
101 1 2 4 4 101 151
102 1 2 4 4 151 201
103 1 2 4 4 201 251
104 1 2 3 3 50 100
105 1 2 3 3 100 150
106 1 2 3 3 150 200
107 1 2 3 3 200 250
108 1 2 3 3 250 300
109 3 2 10 10 1 2 52 51
110 3 2 10 10 2 3 53 52
111 3 2 10 10 3 4 54 53
112 3 2 10 10 4 5 55 54
113 3 2 10 10 5 6 56 55
114 3 2 10 10 6 7 57 56
115 3 2 10 10 7 8 58 57
116 3 2 10 10 8 9 59 58
117 3 2 10 10 9 10 60 59
118 3 2 10 10 10 11 61 60
119 3 2 10 10 11 12 62 61
120 3 2 10 10 12 13 63 62
121 3 2 10 10 13 14 64 63
122 3 2 10 10 14 15 65 64
123 3 2 10 10 15 16 66 65
124 3 2 10 10 16 17 67 66
125 3 2 10 10 17 18 68 67
126 3 2 10 10 18 19 69 68
127 3 2 10 10 19 20 70 69
128 3 2 10 10 20 21 71 70
129 3 2 10 10 21 22 72 71
130 3 2 10 10 22 23 73 72
131 3 2 10 10 23 24 74 73
132 3 2 10 10 24 25 75 74
133 3 2 10 10 25 26 76 75
134 3 2 10 10 26 27 77 76
135 3 2 10 10 27 28 78 77
136 3 2 10 10 28 29 79 78
137 3 2 10 10 29 30 80 79
138 3 2 10 10 30 31 81 80
139 3 2 10 10 31 32 82 81
140 3 2 10 10 32 33 83 82
141 3 2 10 10 33 34 84 83
142 3 2 10 10 34 35 85 84
143 3 2 10 10 35 36 86 85
144 3 2 10 10 36 37 87 86
145 3 2 10 10 37 38 88 87
146 3 2 10 10 38 39 89 88
147 3 2 10 10 39 40 90 89
148 3 2 10 10 40 41 91 90
149 3 2 10 10 41 42 92 91
150 3 2 10 10 42 43 93 92
151 3 2 10 10 43 44 94 93
152 3 2 10 10 44 45 95 94
153 3 2 10 10 45 46 96 95
154 3 2 10 10 46 47 97 96
155 3 2 10 10 47 48 98 97
156 3 2 10 10 48 49 99 98
157 3 2 10 10 49 50 100 99
158 3 2 10 10 51 52 102 101
159 3 2 10 10 52 53 103 102
160 3 2 10 10 53 54 104 103
161 3 2 10 10 54 55 105 104
162 3 2 10 10 55 56 106 105
163 3 2 10 10 56 57 107 106
164 3 2 10 10 57 58 108 107
165 3 2 10 10 58 59 109 108
166 3 2 10 10 59 60 110 109
167 3 2 10 10 60 61 111 110
168 3 2 10 10 61 62 112 111
169 3 2 10 10 62 63 113 112
170 3 2 10 10 63 64 114 113
171 3 2 10 10 64 65 115 114
172 3 2 10 10 65 66 116 115
173 3 2 10 10 66 67 117 116
174 3 2 10 10 67 68 118 117
175 3 2 10 10 68 69 119 118
176 3 2 10 10 69 70 120 119
177 3 2 10 10 70 71 121 120
178 3 2 10 10 71 72 122 121
179 3 2 10 10 72 73 123 122
180 3 2 10 10 73 74 124 123
181 3 2 10 10 74 75 125 124
182 3 2 10 10 75 76 126 125
183 3 2 10 10 76 77 127 126
184 3 2 10 10 77 78 128 127
185 3 2 10 10 78 79 129 128
186 3 2 10 10 79 80 130 129
187 3 2 10 10 80 81 131 130
188 3 2 10 10 81 82 132 131
189 3 2 10 10 82 83 133 132
190 3 2 10 10 83 84 134 133
191 3 2 10 10 84 85 135 134
192 3 2 10 10 85 86 136 135
193 3 2 10 10 86 87 137 136
194 3 2 10 10 87 88 138 137
195 3 2 10 10 88 89 139 138
196 3 2 10 10 89 90 140 139
197 3 2 10 10 90 91 141 140
198 3 2 10 10 91 92 142 141
199 3 2 10 10 92 93 143 142
200 3 2 10 10 93 94 144 143
201 3 2 10 10 94 95 145 144
202 3 2 10 10 95 96 146 145
203 3 2 10 10 96 97 147 146
204 3 2 10 10 97 98 148 147
205 3 2 10 10 98 99 149 148
206 3 2 10 10 99 100 150 149
207 3 2 10 10 101 102 152 151
208 3 2 10 10 102 103 153 152
209 3 2 10 10 103 104 154 153
210 3 2 10 10 104 105 155 154
211 3 2 10 10 105 106 156 155
212 3 2 10 10 106 107 157 156
213 3 2 10 10 107 108 158 157
214 3 2 10 10 108 109 159 158
215 3 2 10 10 109 110 160 159
216 3 2 10 10 110 111 161 160
217 3 2 10 10 111 112 162 161
218 3 2 10 10 112 113 163 162
219 3 2 10 10 113 114 164 163
220 3 2 10 10 114 115 165 164
221 3 2 10 10 115 116 166 165
222 3 2 10 10 116 117 167 166
223 3 2 10 10 117 118 168 167
224 3 2 10 10 118 119 169 168
225 3 2 10 10 119 120 170 169
226 3 2 10 10 120 121 171 170
227 3 2 10 10 121 122 172 171
228 3 2 10 10 122 123 173 172
229 3 2 10 10 123 124 174 173
230 3 2 10 10 124 125 175 174
231 3 2 10 10 125 126 176 175
232 3 2 10 10 126 127 177 176
233 3 2 10 10 127 128 178 177
234 3 2 10 10 128 129 179 178
235 3 2 10 10 129 130 180 179
236 3 2 10 10 130 131 181 180
237 3 2 10 10 131 132 182 181
238 3 2 10 10 132 133 183 182
239 3 2 10 10 133 134 184 183
240 3 2 10 10 134 135 185 184
241 3 2 10 10 135 136 186 185
242 3 2 10 10 136 137 187 186
243 3 2 10 10 137 138 188 187
244 3 2 10 10 138 139 189 188
245 3 2 10 10 139 140 190 189
246 3 2 10 10 140 141 191 190
247 3 2 10 10 141 142 192 191
248 3 2 10 10 142 143 193 192
249 3 2 10 10 143 144 194 193
250 3 2 10 10 144 145 195 194
251 3 2 10 10 145 146 196 195
252 3 2 10 10 146 147 197 196
253 3 2 10 10 147 148 198 197
254 3 2 10 10 148 149 199 198
255 3 2 10 10 149 150 200 199
256 3 2 10 10 151 152 202 201
257 3 2 10 10 152 153 203 202
258 3 2 10 10 153 154 204 203
259 3 2 10 10 154 155 205 204
260 3 2 10 10 155 156 206 205
261 3 2 10 10 156 157 207 206
262 3 2 10 10 157 158 208 207
263 3 2 10 10 158 159 209 208
264 3 2 10 10 159 160 210 209
265 3 2 10 10 160 161 211 210
266 3 2 10 10 161 162 212 211
267 3 2 10 10 162 163 213 212
268 3 2 10 10 163 164 214 213
269 3 2 10 10 164 165 215 214
270 3 2 10 10 165 166 216 215
271 3 2 10 10 166 167 217 216
272 3 2 10 10 167 168 218 217
273 3 2 10 10 168 169 219 218
274 3 2 10 10 169 170 220 219
275 3 2 10 10 170 171 221 220
276 3 2 10 10 171 172 222 221
277 3 2 10 10 172 173 223 222
278 3 2 10 10 173 174 224 223
279 3 2 10 10 174 175 225 224
280 3 2 10 10 175 176 226 225
281 3 2 10 10 176 177 227 226
282 3 2 10 10 177 178 228 227
283 3 2 10 10 178 179 229 228
284 3 2 10 10 179 180 230 229
285 3 2 10 10 180 181 231 230
286 3 2 10 10 181 182 232 231
287 3 2 10 10 182 183 233 232
288 3 2 10 10 183 184 234 233
289 3 2 10 10 184 185 235 234
290 3 2 10 10 185 186 236 235
291 3 2 10 10 186 187 237 236
292 3 2 10 10 187 188 238 237
293 3 2 10 10 188 189 239 238
294 3 2 10 10 189 190 240 239
295 3 2 10 10 190 191 241 240
296 3 2 10 10 191 192 242 241
297 3 2 10 10 192 193 243 242
298 3 2 10 10 193 194 244 243
299 3 2 10 10 194 195 245 244
300 3 2 10 10 195 196 246 245
301 3 2 10 10 196 197 247 246
302 3 2 10 10 197 198 248 247
303 3 2 10 10 198 199 249 248
304 3 2 10 10 199 200 250 249
305 3 2 10 10 201 202 252 251
306 3 2 10 10 202 203 253 252
307 3 2 10 10 203 204 254 253
308 3 2 10 10 204 205 255 254
309 3 2 10 10 205 206 256 255
310 3 2 10 10 206 207 257 256
311 3 2 10 10 207 208 258 257
312 3 2 10 10 208 209 259 258
313 3 2 10 10 209 210 260 259
314 3 2 10 10 210 211 261 260
315 3 2 10 10 211 212 262 261
316 3 2 10 10 212 213 263 262
317 3 2 10 10 213 214 264 263
318 3 2 10 10 214 215 265 264
319 3 2 10 10 215 216 266 265
320 3 2 10 10 216 217 267 266
321 3 2 10 10 217 218 268 267
322 3 2 10 10 218 219 269 268
323 3 2 10 10 219 220 270 269
324 3 2 10 10 220 221 271 270
325 3 2 10 10 221 222 272 271
326 3 2 10 10 222 223 273 272
327 3 2 10 10 223 224 274 273
328 3 2 10 10 224 225 275 274
329 3 2 10 10 225 226 276 275
330 3 2 10 10 226 227 277 276
331 3 2 10 10 227 228 278 277
332 3 2 10 10 228 229 279 278
333 3 2 10 10 229 230 280 279
334 3 2 10 10 230 231 281 280
335 3 2 10 10 231 232 282 281
336 3 2 10 10 232 233 283 282
337 3 2 10 10 233 234 284 283
338 3 2 10 10 234 235 285 284
339 3 2 10 10 235 236 286 285
340 3 2 10 10 236 237 287 286
341 3 2 10 10 237 238 288 287
342 3 2 10 10 238 239 289 288
343 3 2 10 10 239 240 290 289
344 3 2 10 10 240 241 291 290
345 3 2 10 10 241 242 292 291
346 3 2 10 10 242 243 293 292
347 3 2 10 10 243 244 294 293
348 3 2 10 10 244 245 295 294
349 3 2 10 10 245 246 296 295
350 3 2 10 10 246 247 297 296
351 3 2 10 10 247 248 298 297
352 3 2 10 10 248 249 299 298
353 3 2 10 10 249 250 300 299
$EndElements
$ElementData
1
"circ"
1
0.0
3
0
3
353
1 0 0 0
2 0 0 0
3 0 0 0
4 0 0 0
5 0 0 0
6 0 0 0
7 0 0 0
8 0 0 0
9 0 0 0
10 0 0 0
11 0 0 0
12 0 0 0
13 0 0 0
14 0 0 0
15 0 0 0
16 0 0 0
17 0 0 0
18 0 0 0
19 0 0 0
20 0 0 0
21 0 0 0
22 0 0 0
23 0 0 0
24 0 0 0
25 0 0 0
26 0 0 0
27 0 0 0
28 0 0 0
29 0 0 0
30 0 0 0
31 0 0 0
32 0 0 0
33 0 0 0
34 0 0 0
35 0 0 0
36 0 0 0
37 0 0 0
38 0 0 0
39 0 0 0
40 0 0 0
41 0 0 0
42 0 0 0
43 0 0 0
44 0 0 0
45 0 0 0
46 0 0 0
47 0 0 0
48 0 0 0
49 0 0 0
50 0 0 0
51 0 0 0
52 0 0 0
53 0 0 0
54 0 0 0
55 0 0 0
56 0 0 0
57 0 0 0
58 0 0 0
59 0 0 0
60 0 0 0
61 0 0 0
62 0 0 0
63 0 0 0
64 0 0 0
65 0 0 0
66 0 0 0
67 0 0 0
68 0 0 0
69 0 0 0
70 0 0 0
71 0 0 0
72 0 0 0
73 0 0 0
74 0 0 0
75 0 0 0
76 0 0 0
77 0 0 0
78 0 0 0
79 0 0 0
80 0 0 0
81 0 0 0
82 0 0 0
83 0 0 0
84 0 0 0
85 0 0 0
86 0 0 0
87 0 0 0
88 0 0 0
89 0 0 0
90 0 0 0
91 0 0 0
92 0 0 0
93 0 0 0
94 0 0 0
95 0 0 0
96 0 0 0
97 0 0 0
98 0 0 0
99 0 0 0
100 0 0 0
101 0 0 0
102 0 0 0
103 0 0 0
104 0 0 0
105 0 0 0
106 0 0 0
107 0 0 0
108 0 0 0
109 0.999960920776 -0.00884064034733 0
110 0.999648381079 -0.0265163007762 0
111 0.999023802961 -0.0441751187646 0
112 0.998088186241 -0.0618059259855 0
113 0.996843023778 -0.0793976444544 0
114 0.995290293369 -0.0969393208431 0
115 0.993432447002 -0.114420161006 0
116 0.991272397731 -0.131829562305 0
117 0.988813504237 -0.149157144779 0
118 0.986059553149 -0.166392781227 0
119 0.983014739554 -0.183526624278 0
120 0.979683645519 -0.200549132891 0
121 0.976071217411 -0.217451094599 0
122 0.972182741661 -0.234223647006 0
123 0.96802381938 -0.250858296878 0
124 0.963600340233 -0.267346936215 0
125 0.958918455893 -0.283681855162 0
126 0.953984552707 -0.299855753982 0
127 0.948805224281 -0.315861752002 0
128 0.943387244471 -0.331693393014 0
129 0.937737539977 -0.347344650336 0
130 0.931863164124 -0.362809927302 0
131 0.925771270358 -0.378084058087 0
132 0.919469087304 -0.393162304262 0
133 0.912963894161 -0.408040350895 0
134 0.906262997237 -0.42271430049 0
135 0.899373707872 -0.437180664701 0
136 0.892303321099 -0.451436355598 0
137 0.885059095559 -0.465478675525 0
138 0.877648235389 -0.479305304497 0
139 0.870077872602 -0.492914288299 0
140 0.862355051198 -0.506304024942 0
141 0.85448671282 -0.519473250144 0
142 0.84647968307 -0.532421023392 0
143 0.838340660284 -0.545146711735 0
144 0.830076204455 -0.557649975161 0
145 0.82169272789 -0.569930750997 0
146 0.813196487614 -0.581989237471 0
147 0.804593577708 -0.593825879119 0
148 0.795889924095 -0.605441350359 0
149 0.787091279602 -0.616836540402 0
150 0.778203219849 -0.628012538582 0
151 0.769231141044 -0.638970618767 0
152 0.760180257676 -0.649712225404 0
153 0.751055601062 -0.660238959857 0
154 0.741862019561 -0.670552566122 0
155 0.732604178355 -0.680654918337 0
156 0.723286560393 -0.690548008146 0
157 0.713913468355 -0.700233932127 0
158 0.999961948023 -0.00872367502918 0
159 0.999657614752 -0.0261658798314 0
160 0.999049387978 -0.0435926643007 0
161 0.99813814498 -0.0609937991582 0
162 0.996925196033 -0.0783591316604 0
163 0.995412277816 -0.0956786139786 0
164 0.993601544462 -0.11294233415 0
165 0.991495556946 -0.130140541558 0
166 0.989097270166 -0.147263675594 0
167 0.986410018596 -0.164302389554 0
168 0.983437500015 -0.181247575332 0
169 0.980183757986 -0.198090384877 0
170 0.976653162811 -0.21482225111 0
171 0.972850391575 -0.231434905778 0
172 0.968780407169 -0.247920395864 0
173 0.964448436261 -0.26427109905 0
174 0.959859947243 -0.280479734881 0
175 0.955020627316 -0.296539375801 0
176 0.949936359513 -0.312443455483 0
177 0.944613199729 -0.328185774977 0
178 0.939057353773 -0.34376050722 0
179 0.933275154691 -0.35916219962 0
180 0.927273040626 -0.374385774473 0
181 0.92105753302 -0.389426528202 0
182 0.914635215525 -0.404280128774 0
183 0.908012713764 -0.418942611396 0
184 0.901196675877 -0.433410372959 0
185 0.894193753875 -0.447680165443 0
186 0.887010586064 -0.461749087936 0
187 0.879653780592 -0.475614577457 0
188 0.872129899771 -0.489274399418 0
189 0.864445445661 -0.502726636927 0
190 0.856606846918 -0.515969679161 0
191 0.848620446313 -0.52900220992 0
192 0.84049248963 -0.541823195217 0
193 0.832229115665 -0.554431870513 0
194 0.823836346911 -0.566827728246 0
195 0.81532008191 -0.579010504252 0
196 0.806686087759 -0.590980165333 0
197 0.797939994553 -0.602736895414 0
198 0.789087289545 -0.614281083445 0
199 0.780133313432 -0.6256133097 0
200 0.771083256079 -0.636734334079 0
201 0.761942154817 -0.647645082367 0
202 0.752714891197 -0.658346635573 0
203 0.743406190512 -0.668840217024 0
204 0.734020620294 -0.679127181743 0
205 0.724562591229 -0.689209004143 0
206 0.715036355908 -0.699087269037 0
207 0.999962932543 -0.0086100836036 0
208 0.999666464498 -0.0258255640254 0
209 0.999073909938 -0.0430269971147 0
210 0.998186030143 -0.0602050598122 0
211 0.99700396251 -0.0773504928242 0
212 0.995529215295 -0.094454123753 0
213 0.993763660493 -0.111506892539 0
214 0.991709525282 -0.128499873404 0
215 0.989369381783 -0.145424297797 0
216 0.986746135363 -0.162271575901 0
217 0.983843011794 -0.179033315739 0
218 0.980663542896 -0.195701342958 0
219 0.977211551399 -0.212267717313 0
220 0.973491134642 -0.228724748932 0
221 0.969506647525 -0.245065012608 0
222 0.965262684859 -0.261281360258 0
223 0.96076406295 -0.277366932679 0
224 0.95601580113 -0.29331516836 0
225 0.951023102805 -0.309119811613 0
226 0.945791336335 -0.324774919157 0
227 0.940326016206 -0.340274864259 0
228 0.934632784014 -0.355614340327 0
229 0.928717389861 -0.370788362506 0
230 0.922585674172 -0.385792267694 0
231 0.916243549648 -0.400621714001 0
232 0.90969698409 -0.415272678053 0
233 0.902951983664 -0.42974145157 0
234 0.896014576846 -0.444024636794 0
235 0.888890798912 -0.458119141282 0
236 0.88158667769 -0.472022170793 0
237 0.874108219443 -0.485731222697 0
238 0.866461396207 -0.499244077465 0
239 0.858652133475 -0.512558790461 0
240 0.85068629905 -0.52567368263 0
241 0.842569692679 -0.538587330875 0
242 0.834308036445 -0.551298558245 0
243 0.825906966043 -0.563806423733 0
244 0.817372022926 -0.576110211798 0
245 0.808708647412 -0.588209421551 0
246 0.79992217202 -0.600103756621 0
247 0.791017816301 -0.611793113964 0
248 0.782000681832 -0.623277573488 0
249 0.772875748074 -0.634557387507 0
250 0.763647869341 -0.645632969768 0
251 0.754321771042 -0.656504886297 0
252 0.744902048332 -0.667173844205 0
253 0.73539316415 -0.677640682162 0
254 0.725799447728 -0.687906361126 0
255 0.716125094055 -0.697971954783 0
256 0.999963876708 -0.00849972223882 0
257 0.99967495163 -0.0254949227154 0
258 0.999097427829 -0.0424774022829 0
259 0.998231956684 -0.0594387134411 0
260 0.997079511752 -0.0763704605439 0
261 0.995641384819 -0.0932643170518 0
262 0.99391918034 -0.110112047261 0
263 0.991914808899 -0.126905523466 0
264 0.989630479302 -0.143636744732 0
265 0.987068689604 -0.160297854017 0
266 0.984232217087 -0.176881154588 0
267 0.981124107137 -0.193379126055 0
268 0.977747661546 -0.209784437797 0
269 0.97410642561 -0.226089963476 0
270 0.970204175021 -0.242288792089 0
271 0.966044901641 -0.258374240229 0
272 0.961632799339 -0.274339860823 0
273 0.95697224903 -0.290179452386 0
274 0.952067803718 -0.305887065963 0
275 0.946924173146 -0.321457011607 0
276 0.941546208504 -0.336883863152 0
277 0.935938887083 -0.352162462005 0
278 0.930107297284 -0.367287919132 0
279 0.924056623165 -0.382255617598 0
280 0.917792130112 -0.397061211785 0
281 0.911319149891 -0.411700627934 0
282 0.90464306711 -0.426170061279 0
283 0.897769305311 -0.440465974215 0
284 0.890703313606 -0.454585093388 0
285 0.883450554556 -0.468524404546 0
286 0.876016491754 -0.482281148476 0
287 0.86840657854 -0.495852815206 0
288 0.860626247025 -0.509237138209 0
289 0.852680898087 -0.522432087489 0
290 0.844575891612 -0.535435862926 0
291 0.836316537593 -0.548246886857 0
292 0.82790808817 -0.560863795893 0
293 0.819355729282 -0.573285434049 0
294 0.810664574657 -0.585510843107 0
295 0.801839658361 -0.597539255848 0
296 0.792885929932 -0.609370086332 0
297 0.783808248909 -0.621002921847 0
298 0.774611379848 -0.632437514867 0
299 0.765299988791 -0.643673773861 0
300 0.755878639642 -0.654711754998 0
301 0.74635179104 -0.665551653902 0
302 0.73672379377 -0.676193797438 0
303 0.726998888884 -0.686638635355 0
304 0.717181205935 -0.696886732442 0
305 0.99996478273 -0.00839245495736 0
306 0.99968309599 -0.025173549458 0
307 0.999119996579 -0.041943204882 0
308 0.998276031639 -0.058693821272 0
309 0.997152019416 -0.075417837241 0
310 0.995749046283 -0.0921077457467 0
311 0.994068462891 -0.108756108267 0
312 0.992111879332 -0.125355569837 0
313 0.989881159407 -0.141898873324 0
314 0.987378414131 -0.158378872669 0
315 0.984605994468 -0.174788545558 0
316 0.981566483073 -0.191121006977 0
317 0.978262685786 -0.207369519454 0
318 0.974697622066 -0.223527505106 0
319 0.970874515174 -0.239588555205 0
320 0.966796781716 -0.255546439738 0
321 0.9624680208 -0.271395115907 0
322 0.957892002824 -0.287128735807 0
323 0.953072658114 -0.302741652827 0
324 0.948014064929 -0.318228428485 0
325 0.942720437981 -0.333583836259 0
326 0.937196116224 -0.348802866581 0
327 0.931445550843 -0.363880730205 0
328 0.925473293574 -0.378812859975 0
329 0.919283984711 -0.39359491289 0
330 0.912882341167 -0.408222771516 0
331 0.906273145408 -0.422692543004 0
332 0.89946123385 -0.437000559269 0
333 0.892451485877 -0.451143375609 0
334 0.885248813302 -0.465117768472 0
335 0.877858149882 -0.478920733197 0
336 0.870284441488 -0.492549480665 0
337 0.862532636353 -0.506001434016 0
338 0.854607676309 -0.519274223888 0
339 0.846514487607 -0.532365684724 0
340 0.838257973016 -0.545273849249 0
341 0.829843004037 -0.557996943228 0
342 0.821274413191 -0.570533380476 0
343 0.812556987817 -0.582881756062 0
344 0.803695463298 -0.595040840846 0
345 0.794694517158 -0.607009575212 0
346 0.78555876373 -0.618787062508 0
347 0.77629274923 -0.630372562452 0
348 0.766900947192 -0.641765484578 0
349 0.757387754162 -0.652965381813 0
350 0.74775748657 -0.663971943141 0
351 0.738014376915 -0.674784987582 0
352 0.728162570917 -0.685404457467 0
353 0.718206125814 -0.695830410979 0
$EndElementData
$ElementData
1
"normal"
1
0.0
3
0
3
353
1 0 0 0
2 0 0 0
3 0 0 0
4 0 0 0
5 0 0 0
6 0 0 0
7 0 0 0
8 0 0 0
9 0 0 0
10 0 0 0
11 0 0 0
12 0 0 0
13 0 0 0
14 0 0 0
15 0 0 0
16 0 0 0
17 0 0 0
18 0 0 0
19 0 0 0
20 0 0 0
21 0 0 0
22 0 0 0
23 0 0 0
24 0 0 0
25 0 0 0
26 0 0 0
27 0 0 0
28 0 0 0
29 0 0 0
30 0 0 0
31 0 0 0
32 0 0 0
33 0 0 0
34 0 0 0
35 0 0 0
36 0 0 0
37 0 0 0
38 0 0 0
39 0 0 0
40 0 0 0
41 0 0 0
42 0 0 0
43 0 0 0
44 0 0 0
45 0 0 0
46 0 0 0
47 0 0 0
48 0 0 0
49 0 0 0
50 0 0 0
51 0 0 0
52 0 0 0
53 0 0 0
54 0 0 0
55 0 0 0
56 0 0 0
57 0 0 0
58 0 0 0
59 0 0 0
60 0 0 0
61 0 0 0
62 0 0 0
63 0 0 0
64 0 0 0
65 0 0 0
66 0 0 0
67 0 0 0
68 0 0 0
69 0 0 0
70 0 0 0
71 0 0 0
72 0 0 0
73 0 0 0
74 0 0 0
75 0 0 0
76 0 0 0
77 0 0 0
78 0 0 0
79 0 0 0
80 0 0 0
81 0 0 0
82 0 0 0
83 0 0 0
84 0 0 0
85 0 0 0
86 0 0 0
87 0 0 0
88 0 0 0
89 0 0 0
90 0 0 0
91 0 0 0
92 0 0 0
93 0 0 0
94 0 0 0
95 0 0 0
96 0 0 0
97 0 0 0
98 0 0 0
99 0 0 0
100 0 0 0
101 0 0 0
102 0 0 0
103 0 0 0
104 0 0 0
105 0 0 0
106 0 0 0
107 0 0 0
108 0 0 0
109 0.00884064034733 0.999960920776 0
110 0.0265163007762 0.999648381079 0
111 0.0441751187646 0.999023802961 0
112 0.0618059259855 0.998088186241 0
113 0.0793976444544 0.996843023778 0
114 0.0969393208431 0.995290293369 0
115 0.114420161006 0.993432447002 0
116 0.131829562305 0.991272397731 0
117 0.149157144779 0.988813504237 0
118 0.166392781227 0.986059553149 0
119 0.183526624278 0.983014739554 0
120 0.200549132891 0.979683645519 0
121 0.217451094599 0.976071217411 0
122 0.234223647006 0.972182741661 0
123 0.250858296878 0.96802381938 0
124 0.267346936215 0.963600340233 0
125 0.283681855162 0.958918455893 0
126 0.299855753982 0.953984552707 0
127 0.315861752002 0.948805224281 0
128 0.331693393014 0.943387244471 0
129 0.347344650336 0.937737539977 0
130 0.362809927302 0.931863164124 0
131 0.378084058087 0.925771270358 0
132 0.393162304262 0.919469087304 0
133 0.408040350895 0.912963894161 0
134 0.42271430049 0.906262997237 0
135 0.437180664701 0.899373707872 0
136 0.451436355598 0.892303321099 0
137 0.465478675525 0.885059095559 0
138 0.479305304497 0.877648235389 0
139 0.492914288299 0.870077872602 0
140 0.506304024942 0.862355051198 0
141 0.519473250144 0.85448671282 0
142 0.532421023392 0.84647968307 0
143 0.545146711735 0.838340660284 0
144 0.557649975161 0.830076204455 0
145 0.569930750997 0.82169272789 0
146 0.581989237471 0.813196487614 0
147 0.593825879119 0.804593577708 0
148 0.605441350359 0.795889924095 0
149 0.616836540402 0.787091279602 0
150 0.628012538582 0.778203219849 0
151 0.638970618767 0.769231141044 0
152 0.649712225404 0.760180257676 0
153 0.660238959857 0.751055601062 0
154 0.670552566122 0.741862019561 0
155 0.680654918337 0.732604178355 0
156 0.690548008146 0.723286560393 0
157 0.700233932127 0.713913468355 0
158 0.00872367502918 0.999961948023 0
159 0.0261658798314 0.999657614752 0
160 0.0435926643007 0.999049387978 0
161 0.0609937991582 0.99813814498 0
162 0.0783591316604 0.996925196033 0
163 0.0956786139786 0.995412277816 0
164 0.11294233415 0.993601544462 0
165 0.130140541558 0.991495556946 0
166 0.147263675594 0.989097270166 0
167 0.164302389554 0.986410018596 0
168 0.181247575332 0.983437500015 0
169 0.198090384877 0.980183757986 0
170 0.21482225111 0.976653162811 0
171 0.231434905778 0.972850391575 0
172 0.247920395864 0.968780407169 0
173 0.26427109905 0.964448436261 0
174 0.280479734881 0.959859947243 0
175 0.296539375801 0.955020627316 0
176 0.312443455483 0.949936359513 0
177 0.328185774977 0.944613199729 0
178 0.34376050722 0.939057353773 0
179 0.35916219962 0.933275154691 0
180 0.374385774473 0.927273040626 0
181 0.389426528202 0.92105753302 0
182 0.404280128774 0.914635215525 0
183 0.418942611396 0.908012713764 0
184 0.433410372959 0.901196675877 0
185 0.447680165443 0.894193753875 0
186 0.461749087936 0.887010586064 0
187 0.475614577457 0.879653780592 0
188 0.489274399418 0.872129899771 0
189 0.502726636927 0.864445445661 0
190 0.515969679161 0.856606846918 0
191 0.52900220992 0.848620446313 0
192 0.541823195217 0.84049248963 0
193 0.554431870513 0.832229115665 0
194 0.566827728246 0.823836346911 0
195 0.579010504252 0.81532008191 0
196 0.590980165333 0.806686087759 0
197 0.602736895414 0.797939994553 0
198 0.614281083445 0.789087289545 0
199 0.6256133097 0.780133313432 0
200 0.636734334079 0.771083256079 0
201 0.647645082367 0.761942154817 0
202 0.658346635573 0.752714891197 0
203 0.668840217024 0.743406190512 0
204 0.679127181743 0.734020620294 0
205 0.689209004143 0.724562591229 0
206 0.699087269037 0.715036355908 0
207 0.0086100836036 0.999962932543 0
208 0.0258255640254 0.999666464498 0
209 0.0430269971147 0.999073909938 0
210 0.0602050598122 0.998186030143 0
211 0.0773504928242 0.99700396251 0
212 0.094454123753 0.995529215295 0
213 0.111506892539 0.993763660493 0
214 0.128499873404 0.991709525282 0
215 0.145424297797 0.989369381783 0
216 0.162271575901 0.986746135363 0
217 0.179033315739 0.983843011794 0
218 0.195701342958 0.980663542896 0
219 0.212267717313 0.977211551399 0
220 0.228724748932 0.973491134642 0
221 0.245065012608 0.969506647525 0
222 0.261281360258 0.965262684859 0
223 0.277366932679 0.96076406295 0
224 0.29331516836 0.95601580113 0
225 0.309119811613 0.951023102805 0
226 0.324774919157 0.945791336335 0
227 0.340274864259 0.940326016206 0
228 0.355614340327 0.934632784014 0
229 0.370788362506 0.928717389861 0
230 0.385792267694 0.922585674172 0
231 0.400621714001 0.916243549648 0
232 0.415272678053 0.90969698409 0
233 0.42974145157 0.902951983664 0
234 0.444024636794 0.896014576846 0
235 0.458119141282 0.888890798912 0
236 0.472022170793 0.88158667769 0
237 0.485731222697 0.874108219443 0
238 0.499244077465 0.866461396207 0
239 0.512558790461 0.858652133475 0
240 0.52567368263 0.85068629905 0
241 0.538587330875 0.842569692679 0
242 0.551298558245 0.834308036445 0
243 0.563806423733 0.825906966043 0
244 0.576110211798 0.817372022926 0
245 0.588209421551 0.808708647412 0
246 0.600103756621 0.79992217202 0
247 0.611793113964 0.791017816301 0
248 0.623277573488 0.782000681832 0
249 0.634557387507 0.772875748074 0
250 0.645632969768 0.763647869341 0
251 0.656504886297 0.754321771042 0
252 0.667173844205 0.744902048332 0
253 0.677640682162 0.73539316415 0
254 0.687906361126 0.725799447728 0
255 0.697971954783 0.716125094055 0
256 0.00849972223882 0.999963876708 0
257 0.0254949227154 0.99967495163 0
258 0.0424774022829 0.999097427829 0
259 0.0594387134411 0.998231956684 0
260 0.0763704605439 0.997079511752 0
261 0.0932643170518 0.995641384819 0
262 0.110112047261 0.99391918034 0
263 0.126905523466 0.991914808899 0
264 0.143636744732 0.989630479302 0
265 0.160297854017 0.987068689604 0
266 0.176881154588 0.984232217087 0
267 0.193379126055 0.981124107137 0
268 0.209784437797 0.977747661546 0
269 0.226089963476 0.97410642561 0
270 0.242288792089 0.970204175021 0
271 0.258374240229 0.966044901641 0
272 0.274339860823 0.961632799339 0
273 0.290179452386 0.95697224903 0
274 0.305887065963 0.952067803718 0
275 0.321457011607 0.946924173146 0
276 0.336883863152 0.941546208504 0
277 0.352162462005 0.935938887083 0
278 0.367287919132 0.930107297284 0
279 0.382255617598 0.924056623165 0
280 0.397061211785 0.917792130112 0
281 0.411700627934 0.911319149891 0
282 0.426170061279 0.90464306711 0
283 0.440465974215 0.897769305311 0
284 0.454585093388 0.890703313606 0
285 0.468524404546 0.883450554556 0
286 0.482281148476 0.876016491754 0
287 0.495852815206 0.86840657854 0
288 0.509237138209 0.860626247025 0
289 0.522432087489 0.852680898087 0
290 0.535435862926 0.844575891612 0
291 0.548246886857 0.836316537593 0
292 0.560863795893 0.82790808817 0
293 0.573285434049 0.819355729282 0
294 0.585510843107 0.810664574657 0
295 0.597539255848 0.801839658361 0
296 0.609370086332 0.792885929932 0
297 0.621002921847 0.783808248909 0
298 0.632437514867 0.774611379848 0
299 0.643673773861 0.765299988791 0
300 0.654711754998 0.755878639642 0
301 0.665551653902 0.74635179104 0
302 0.676193797438 0.73672379377 0
303 0.686638635355 0.726998888884 0
304 0.696886732442 0.717181205935 0
305 0.00839245495736 0.99996478273 0
306 0.025173549458 0.99968309599 0
307 0.041943204882 0.999119996579 0
308 0.058693821272 0.998276031639 0
309 0.075417837241 0.997152019416 0
310 0.0921077457467 0.995749046283 0
311 0.108756108267 0.994068462891 0
312 0.125355569837 0.992111879332 0
313 0.141898873324 0.989881159407 0
314 0.158378872669 0.987378414131 0
315 0.174788545558 0.984605994468 0
316 0.191121006977 0.981566483073 0
317 0.207369519454 0.978262685786 0
318 0.223527505106 0.974697622066 0
319 0.239588555205 0.970874515174 0
320 0.255546439738 0.966796781716 0
321 0.271395115907 0.9624680208 0
322 0.287128735807 0.957892002824 0
323 0.302741652827 0.953072658114 0
324 0.318228428485 0.948014064929 0
325 0.333583836259 0.942720437981 0
326 0.348802866581 0.937196116224 0
327 0.363880730205 0.931445550843 0
328 0.378812859975 0.925473293574 0
329 0.39359491289 0.919283984711 0
330 0.408222771516 0.912882341167 0
331 0.422692543004 0.906273145408 0
332 0.437000559269 0.89946123385 0
333 0.451143375609 0.892451485877 0
334 0.465117768472 0.885248813302 0
335 0.478920733197 0.877858149882 0
336 0.492549480665 0.870284441488 0
337 0.506001434016 0.862532636353 0
338 0.519274223888 0.854607676309 0
339 0.532365684724 0.846514487607 0
340 0.545273849249 0.838257973016 0
341 0.557996943228 0.829843004037 0
342 0.570533380476 0.821274413191 0
343 0.582881756062 0.812556987817 0
344 0.595040840846 0.803695463298 0
345 0.607009575212 0.794694517158 0
346 0.618787062508 0.78555876373 0
347 0.630372562452 0.77629274923 0
348 0.641765484578 0.766900947192 0
349 0.652965381813 0.757387754162 0
350 0.663971943141 0.74775748657 0
351 0.674784987582 0.738014376915 0
352 0.685404457467 0.728162570917 0
353 0.695830410979 0.718206125814 0
$EndElementData
