$MeshFormat
2.2 0 8
$EndMeshFormat
$PhysicalNames
7
2 1 "x0"
2 2 "x1"
2 3 "y0"
2 4 "y1"
2 5 "z0"
2 6 "z1"
3 10 "cube"
$EndPhysicalNames
$Nodes
235
1 0 0 1
2 0 0 0
3 0 1 1
4 0 1 0
5 1 0 1
6 1 0 0
7 1 1 1
8 1 1 0
9 0 0 0.2
10 0 0 0.4
11 0 0 0.6
12 0 0 0.8
13 0 0.2 1
14 0 0.4 1
15 0 0.6 1
16 0 0.8 1
17 0 1 0.2
18 0 1 0.4
19 0 1 0.6
20 0 1 0.8
21 0 0.2 0
22 0 0.4 0
23 0 0.6 0
24 0 0.8 0
25 1 0 0.2
26 1 0 0.4
27 1 0 0.6
28 1 0 0.8
29 1 0.2 1
30 1 0.4 1
31 1 0.6 1
32 1 0.8 1
33 1 1 0.2
34 1 1 0.4
35 1 1 0.6
36 1 1 0.8
37 1 0.2 0
38 1 0.4 0
39 1 0.6 0
40 1 0.8 0
41 0.2 0 0
42 0.4 0 0
43 0.6 0 0
44 0.8 0 0
45 0.2 0 1
46 0.4 0 1
47 0.6 0 1
48 0.8 0 1
49 0.2 1 0
50 0.4 1 0
51 0.6 1 0
52 0.8 1 0
53 0.2 1 1
54 0.4 1 1
55 0.6 1 1
56 0.8 1 1
57 0 0.1732050807568877 0.5
58 0 0.86762395692966 0.5060815484130842
59 0 0.511334914258733 0.8362933879517428
60 0 0.5113349142587333 0.1637066120482572
61 0 0.1693544090111663 0.6991525261438247
62 0 0.3294323965174819 0.6035511415539024
63 0 0.3272445476423867 0.3968994697290522
64 0 0.5196152422706631 0.5000000000000003
65 0 0.6998864233952289 0.1693821434767736
66 0 0.1696231065146906 0.300470822890511
67 0 0.6998864233952286 0.8306178565232263
68 0 0.3163905351026034 0.8117548379099396
69 0 0.3143138707679166 0.1823377050509934
70 0 0.8134721856525715 0.6842154386822444
71 0 0.8275153573879346 0.3140773139059769
72 0 0.6106855812483947 0.3312774089966587
73 0 0.6126192851251918 0.6785385660760863
74 0 0.6824157015083581 0.5231079981948777
75 0 0.8535898384862246 0.8535898384862246
76 0 0.8535898384862247 0.1464101615137752
77 0 0.1464101615137753 0.8535898384862245
78 0 0.1464101615137754 0.1464101615137754
79 0 0.4582018644170682 0.3103030287661162
80 0 0.4582018644170677 0.6896969712338843
81 1 0.1732050807568877 0.5
82 1 0.86762395692966 0.5060815484130842
83 1 0.511334914258733 0.8362933879517428
84 1 0.5113349142587333 0.1637066120482572
85 1 0.1693544090111663 0.6991525261438247
86 1 0.3294323965174819 0.6035511415539024
87 1 0.3272445476423867 0.3968994697290522
88 1 0.5196152422706631 0.5000000000000003
89 1 0.6998864233952289 0.1693821434767736
90 1 0.1696231065146906 0.300470822890511
91 1 0.6998864233952286 0.8306178565232263
92 1 0.3163905351026034 0.8117548379099396
93 1 0.3143138707679166 0.1823377050509934
94 1 0.8134721856525715 0.6842154386822444
95 1 0.8275153573879346 0.3140773139059769
96 1 0.6106855812483947 0.3312774089966587
97 1 0.6126192851251918 0.6785385660760863
98 1 0.6824157015083581 0.5231079981948777
99 1 0.8535898384862246 0.8535898384862246
100 1 0.8535898384862247 0.1464101615137752
101 1 0.1464101615137753 0.8535898384862245
102 1 0.1464101615137754 0.1464101615137754
103 1 0.4582018644170682 0.3103030287661162
104 1 0.4582018644170677 0.6896969712338843
105 0.8664914703891412 0 0.5080519843450139
106 0.1732050807568877 0 0.5
107 0.5113349142587332 0 0.1637066120482572
108 0.5096679054948579 0 0.8372448438200789
109 0.1693544090111663 0 0.6991525261438247
110 0.3294192907182881 0 0.6035600170507085
111 0.327242363342521 0 0.3969009489785199
112 0.519615242270663 0 0.5000000000000001
113 0.6998864233952287 0 0.1693821434767736
114 0.1696230117494945 0 0.3004708870673066
115 0.8119089959777378 0 0.6847650871687175
116 0.8254796004571352 0 0.3158900949321987
117 0.3143136382102572 0 0.1823378625434692
118 0.6942276967358649 0 0.8383692320189351
119 0.3161392851942846 0 0.8118996356736512
120 0.6146205209259525 0 0.3316223633021805
121 0.6111246918096528 0 0.6800969479686985
122 0.6823163033936779 0 0.5234115135122347
123 0.8535898384862245 0 0.1464101615137753
124 0.8535898384862246 0 0.8535898384862246
125 0.1464101615137754 0 0.1464101615137754
126 0.1464101615137752 0 0.8535898384862247
127 0.458201864417068 0 0.3103030287661162
128 0.4581232296219054 0 0.6897502242147212
129 0.8664914703891412 1 0.5080519843450139
130 0.1732050807568877 1 0.5
131 0.5113349142587332 1 0.1637066120482572
132 0.5096679054948579 1 0.8372448438200789
133 0.1693544090111663 1 0.6991525261438247
134 0.3294192907182881 1 0.6035600170507085
135 0.327242363342521 1 0.3969009489785199
136 0.519615242270663 1 0.5000000000000001
137 0.6998864233952287 1 0.1693821434767736
138 0.1696230117494945 1 0.3004708870673066
139 0.8119089959777378 1 0.6847650871687175
140 0.8254796004571352 1 0.3158900949321987
141 0.3143136382102572 1 0.1823378625434692
142 0.6942276967358649 1 0.8383692320189351
143 0.3161392851942846 1 0.8118996356736512
144 0.6146205209259525 1 0.3316223633021805
145 0.6111246918096528 1 0.6800969479686985
146 0.6823163033936779 1 0.5234115135122347
147 0.8535898384862245 1 0.1464101615137753
148 0.8535898384862246 1 0.8535898384862246
149 0.1464101615137754 1 0.1464101615137754
150 0.1464101615137752 1 0.8535898384862247
151 0.458201864417068 1 0.3103030287661162
152 0.4581232296219054 1 0.6897502242147212
153 0.1732050807568877 0.5 0
154 0.8664914703891411 0.5080519843450139 0
155 0.5113349142587333 0.1637066120482572 0
156 0.5096679054948579 0.8372448438200789 0
157 0.1693544090111663 0.6991525261438247 0
158 0.3294192907182882 0.6035600170507086 0
159 0.327242363342521 0.3969009489785199 0
160 0.5196152422706631 0.5000000000000003 0
161 0.6998864233952289 0.1693821434767736 0
162 0.1696230117494945 0.3004708870673066 0
163 0.8119089959777377 0.6847650871687176 0
164 0.3143136382102572 0.1823378625434693 0
165 0.3161392851942847 0.8118996356736511 0
166 0.8254796004571354 0.3158900949321988 0
167 0.6942276967358649 0.8383692320189353 0
168 0.6146205209259528 0.3316223633021806 0
169 0.6111246918096527 0.6800969479686986 0
170 0.6823163033936779 0.5234115135122348 0
171 0.8535898384862247 0.1464101615137752 0
172 0.1464101615137753 0.8535898384862245 0
173 0.1464101615137754 0.1464101615137754 0
174 0.8535898384862247 0.8535898384862247 0
175 0.4582018644170682 0.3103030287661162 0
176 0.4581232296219054 0.6897502242147213 0
177 0.1732050807568877 0.5 1
178 0.8664914703891411 0.5080519843450139 1
179 0.5113349142587333 0.1637066120482572 1
180 0.5096679054948579 0.8372448438200789 1
181 0.1693544090111663 0.6991525261438247 1
182 0.3294192907182882 0.6035600170507086 1
183 0.327242363342521 0.3969009489785199 1
184 0.5196152422706631 0.5000000000000003 1
185 0.6998864233952289 0.1693821434767736 1
186 0.1696230117494945 0.3004708870673066 1
187 0.8119089959777377 0.6847650871687176 1
188 0.3143136382102572 0.1823378625434693 1
189 0.3161392851942847 0.8118996356736511 1
190 0.8254796004571354 0.3158900949321988 1
191 0.6942276967358649 0.8383692320189353 1
192 0.6146205209259528 0.3316223633021806 1
193 0.6111246918096527 0.6800969479686986 1
194 0.6823163033936779 0.5234115135122348 1
195 0.8535898384862247 0.1464101615137752 1
196 0.1464101615137753 0.8535898384862245 1
197 0.1464101615137754 0.1464101615137754 1
198 0.8535898384862247 0.8535898384862247 1
199 0.4582018644170682 0.3103030287661162 1
200 0.4581232296219054 0.6897502242147213 1
201 0.5000000000000001 0.5 0.5
202 0.6860620127105765 0.6863200834193433 0.6863200834193434
203 0.6878526576060671 0.3138708862624207 0.685745392829429
204 0.6866833607474765 0.6859508506722203 0.3136850154171768
205 0.3580488473722688 0.699997784323876 0.300029348995964
206 0.3580488473722688 0.300029348995964 0.699997784323876
207 0.3580615046145199 0.6999788838363735 0.6999788838363734
208 0.3573132871205223 0.3000542561478414 0.3000542561478413
209 0.6753305745176048 0.3120105199600026 0.3120105199600025
210 0.2468517392267108 0.429557254358118 0.5002379189252403
211 0.7515951477166418 0.4691466979963005 0.4957549125106226
212 0.5308426732176399 0.4992474951957721 0.749174784714459
213 0.5303918802736913 0.7491924695400779 0.4996799789237926
214 0.5265811450104957 0.2506580334690881 0.5043816509312222
215 0.5261112893389703 0.5039618672413093 0.2506396008034298
216 0.2327738180412279 0.5000110638158638 0.7631027261875685
217 0.2326932662758842 0.5002519540576649 0.2367953692830462
218 0.7840828612231784 0.7834771678048815 0.5000690227152018
219 0.7737803633106474 0.4966149493962206 0.2121652271843426
220 0.7749730040823529 0.5003599450954914 0.7888825147000335
221 0.2306610018793801 0.7618009292473885 0.5000110691611112
222 0.2944898522016717 0.2037662967667586 0.5001362432906042
223 0.7877347350339583 0.2472265142268972 0.495648714009117
224 0.530214630380015 0.7910404397925342 0.7910404397925342
225 0.5312664295220489 0.2091759608951649 0.7903427629075477
226 0.5306063047328942 0.790577198356112 0.2089496099630139
227 0.5237560410962251 0.2071647308285525 0.2071647308285525
228 0.1939934685980879 0.7817361029764196 0.8063667908882937
229 0.1939878490855383 0.7817352681037791 0.1936275941366178
230 0.1937667440465981 0.1937667440465981 0.7817024192497075
231 0.1936104953579099 0.193610450783101 0.218077469757348
232 0.7768431869945371 0.8152557031403646 0.8152557031403646
233 0.7811818142407226 0.187628428094843 0.1876284280948431
234 0.7770775760320708 0.8128016130813078 0.1835323775145783
235 0.7770659751571902 0.1834168605617924 0.8129230760644759
$EndNodes
$Elements
1130
1 2 2 1 1 12 1 77
2 2 2 1 1 1 13 77
3 2 2 1 1 2 9 78
4 2 2 1 1 21 2 78
5 2 2 1 1 16 3 75
6 2 2 1 1 3 20 75
7 2 2 1 1 17 4 76
8 2 2 1 1 4 24 76
9 2 2 1 1 9 10 66
10 2 2 1 1 9 66 78
11 2 2 1 1 10 11 57
12 2 2 1 1 10 57 66
13 2 2 1 1 11 12 61
14 2 2 1 1 57 11 61
15 2 2 1 1 61 12 77
16 2 2 1 1 13 14 68
17 2 2 1 1 13 68 77
18 2 2 1 1 14 15 59
19 2 2 1 1 14 59 68
20 2 2 1 1 15 16 67
21 2 2 1 1 59 15 67
22 2 2 1 1 67 16 75
23 2 2 1 1 18 17 71
24 2 2 1 1 71 17 76
25 2 2 1 1 19 18 58
26 2 2 1 1 58 18 71
27 2 2 1 1 20 19 70
28 2 2 1 1 19 58 70
29 2 2 1 1 20 70 75
30 2 2 1 1 22 21 69
31 2 2 1 1 69 21 78
32 2 2 1 1 23 22 60
33 2 2 1 1 60 22 69
34 2 2 1 1 24 23 65
35 2 2 1 1 23 60 65
36 2 2 1 1 24 65 76
37 2 2 1 1 57 61 62
38 2 2 1 1 57 62 63
39 2 2 1 1 57 63 66
40 2 2 1 1 70 58 74
41 2 2 1 1 58 71 74
42 2 2 1 1 59 67 73
43 2 2 1 1 68 59 80
44 2 2 1 1 59 73 80
45 2 2 1 1 65 60 72
46 2 2 1 1 60 69 79
47 2 2 1 1 72 60 79
48 2 2 1 1 62 61 68
49 2 2 1 1 68 61 77
50 2 2 1 1 63 62 64
51 2 2 1 1 64 62 80
52 2 2 1 1 62 68 80
53 2 2 1 1 63 64 79
54 2 2 1 1 66 63 69
55 2 2 1 1 69 63 79
56 2 2 1 1 72 64 74
57 2 2 1 1 64 72 79
58 2 2 1 1 64 73 74
59 2 2 1 1 73 64 80
60 2 2 1 1 71 65 72
61 2 2 1 1 65 71 76
62 2 2 1 1 66 69 78
63 2 2 1 1 67 70 73
64 2 2 1 1 70 67 75
65 2 2 1 1 73 70 74
66 2 2 1 1 71 72 74
67 2 2 2 2 28 101 5
68 2 2 2 2 5 101 29
69 2 2 2 2 6 102 25
70 2 2 2 2 37 102 6
71 2 2 2 2 32 99 7
72 2 2 2 2 7 99 36
73 2 2 2 2 33 100 8
74 2 2 2 2 8 100 40
75 2 2 2 2 25 90 26
76 2 2 2 2 25 102 90
77 2 2 2 2 26 81 27
78 2 2 2 2 26 90 81
79 2 2 2 2 27 85 28
80 2 2 2 2 81 85 27
81 2 2 2 2 85 101 28
82 2 2 2 2 29 92 30
83 2 2 2 2 29 101 92
84 2 2 2 2 30 83 31
85 2 2 2 2 30 92 83
86 2 2 2 2 31 91 32
87 2 2 2 2 83 91 31
88 2 2 2 2 91 99 32
89 2 2 2 2 34 95 33
90 2 2 2 2 95 100 33
91 2 2 2 2 35 82 34
92 2 2 2 2 82 95 34
93 2 2 2 2 36 94 35
94 2 2 2 2 35 94 82
95 2 2 2 2 36 99 94
96 2 2 2 2 38 93 37
97 2 2 2 2 93 102 37
98 2 2 2 2 39 84 38
99 2 2 2 2 84 93 38
100 2 2 2 2 40 89 39
101 2 2 2 2 39 89 84
102 2 2 2 2 40 100 89
103 2 2 2 2 81 86 85
104 2 2 2 2 81 87 86
105 2 2 2 2 81 90 87
106 2 2 2 2 94 98 82
107 2 2 2 2 82 98 95
108 2 2 2 2 83 97 91
109 2 2 2 2 92 104 83
110 2 2 2 2 83 104 97
111 2 2 2 2 89 96 84
112 2 2 2 2 84 103 93
113 2 2 2 2 96 103 84
114 2 2 2 2 86 92 85
115 2 2 2 2 92 101 85
116 2 2 2 2 87 88 86
117 2 2 2 2 88 104 86
118 2 2 2 2 86 104 92
119 2 2 2 2 87 103 88
120 2 2 2 2 90 93 87
121 2 2 2 2 93 103 87
122 2 2 2 2 96 98 88
123 2 2 2 2 88 103 96
124 2 2 2 2 88 98 97
125 2 2 2 2 97 104 88
126 2 2 2 2 95 96 89
127 2 2 2 2 89 100 95
128 2 2 2 2 90 102 93
129 2 2 2 2 91 97 94
130 2 2 2 2 94 99 91
131 2 2 2 2 97 98 94
132 2 2 2 2 95 98 96
133 2 2 3 3 1 12 126
134 2 2 3 3 45 1 126
135 2 2 3 3 9 2 125
136 2 2 3 3 2 41 125
137 2 2 3 3 28 5 124
138 2 2 3 3 5 48 124
139 2 2 3 3 6 25 123
140 2 2 3 3 44 6 123
141 2 2 3 3 10 9 114
142 2 2 3 3 114 9 125
143 2 2 3 3 11 10 106
144 2 2 3 3 106 10 114
145 2 2 3 3 12 11 109
146 2 2 3 3 11 106 109
147 2 2 3 3 12 109 126
148 2 2 3 3 25 26 116
149 2 2 3 3 25 116 123
150 2 2 3 3 26 27 105
151 2 2 3 3 26 105 116
152 2 2 3 3 27 28 115
153 2 2 3 3 105 27 115
154 2 2 3 3 115 28 124
155 2 2 3 3 41 42 117
156 2 2 3 3 41 117 125
157 2 2 3 3 42 43 107
158 2 2 3 3 42 107 117
159 2 2 3 3 43 44 113
160 2 2 3 3 107 43 113
161 2 2 3 3 113 44 123
162 2 2 3 3 46 45 119
163 2 2 3 3 119 45 126
164 2 2 3 3 47 46 108
165 2 2 3 3 108 46 119
166 2 2 3 3 48 47 118
167 2 2 3 3 47 108 118
168 2 2 3 3 48 118 124
169 2 2 3 3 105 115 122
170 2 2 3 3 116 105 122
171 2 2 3 3 109 106 110
172 2 2 3 3 110 106 111
173 2 2 3 3 111 106 114
174 2 2 3 3 107 113 120
175 2 2 3 3 117 107 127
176 2 2 3 3 107 120 127
177 2 2 3 3 118 108 121
178 2 2 3 3 108 119 128
179 2 2 3 3 121 108 128
180 2 2 3 3 109 110 119
181 2 2 3 3 109 119 126
182 2 2 3 3 110 111 112
183 2 2 3 3 110 112 128
184 2 2 3 3 119 110 128
185 2 2 3 3 112 111 127
186 2 2 3 3 111 114 117
187 2 2 3 3 111 117 127
188 2 2 3 3 112 120 122
189 2 2 3 3 120 112 127
190 2 2 3 3 121 112 122
191 2 2 3 3 112 121 128
192 2 2 3 3 113 116 120
193 2 2 3 3 116 113 123
194 2 2 3 3 117 114 125
195 2 2 3 3 115 118 121
196 2 2 3 3 118 115 124
197 2 2 3 3 115 121 122
198 2 2 3 3 120 116 122
199 2 2 4 4 3 150 20
200 2 2 4 4 53 150 3
201 2 2 4 4 17 149 4
202 2 2 4 4 4 149 49
203 2 2 4 4 36 148 7
204 2 2 4 4 7 148 56
205 2 2 4 4 8 147 33
206 2 2 4 4 52 147 8
207 2 2 4 4 18 138 17
208 2 2 4 4 138 149 17
209 2 2 4 4 19 130 18
210 2 2 4 4 130 138 18
211 2 2 4 4 20 133 19
212 2 2 4 4 19 133 130
213 2 2 4 4 20 150 133
214 2 2 4 4 33 140 34
215 2 2 4 4 33 147 140
216 2 2 4 4 34 129 35
217 2 2 4 4 34 140 129
218 2 2 4 4 35 139 36
219 2 2 4 4 129 139 35
220 2 2 4 4 139 148 36
221 2 2 4 4 49 141 50
222 2 2 4 4 49 149 141
223 2 2 4 4 50 131 51
224 2 2 4 4 50 141 131
225 2 2 4 4 51 137 52
226 2 2 4 4 131 137 51
227 2 2 4 4 137 147 52
228 2 2 4 4 54 143 53
229 2 2 4 4 143 150 53
230 2 2 4 4 55 132 54
231 2 2 4 4 132 143 54
232 2 2 4 4 56 142 55
233 2 2 4 4 55 142 132
234 2 2 4 4 56 148 142
235 2 2 4 4 129 146 139
236 2 2 4 4 140 146 129
237 2 2 4 4 133 134 130
238 2 2 4 4 134 135 130
239 2 2 4 4 135 138 130
240 2 2 4 4 131 144 137
241 2 2 4 4 141 151 131
242 2 2 4 4 131 151 144
243 2 2 4 4 142 145 132
244 2 2 4 4 132 152 143
245 2 2 4 4 145 152 132
246 2 2 4 4 133 143 134
247 2 2 4 4 133 150 143
248 2 2 4 4 134 136 135
249 2 2 4 4 134 152 136
250 2 2 4 4 143 152 134
251 2 2 4 4 136 151 135
252 2 2 4 4 135 141 138
253 2 2 4 4 135 151 141
254 2 2 4 4 136 146 144
255 2 2 4 4 144 151 136
256 2 2 4 4 145 146 136
257 2 2 4 4 136 152 145
258 2 2 4 4 137 144 140
259 2 2 4 4 140 147 137
260 2 2 4 4 141 149 138
261 2 2 4 4 139 145 142
262 2 2 4 4 142 148 139
263 2 2 4 4 139 146 145
264 2 2 4 4 144 146 140
265 2 2 5 5 2 21 173
266 2 2 5 5 41 2 173
267 2 2 5 5 24 4 172
268 2 2 5 5 4 49 172
269 2 2 5 5 37 6 171
270 2 2 5 5 6 44 171
271 2 2 5 5 8 40 174
272 2 2 5 5 52 8 174
273 2 2 5 5 21 22 162
274 2 2 5 5 21 162 173
275 2 2 5 5 22 23 153
276 2 2 5 5 22 153 162
277 2 2 5 5 23 24 157
278 2 2 5 5 153 23 157
279 2 2 5 5 157 24 172
280 2 2 5 5 38 37 166
281 2 2 5 5 166 37 171
282 2 2 5 5 39 38 154
283 2 2 5 5 154 38 166
284 2 2 5 5 40 39 163
285 2 2 5 5 39 154 163
286 2 2 5 5 40 163 174
287 2 2 5 5 42 41 164
288 2 2 5 5 164 41 173
289 2 2 5 5 43 42 155
290 2 2 5 5 155 42 164
291 2 2 5 5 44 43 161
292 2 2 5 5 43 155 161
293 2 2 5 5 44 161 171
294 2 2 5 5 49 50 165
295 2 2 5 5 49 165 172
296 2 2 5 5 50 51 156
297 2 2 5 5 50 156 165
298 2 2 5 5 51 52 167
299 2 2 5 5 156 51 167
300 2 2 5 5 167 52 174
301 2 2 5 5 153 157 158
302 2 2 5 5 153 158 159
303 2 2 5 5 153 159 162
304 2 2 5 5 163 154 170
305 2 2 5 5 154 166 170
306 2 2 5 5 161 155 168
307 2 2 5 5 155 164 175
308 2 2 5 5 168 155 175
309 2 2 5 5 165 156 176
310 2 2 5 5 156 167 169
311 2 2 5 5 156 169 176
312 2 2 5 5 158 157 165
313 2 2 5 5 165 157 172
314 2 2 5 5 159 158 160
315 2 2 5 5 160 158 176
316 2 2 5 5 158 165 176
317 2 2 5 5 159 160 175
318 2 2 5 5 162 159 164
319 2 2 5 5 164 159 175
320 2 2 5 5 168 160 170
321 2 2 5 5 160 168 175
322 2 2 5 5 160 169 170
323 2 2 5 5 169 160 176
324 2 2 5 5 166 161 168
325 2 2 5 5 161 166 171
326 2 2 5 5 162 164 173
327 2 2 5 5 167 163 169
328 2 2 5 5 163 167 174
329 2 2 5 5 169 163 170
330 2 2 5 5 166 168 170
331 2 2 6 6 1 197 13
332 2 2 6 6 45 197 1
333 2 2 6 6 16 196 3
334 2 2 6 6 3 196 53
335 2 2 6 6 29 195 5
336 2 2 6 6 5 195 48
337 2 2 6 6 7 198 32
338 2 2 6 6 56 198 7
339 2 2 6 6 13 186 14
340 2 2 6 6 13 197 186
341 2 2 6 6 14 177 15
342 2 2 6 6 14 186 177
343 2 2 6 6 15 181 16
344 2 2 6 6 177 181 15
345 2 2 6 6 181 196 16
346 2 2 6 6 30 190 29
347 2 2 6 6 190 195 29
348 2 2 6 6 31 178 30
349 2 2 6 6 178 190 30
350 2 2 6 6 32 187 31
351 2 2 6 6 31 187 178
352 2 2 6 6 32 198 187
353 2 2 6 6 46 188 45
354 2 2 6 6 188 197 45
355 2 2 6 6 47 179 46
356 2 2 6 6 179 188 46
357 2 2 6 6 48 185 47
358 2 2 6 6 47 185 179
359 2 2 6 6 48 195 185
360 2 2 6 6 53 189 54
361 2 2 6 6 53 196 189
362 2 2 6 6 54 180 55
363 2 2 6 6 54 189 180
364 2 2 6 6 55 191 56
365 2 2 6 6 180 191 55
366 2 2 6 6 191 198 56
367 2 2 6 6 177 182 181
368 2 2 6 6 177 183 182
369 2 2 6 6 177 186 183
370 2 2 6 6 187 194 178
371 2 2 6 6 178 194 190
372 2 2 6 6 185 192 179
373 2 2 6 6 179 199 188
374 2 2 6 6 192 199 179
375 2 2 6 6 189 200 180
376 2 2 6 6 180 193 191
377 2 2 6 6 180 200 193
378 2 2 6 6 182 189 181
379 2 2 6 6 189 196 181
380 2 2 6 6 183 184 182
381 2 2 6 6 184 200 182
382 2 2 6 6 182 200 189
383 2 2 6 6 183 199 184
384 2 2 6 6 186 188 183
385 2 2 6 6 188 199 183
386 2 2 6 6 192 194 184
387 2 2 6 6 184 199 192
388 2 2 6 6 184 194 193
389 2 2 6 6 193 200 184
390 2 2 6 6 190 192 185
391 2 2 6 6 185 195 190
392 2 2 6 6 186 197 188
393 2 2 6 6 191 193 187
394 2 2 6 6 187 198 191
395 2 2 6 6 193 194 187
396 2 2 6 6 190 194 192
397 4 2 10 1 73 216 210 221
398 4 2 10 1 201 205 210 221
399 4 2 10 1 201 210 207 221
400 4 2 10 1 72 210 217 221
401 4 2 10 1 205 217 210 221
402 4 2 10 1 210 216 207 221
403 4 2 10 1 73 207 216 221
404 4 2 10 1 205 201 210 217
405 4 2 10 1 207 210 201 216
406 4 2 10 1 207 213 201 221
407 4 2 10 1 205 201 213 221
408 4 2 10 1 207 201 212 216
409 4 2 10 1 206 212 201 216
410 4 2 10 1 208 201 215 217
411 4 2 10 1 205 215 201 217
412 4 2 10 1 208 210 201 217
413 4 2 10 1 206 201 210 216
414 4 2 10 1 207 221 73 228
415 4 2 10 1 72 217 205 221
416 4 2 10 1 72 64 210 221
417 4 2 10 1 206 210 62 216
418 4 2 10 1 206 216 62 230
419 4 2 10 1 202 211 97 220
420 4 2 10 1 63 210 208 217
421 4 2 10 1 62 210 206 222
422 4 2 10 1 62 222 206 230
423 4 2 10 1 63 217 208 231
424 4 2 10 1 73 216 207 228
425 4 2 10 1 204 211 96 218
426 4 2 10 1 208 210 63 222
427 4 2 10 1 63 208 222 231
428 4 2 10 1 72 221 205 229
429 4 2 10 1 211 213 202 218
430 4 2 10 1 204 213 211 218
431 4 2 10 1 103 209 211 219
432 4 2 10 1 66 57 114 222
433 4 2 10 1 61 109 57 222
434 4 2 10 1 114 57 106 222
435 4 2 10 1 57 109 106 222
436 4 2 10 1 66 222 114 231
437 4 2 10 1 61 109 222 230
438 4 2 10 1 205 217 72 229
439 4 2 10 1 201 202 211 213
440 4 2 10 1 208 214 209 215
441 4 2 10 1 208 201 214 215
442 4 2 10 1 201 211 204 213
443 4 2 10 1 93 209 103 219
444 4 2 10 1 202 213 145 218
445 4 2 10 1 73 80 210 216
446 4 2 10 1 127 214 208 222
447 4 2 10 1 120 209 214 223
448 4 2 10 1 209 214 201 215
449 4 2 10 1 104 211 203 220
450 4 2 10 1 202 212 207 213
451 4 2 10 1 103 209 87 211
452 4 2 10 1 62 61 222 230
453 4 2 10 1 96 211 204 219
454 4 2 10 1 207 212 201 213
455 4 2 10 1 134 213 207 221
456 4 2 10 1 169 204 215 219
457 4 2 10 1 182 207 212 216
458 4 2 10 1 135 205 213 221
459 4 2 10 1 63 222 66 231
460 4 2 10 1 193 212 202 220
461 4 2 10 1 128 206 214 222
462 4 2 10 1 206 183 212 216
463 4 2 10 1 62 61 57 222
464 4 2 10 1 182 207 200 212
465 4 2 10 1 208 215 159 217
466 4 2 10 1 104 97 211 220
467 4 2 10 1 134 152 207 213
468 4 2 10 1 204 213 205 215
469 4 2 10 1 63 57 66 222
470 4 2 10 1 175 159 208 215
471 4 2 10 1 206 212 203 214
472 4 2 10 1 183 199 206 212
473 4 2 10 1 151 135 205 213
474 4 2 10 1 62 216 80 230
475 4 2 10 1 63 79 217 231
476 4 2 10 1 205 213 201 215
477 4 2 10 1 127 208 214 227
478 4 2 10 1 202 201 211 212
479 4 2 10 1 201 212 206 214
480 4 2 10 1 208 175 215 227
481 4 2 10 1 158 215 205 217
482 4 2 10 1 202 201 212 213
483 4 2 10 1 200 212 207 224
484 4 2 10 1 93 87 103 209
485 4 2 10 1 152 207 213 224
486 4 2 10 1 104 86 203 211
487 4 2 10 1 69 217 79 231
488 4 2 10 1 151 213 205 226
489 4 2 10 1 199 206 212 225
490 4 2 10 1 202 212 211 220
491 4 2 10 1 68 80 216 230
492 4 2 10 1 144 213 204 218
493 4 2 10 1 158 176 205 215
494 4 2 10 1 73 80 64 210
495 4 2 10 1 201 204 211 215
496 4 2 10 1 203 220 192 235
497 4 2 10 1 135 213 134 221
498 4 2 10 1 204 201 213 215
499 4 2 10 1 182 212 183 216
500 4 2 10 1 201 203 212 214
501 4 2 10 1 176 205 215 226
502 4 2 10 1 128 214 206 225
503 4 2 10 1 72 210 79 217
504 4 2 10 1 193 202 212 224
505 4 2 10 1 201 210 208 214
506 4 2 10 1 203 212 192 220
507 4 2 10 1 145 213 202 224
508 4 2 10 1 211 215 204 219
509 4 2 10 1 168 215 209 219
510 4 2 10 1 134 221 207 228
511 4 2 10 1 70 73 221 228
512 4 2 10 1 121 203 214 225
513 4 2 10 1 169 215 204 226
514 4 2 10 1 211 212 203 220
515 4 2 10 1 209 219 93 233
516 4 2 10 1 134 133 221 228
517 4 2 10 1 168 219 209 233
518 4 2 10 1 201 206 210 214
519 4 2 10 1 158 159 215 217
520 4 2 10 1 205 221 135 229
521 4 2 10 1 93 87 209 233
522 4 2 10 1 94 97 202 218
523 4 2 10 1 208 217 159 231
524 4 2 10 1 183 216 206 230
525 4 2 10 1 145 139 202 218
526 4 2 10 1 87 223 209 233
527 4 2 10 1 138 135 221 229
528 4 2 10 1 162 159 217 231
529 4 2 10 1 183 186 216 230
530 4 2 10 1 169 163 204 219
531 4 2 10 1 92 104 203 220
532 4 2 10 1 188 206 225 230
533 4 2 10 1 68 62 80 230
534 4 2 10 1 203 211 201 212
535 4 2 10 1 87 211 209 223
536 4 2 10 1 59 67 181 216
537 4 2 10 1 187 193 202 220
538 4 2 10 1 65 60 157 217
539 4 2 10 1 141 226 205 229
540 4 2 10 1 209 215 211 219
541 4 2 10 1 87 90 223 233
542 4 2 10 1 79 210 63 217
543 4 2 10 1 63 69 79 231
544 4 2 10 1 120 214 209 227
545 4 2 10 1 209 215 168 227
546 4 2 10 1 80 62 210 216
547 4 2 10 1 128 110 206 222
548 4 2 10 1 201 211 209 215
549 4 2 10 1 169 204 163 234
550 4 2 10 1 115 203 121 235
551 4 2 10 1 144 204 213 226
552 4 2 10 1 192 212 203 225
553 4 2 10 1 67 181 216 228
554 4 2 10 1 98 96 211 218
555 4 2 10 1 85 223 115 235
556 4 2 10 1 65 217 157 229
557 4 2 10 1 139 145 202 232
558 4 2 10 1 187 202 193 232
559 4 2 10 1 111 127 208 222
560 4 2 10 1 193 212 200 224
561 4 2 10 1 111 214 127 222
562 4 2 10 1 208 214 210 222
563 4 2 10 1 152 213 145 224
564 4 2 10 1 207 224 143 228
565 4 2 10 1 96 103 211 219
566 4 2 10 1 162 217 69 231
567 4 2 10 1 130 133 58 221
568 4 2 10 1 94 202 97 232
569 4 2 10 1 204 219 163 234
570 4 2 10 1 63 210 62 222
571 4 2 10 1 119 225 206 230
572 4 2 10 1 177 59 181 216
573 4 2 10 1 127 214 120 227
574 4 2 10 1 153 157 60 217
575 4 2 10 1 115 223 203 235
576 4 2 10 1 175 168 215 227
577 4 2 10 1 210 214 206 222
578 4 2 10 1 72 64 79 210
579 4 2 10 1 57 63 62 222
580 4 2 10 1 187 220 202 232
581 4 2 10 1 188 225 119 230
582 4 2 10 1 70 221 133 228
583 4 2 10 1 104 86 92 203
584 4 2 10 1 165 205 226 229
585 4 2 10 1 165 226 141 229
586 4 2 10 1 169 176 215 226
587 4 2 10 1 122 121 203 214
588 4 2 10 1 186 68 216 230
589 4 2 10 1 203 201 211 214
590 4 2 10 1 189 224 207 228
591 4 2 10 1 121 214 128 225
592 4 2 10 1 85 81 105 223
593 4 2 10 1 203 212 206 225
594 4 2 10 1 202 218 139 232
595 4 2 10 1 183 182 184 212
596 4 2 10 1 146 145 213 218
597 4 2 10 1 134 135 136 213
598 4 2 10 1 164 227 208 231
599 4 2 10 1 86 203 211 223
600 4 2 10 1 206 214 203 225
601 4 2 10 1 120 116 209 223
602 4 2 10 1 89 163 219 234
603 4 2 10 1 205 213 204 226
604 4 2 10 1 209 211 201 214
605 4 2 10 1 203 122 214 223
606 4 2 10 1 207 212 202 224
607 4 2 10 1 144 213 151 226
608 4 2 10 1 202 213 207 224
609 4 2 10 1 199 212 192 225
610 4 2 10 1 204 215 205 226
611 4 2 10 1 116 209 223 233
612 4 2 10 1 189 143 224 228
613 4 2 10 1 104 97 88 211
614 4 2 10 1 117 227 164 231
615 4 2 10 1 86 92 203 235
616 4 2 10 1 91 220 187 232
617 4 2 10 1 94 218 202 232
618 4 2 10 1 162 153 69 217
619 4 2 10 1 92 220 203 235
620 4 2 10 1 158 159 160 215
621 4 2 10 1 120 214 122 223
622 4 2 10 1 140 218 204 234
623 4 2 10 1 58 133 70 221
624 4 2 10 1 117 208 227 231
625 4 2 10 1 120 209 116 233
626 4 2 10 1 199 188 206 225
627 4 2 10 1 151 205 141 226
628 4 2 10 1 115 122 203 223
629 4 2 10 1 177 186 68 216
630 4 2 10 1 182 207 216 228
631 4 2 10 1 85 105 115 223
632 4 2 10 1 158 217 205 229
633 4 2 10 1 69 153 60 217
634 4 2 10 1 169 215 170 219
635 4 2 10 1 121 115 122 203
636 4 2 10 1 127 117 208 227
637 4 2 10 1 164 175 208 227
638 4 2 10 1 144 204 140 218
639 4 2 10 1 179 108 188 225
640 4 2 10 1 188 183 206 230
641 4 2 10 1 141 205 135 229
642 4 2 10 1 159 164 208 231
643 4 2 10 1 140 204 144 234
644 4 2 10 1 131 141 156 226
645 4 2 10 1 193 194 212 220
646 4 2 10 1 180 189 132 224
647 4 2 10 1 68 59 177 216
648 4 2 10 1 95 204 96 218
649 4 2 10 1 86 85 92 235
650 4 2 10 1 73 67 216 228
651 4 2 10 1 190 192 220 235
652 4 2 10 1 209 214 208 227
653 4 2 10 1 184 182 200 212
654 4 2 10 1 208 215 209 227
655 4 2 10 1 98 96 88 211
656 4 2 10 1 94 97 91 232
657 4 2 10 1 119 128 206 225
658 4 2 10 1 111 112 127 214
659 4 2 10 1 183 184 199 212
660 4 2 10 1 151 136 135 213
661 4 2 10 1 176 165 205 226
662 4 2 10 1 134 136 152 213
663 4 2 10 1 200 207 189 224
664 4 2 10 1 152 143 207 224
665 4 2 10 1 134 207 143 228
666 4 2 10 1 111 127 117 208
667 4 2 10 1 175 159 164 208
668 4 2 10 1 141 151 135 205
669 4 2 10 1 183 199 188 206
670 4 2 10 1 175 160 159 215
671 4 2 10 1 72 74 64 221
672 4 2 10 1 98 88 97 211
673 4 2 10 1 72 71 221 229
674 4 2 10 1 111 208 117 231
675 4 2 10 1 155 117 107 227
676 4 2 10 1 182 216 181 228
677 4 2 10 1 158 157 217 229
678 4 2 10 1 145 224 202 232
679 4 2 10 1 202 224 193 232
680 4 2 10 1 203 225 121 235
681 4 2 10 1 168 166 219 233
682 4 2 10 1 93 90 87 233
683 4 2 10 1 169 226 204 234
684 4 2 10 1 95 96 204 234
685 4 2 10 1 65 72 217 229
686 4 2 10 1 95 204 218 234
687 4 2 10 1 111 112 214 222
688 4 2 10 1 114 66 10 57
689 4 2 10 1 71 138 221 229
690 4 2 10 1 109 11 61 57
691 4 2 10 1 10 106 114 57
692 4 2 10 1 94 139 218 232
693 4 2 10 1 106 11 109 57
694 4 2 10 1 165 158 176 205
695 4 2 10 1 119 128 110 206
696 4 2 10 1 200 182 189 207
697 4 2 10 1 134 152 143 207
698 4 2 10 1 158 160 176 215
699 4 2 10 1 206 222 110 230
700 4 2 10 1 192 225 203 235
701 4 2 10 1 193 184 200 212
702 4 2 10 1 204 226 144 234
703 4 2 10 1 203 214 211 223
704 4 2 10 1 211 214 209 223
705 4 2 10 1 152 136 145 213
706 4 2 10 1 111 222 208 231
707 4 2 10 1 116 223 90 233
708 4 2 10 1 119 206 110 230
709 4 2 10 1 165 158 205 229
710 4 2 10 1 182 189 207 228
711 4 2 10 1 188 108 119 225
712 4 2 10 1 165 156 141 226
713 4 2 10 1 120 227 209 233
714 4 2 10 1 168 209 227 233
715 4 2 10 1 144 146 213 218
716 4 2 10 1 127 112 120 214
717 4 2 10 1 169 176 160 215
718 4 2 10 1 189 143 132 224
719 4 2 10 1 160 175 168 215
720 4 2 10 1 121 112 128 214
721 4 2 10 1 109 110 222 230
722 4 2 10 1 154 93 84 219
723 4 2 10 1 117 155 164 227
724 4 2 10 1 155 117 42 107
725 4 2 10 1 111 114 222 231
726 4 2 10 1 96 103 88 211
727 4 2 10 1 92 178 83 220
728 4 2 10 1 144 136 151 213
729 4 2 10 1 129 82 94 218
730 4 2 10 1 199 184 192 212
731 4 2 10 1 168 170 215 219
732 4 2 10 1 180 189 54 132
733 4 2 10 1 159 162 164 231
734 4 2 10 1 188 186 183 230
735 4 2 10 1 141 135 138 229
736 4 2 10 1 113 161 155 227
737 4 2 10 1 131 141 50 156
738 4 2 10 1 46 188 179 108
739 4 2 10 1 59 73 67 216
740 4 2 10 1 130 18 138 58
741 4 2 10 1 155 107 113 227
742 4 2 10 1 194 192 212 220
743 4 2 10 1 133 134 143 228
744 4 2 10 1 145 146 139 218
745 4 2 10 1 155 161 113 43
746 4 2 10 1 69 22 60 153
747 4 2 10 1 132 142 191 224
748 4 2 10 1 116 81 90 223
749 4 2 10 1 22 69 162 153
750 4 2 10 1 74 70 73 221
751 4 2 10 1 43 113 155 107
752 4 2 10 1 190 220 92 235
753 4 2 10 1 95 89 96 234
754 4 2 10 1 116 105 81 223
755 4 2 10 1 94 98 97 218
756 4 2 10 1 137 131 167 226
757 4 2 10 1 179 185 118 225
758 4 2 10 1 164 117 42 155
759 4 2 10 1 180 132 191 224
760 4 2 10 1 59 15 181 67
761 4 2 10 1 23 65 60 157
762 4 2 10 1 134 133 130 221
763 4 2 10 1 181 177 15 59
764 4 2 10 1 157 60 23 153
765 4 2 10 1 186 14 177 68
766 4 2 10 1 131 156 167 226
767 4 2 10 1 118 108 179 225
768 4 2 10 1 59 177 14 68
769 4 2 10 1 182 177 181 216
770 4 2 10 1 169 170 163 219
771 4 2 10 1 130 138 135 221
772 4 2 10 1 153 158 157 217
773 4 2 10 1 65 72 60 217
774 4 2 10 1 166 93 219 233
775 4 2 10 1 162 159 153 217
776 4 2 10 1 177 183 186 216
777 4 2 10 1 86 211 87 223
778 4 2 10 1 191 132 55 142
779 4 2 10 1 129 94 139 218
780 4 2 10 1 91 97 83 220
781 4 2 10 1 113 161 227 233
782 4 2 10 1 132 191 55 180
783 4 2 10 1 84 96 89 219
784 4 2 10 1 168 227 161 233
785 4 2 10 1 113 227 120 233
786 4 2 10 1 188 46 119 108
787 4 2 10 1 165 50 141 156
788 4 2 10 1 187 194 193 220
789 4 2 10 1 143 54 189 132
790 4 2 10 1 104 88 86 211
791 4 2 10 1 156 51 131 167
792 4 2 10 1 108 179 47 118
793 4 2 10 1 179 185 47 118
794 4 2 10 1 137 131 51 167
795 4 2 10 1 109 110 106 222
796 4 2 10 1 111 114 106 222
797 4 2 10 1 38 84 154 93
798 4 2 10 1 137 226 167 234
799 4 2 10 1 185 118 225 235
800 4 2 10 1 137 144 226 234
801 4 2 10 1 185 225 192 235
802 4 2 10 1 83 92 30 178
803 4 2 10 1 142 191 224 232
804 4 2 10 1 191 193 224 232
805 4 2 10 1 142 224 145 232
806 4 2 10 1 120 122 116 223
807 4 2 10 1 129 140 82 218
808 4 2 10 1 103 87 88 211
809 4 2 10 1 169 167 226 234
810 4 2 10 1 86 88 87 211
811 4 2 10 1 118 121 225 235
812 4 2 10 1 89 84 154 39
813 4 2 10 1 31 91 83 178
814 4 2 10 1 80 62 64 210
815 4 2 10 1 79 64 63 210
816 4 2 10 1 58 130 19 133
817 4 2 10 1 166 93 154 219
818 4 2 10 1 95 218 140 234
819 4 2 10 1 190 178 92 220
820 4 2 10 1 199 179 188 225
821 4 2 10 1 85 27 105 81
822 4 2 10 1 151 141 131 226
823 4 2 10 1 168 170 160 215
824 4 2 10 1 120 112 122 214
825 4 2 10 1 85 86 81 223
826 4 2 10 1 79 69 60 217
827 4 2 10 1 26 116 105 81
828 4 2 10 1 70 58 19 133
829 4 2 10 1 136 144 146 213
830 4 2 10 1 193 194 184 212
831 4 2 10 1 119 108 128 225
832 4 2 10 1 146 145 136 213
833 4 2 10 1 71 138 18 58
834 4 2 10 1 81 26 116 90
835 4 2 10 1 184 194 192 212
836 4 2 10 1 154 163 89 39
837 4 2 10 1 91 31 187 178
838 4 2 10 1 169 160 170 215
839 4 2 10 1 176 156 165 226
840 4 2 10 1 122 112 121 214
841 4 2 10 1 35 82 94 129
842 4 2 10 1 152 132 143 224
843 4 2 10 1 180 200 189 224
844 4 2 10 1 68 80 59 216
845 4 2 10 1 115 27 105 85
846 4 2 10 1 127 107 117 227
847 4 2 10 1 164 155 175 227
848 4 2 10 1 87 90 81 223
849 4 2 10 1 64 62 63 210
850 4 2 10 1 115 105 122 223
851 4 2 10 1 84 93 103 219
852 4 2 10 1 148 139 99 232
853 4 2 10 1 196 150 143 228
854 4 2 10 1 72 71 74 221
855 4 2 10 1 166 38 154 93
856 4 2 10 1 66 69 63 231
857 4 2 10 1 111 117 114 231
858 4 2 10 1 34 82 129 140
859 4 2 10 1 116 122 105 223
860 4 2 10 1 94 139 35 129
861 4 2 10 1 126 197 188 230
862 4 2 10 1 149 172 141 229
863 4 2 10 1 125 117 173 231
864 4 2 10 1 92 83 104 220
865 4 2 10 1 92 190 30 178
866 4 2 10 1 146 144 140 218
867 4 2 10 1 109 119 110 230
868 4 2 10 1 62 68 61 230
869 4 2 10 1 135 134 130 221
870 4 2 10 1 182 181 189 228
871 4 2 10 1 165 157 158 229
872 4 2 10 1 111 110 112 222
873 4 2 10 1 95 96 98 218
874 4 2 10 1 139 94 99 232
875 4 2 10 1 95 82 140 218
876 4 2 10 1 70 67 73 228
877 4 2 10 1 173 117 164 231
878 4 2 10 1 143 189 196 228
879 4 2 10 1 182 183 177 216
880 4 2 10 1 159 158 153 217
881 4 2 10 1 126 188 119 230
882 4 2 10 1 165 141 172 229
883 4 2 10 1 91 198 99 232
884 4 2 10 1 168 155 161 227
885 4 2 10 1 113 107 120 227
886 4 2 10 1 187 198 91 232
887 4 2 10 1 190 192 194 220
888 4 2 10 1 174 89 100 234
889 4 2 10 1 174 163 89 234
890 4 2 10 1 69 78 162 231
891 4 2 10 1 187 193 191 232
892 4 2 10 1 139 142 145 232
893 4 2 10 1 133 150 75 228
894 4 2 10 1 75 70 133 228
895 4 2 10 1 85 124 101 235
896 4 2 10 1 149 138 76 229
897 4 2 10 1 142 132 145 224
898 4 2 10 1 180 191 193 224
899 4 2 10 1 197 77 186 230
900 4 2 10 1 173 162 78 231
901 4 2 10 1 156 169 167 226
902 4 2 10 1 85 115 124 235
903 4 2 10 1 118 121 108 225
904 4 2 10 1 77 68 186 230
905 4 2 10 1 131 137 144 226
906 4 2 10 1 185 179 192 225
907 4 2 10 1 90 102 123 233
908 4 2 10 1 170 168 166 219
909 4 2 10 1 53 196 150 143
910 4 2 10 1 73 59 80 216
911 4 2 10 1 139 99 36 148
912 4 2 10 1 169 163 167 234
913 4 2 10 1 118 115 121 235
914 4 2 10 1 83 97 104 220
915 4 2 10 1 41 173 125 117
916 4 2 10 1 58 70 74 221
917 4 2 10 1 74 71 58 221
918 4 2 10 1 84 103 96 219
919 4 2 10 1 60 72 79 217
920 4 2 10 1 197 45 126 188
921 4 2 10 1 141 49 172 149
922 4 2 10 1 41 173 117 164
923 4 2 10 1 181 67 196 228
924 4 2 10 1 172 65 157 229
925 4 2 10 1 99 139 36 94
926 4 2 10 1 61 126 109 230
927 4 2 10 1 143 53 196 189
928 4 2 10 1 181 16 196 67
929 4 2 10 1 157 24 65 172
930 4 2 10 1 66 114 125 231
931 4 2 10 1 71 72 65 229
932 4 2 10 1 137 140 144 234
933 4 2 10 1 192 190 185 235
934 4 2 10 1 61 126 12 109
935 4 2 10 1 125 66 9 114
936 4 2 10 1 166 168 161 233
937 4 2 10 1 120 116 113 233
938 4 2 10 1 195 190 101 235
939 4 2 10 1 113 44 161 233
940 4 2 10 1 196 67 75 228
941 4 2 10 1 65 172 76 229
942 4 2 10 1 119 126 45 188
943 4 2 10 1 165 141 49 172
944 4 2 10 1 126 61 77 230
945 4 2 10 1 16 75 196 67
946 4 2 10 1 172 24 65 76
947 4 2 10 1 78 66 125 231
948 4 2 10 1 166 171 102 233
949 4 2 10 1 77 126 12 61
950 4 2 10 1 66 125 9 78
951 4 2 10 1 137 167 52 234
952 4 2 10 1 191 142 56 232
953 4 2 10 1 101 190 92 235
954 4 2 10 1 48 118 185 235
955 4 2 10 1 100 95 147 234
956 4 2 10 1 93 166 102 233
957 4 2 10 1 82 34 95 140
958 4 2 10 1 146 140 129 218
959 4 2 10 1 17 76 149 138
960 4 2 10 1 95 98 82 218
961 4 2 10 1 123 90 25 102
962 4 2 10 1 161 44 171 233
963 4 2 10 1 123 44 113 233
964 4 2 10 1 90 123 116 233
965 4 2 10 1 129 139 146 218
966 4 2 10 1 69 78 21 162
967 4 2 10 1 138 71 76 229
968 4 2 10 1 82 98 94 218
969 4 2 10 1 78 173 21 162
970 4 2 10 1 170 154 163 219
971 4 2 10 1 190 194 178 220
972 4 2 10 1 99 94 91 232
973 4 2 10 1 52 167 174 234
974 4 2 10 1 32 91 187 198
975 4 2 10 1 163 40 174 89
976 4 2 10 1 133 20 70 75
977 4 2 10 1 48 124 118 235
978 4 2 10 1 100 174 40 89
979 4 2 10 1 198 32 91 99
980 4 2 10 1 20 133 150 75
981 4 2 10 1 154 170 166 219
982 4 2 10 1 115 85 124 28
983 4 2 10 1 85 101 124 28
984 4 2 10 1 137 52 147 234
985 4 2 10 1 48 185 195 235
986 4 2 10 1 191 56 198 232
987 4 2 10 1 142 148 56 232
988 4 2 10 1 68 186 13 77
989 4 2 10 1 197 13 186 77
990 4 2 10 1 101 92 85 235
991 4 2 10 1 178 194 187 220
992 4 2 10 1 86 87 81 223
993 4 2 10 1 171 44 123 233
994 4 2 10 1 199 192 179 225
995 4 2 10 1 131 144 151 226
996 4 2 10 1 37 102 166 171
997 4 2 10 1 155 168 175 227
998 4 2 10 1 107 127 120 227
999 4 2 10 1 90 93 102 233
1000 4 2 10 1 152 145 132 224
1001 4 2 10 1 180 193 200 224
1002 4 2 10 1 95 147 33 100
1003 4 2 10 1 128 108 121 225
1004 4 2 10 1 156 176 169 226
1005 4 2 10 1 101 195 29 190
1006 4 2 10 1 166 93 102 37
1007 4 2 10 1 186 188 197 230
1008 4 2 10 1 149 141 138 229
1009 4 2 10 1 173 164 162 231
1010 4 2 10 1 52 174 147 234
1011 4 2 10 1 48 195 124 235
1012 4 2 10 1 56 148 198 232
1013 4 2 10 1 95 140 147 234
1014 4 2 10 1 150 133 143 228
1015 4 2 10 1 92 101 29 190
1016 4 2 10 1 106 10 11 57
1017 4 2 10 1 90 25 116 123
1018 4 2 10 1 17 76 138 71
1019 4 2 10 1 100 89 95 234
1020 4 2 10 1 161 113 43 44
1021 4 2 10 1 53 143 54 189
1022 4 2 10 1 117 42 41 164
1023 4 2 10 1 94 139 36 35
1024 4 2 10 1 23 24 65 157
1025 4 2 10 1 181 15 16 67
1026 4 2 10 1 110 111 106 222
1027 4 2 10 1 10 9 66 114
1028 4 2 10 1 61 12 11 109
1029 4 2 10 1 141 50 165 49
1030 4 2 10 1 46 119 45 188
1031 4 2 10 1 196 75 150 228
1032 4 2 10 1 172 149 76 229
1033 4 2 10 1 126 77 197 230
1034 4 2 10 1 173 78 125 231
1035 4 2 10 1 22 23 60 153
1036 4 2 10 1 185 47 118 48
1037 4 2 10 1 52 137 51 167
1038 4 2 10 1 69 21 22 162
1039 4 2 10 1 89 163 40 39
1040 4 2 10 1 31 91 187 32
1041 4 2 10 1 177 14 15 59
1042 4 2 10 1 70 19 20 133
1043 4 2 10 1 174 100 147 234
1044 4 2 10 1 124 195 101 235
1045 4 2 10 1 85 115 27 28
1046 4 2 10 1 13 14 186 68
1047 4 2 10 1 198 148 99 232
1048 4 2 10 1 102 171 123 233
1049 4 2 10 1 147 140 95 33
1050 4 2 10 1 142 55 191 56
1051 4 2 10 1 43 155 42 107
1052 4 2 10 1 51 131 50 156
1053 4 2 10 1 46 179 47 108
1054 4 2 10 1 55 180 54 132
1055 4 2 10 1 1 197 126 77
1056 4 2 10 1 5 101 124 195
1057 4 2 10 1 75 150 3 196
1058 4 2 10 1 78 2 173 125
1059 4 2 10 1 76 172 4 149
1060 4 2 10 1 99 198 7 148
1061 4 2 10 1 6 123 102 171
1062 4 2 10 1 100 147 8 174
1063 4 2 10 1 69 66 78 231
1064 4 2 10 1 114 117 125 231
1065 4 2 10 1 93 166 38 37
1066 4 2 10 1 75 67 70 228
1067 4 2 10 1 29 92 190 30
1068 4 2 10 1 77 61 68 230
1069 4 2 10 1 109 126 119 230
1070 4 2 10 1 26 25 116 90
1071 4 2 10 1 196 189 181 228
1072 4 2 10 1 172 157 165 229
1073 4 2 10 1 142 139 148 232
1074 4 2 10 1 191 198 187 232
1075 4 2 10 1 138 18 17 71
1076 4 2 10 1 130 19 18 58
1077 4 2 10 1 26 105 27 81
1078 4 2 10 1 174 167 163 234
1079 4 2 10 1 118 124 115 235
1080 4 2 10 1 78 9 2 125
1081 4 2 10 1 174 147 8 52
1082 4 2 10 1 198 56 7 148
1083 4 2 10 1 3 16 75 196
1084 4 2 10 1 48 5 124 195
1085 4 2 10 1 126 12 1 77
1086 4 2 10 1 172 4 24 76
1087 4 2 10 1 171 6 123 44
1088 4 2 10 1 76 71 65 229
1089 4 2 10 1 39 84 154 38
1090 4 2 10 1 76 4 17 149
1091 4 2 10 1 30 31 83 178
1092 4 2 10 1 140 137 147 234
1093 4 2 10 1 185 190 195 235
1094 4 2 10 1 123 25 6 102
1095 4 2 10 1 33 147 8 100
1096 4 2 10 1 166 161 171 233
1097 4 2 10 1 116 123 113 233
1098 4 2 10 1 21 2 173 78
1099 4 2 10 1 37 6 102 171
1100 4 2 10 1 2 41 173 125
1101 4 2 10 1 150 3 20 75
1102 4 2 10 1 36 99 7 148
1103 4 2 10 1 124 101 5 28
1104 4 2 10 1 198 7 32 99
1105 4 2 10 1 174 8 100 40
1106 4 2 10 1 172 49 4 149
1107 4 2 10 1 196 150 3 53
1108 4 2 10 1 1 197 45 126
1109 4 2 10 1 1 13 197 77
1110 4 2 10 1 195 5 101 29
1111 4 2 10 1 34 95 140 33
1112 4 2 10 1 129 35 82 34
1113 4 2 10 1 221 64 73 74
1114 4 2 10 1 221 73 64 210
1115 4 2 10 1 232 97 220 202
1116 4 2 10 1 232 220 97 91
1117 4 2 10 1 234 96 219 89
1118 4 2 10 1 234 219 96 204
1119 4 2 10 1 218 97 211 98
1120 4 2 10 1 218 211 97 202
1121 4 2 10 1 235 86 223 203
1122 4 2 10 1 235 223 86 85
1123 4 2 10 1 222 128 112 214
1124 4 2 10 1 222 112 128 110
1125 4 2 10 1 178 91 220 187
1126 4 2 10 1 178 220 91 83
1127 4 2 10 1 89 154 219 163
1128 4 2 10 1 89 219 154 84
1129 4 2 10 1 58 138 221 71
1130 4 2 10 1 58 221 138 130
$EndElements
$ElementData
1
"e1"
1
0.0
3
0
3
734
397 1.0 0.0 0.0
398 1.0 0.0 0.0
399 1.0 0.0 0.0
400 1.0 0.0 0.0
401 1.0 0.0 0.0
402 1.0 0.0 0.0
403 1.0 0.0 0.0
404 1.0 0.0 0.0
405 1.0 0.0 0.0
406 1.0 0.0 0.0
407 1.0 0.0 0.0
408 1.0 0.0 0.0
409 1.0 0.0 0.0
410 1.0 0.0 0.0
411 1.0 0.0 0.0
412 1.0 0.0 0.0
413 1.0 0.0 0.0
414 1.0 0.0 0.0
415 1.0 0.0 0.0
416 1.0 0.0 0.0
417 1.0 0.0 0.0
418 1.0 0.0 0.0
419 1.0 0.0 0.0
420 1.0 0.0 0.0
421 1.0 0.0 0.0
422 1.0 0.0 0.0
423 1.0 0.0 0.0
424 1.0 0.0 0.0
425 1.0 0.0 0.0
426 1.0 0.0 0.0
427 1.0 0.0 0.0
428 1.0 0.0 0.0
429 1.0 0.0 0.0
430 1.0 0.0 0.0
431 1.0 0.0 0.0
432 1.0 0.0 0.0
433 1.0 0.0 0.0
434 1.0 0.0 0.0
435 1.0 0.0 0.0
436 1.0 0.0 0.0
437 1.0 0.0 0.0
438 1.0 0.0 0.0
439 1.0 0.0 0.0
440 1.0 0.0 0.0
441 1.0 0.0 0.0
442 1.0 0.0 0.0
443 1.0 0.0 0.0
444 1.0 0.0 0.0
445 1.0 0.0 0.0
446 1.0 0.0 0.0
447 1.0 0.0 0.0
448 1.0 0.0 0.0
449 1.0 0.0 0.0
450 1.0 0.0 0.0
451 1.0 0.0 0.0
452 1.0 0.0 0.0
453 1.0 0.0 0.0
454 1.0 0.0 0.0
455 1.0 0.0 0.0
456 1.0 0.0 0.0
457 1.0 0.0 0.0
458 1.0 0.0 0.0
459 1.0 0.0 0.0
460 1.0 0.0 0.0
461 1.0 0.0 0.0
462 1.0 0.0 0.0
463 1.0 0.0 0.0
464 1.0 0.0 0.0
465 1.0 0.0 0.0
466 1.0 0.0 0.0
467 1.0 0.0 0.0
468 1.0 0.0 0.0
469 1.0 0.0 0.0
470 1.0 0.0 0.0
471 1.0 0.0 0.0
472 1.0 0.0 0.0
473 1.0 0.0 0.0
474 1.0 0.0 0.0
475 1.0 0.0 0.0
476 1.0 0.0 0.0
477 1.0 0.0 0.0
478 1.0 0.0 0.0
479 1.0 0.0 0.0
480 1.0 0.0 0.0
481 1.0 0.0 0.0
482 1.0 0.0 0.0
483 1.0 0.0 0.0
484 1.0 0.0 0.0
485 1.0 0.0 0.0
486 1.0 0.0 0.0
487 1.0 0.0 0.0
488 1.0 0.0 0.0
489 1.0 0.0 0.0
490 1.0 0.0 0.0
491 1.0 0.0 0.0
492 1.0 0.0 0.0
493 1.0 0.0 0.0
494 1.0 0.0 0.0
495 1.0 0.0 0.0
496 1.0 0.0 0.0
497 1.0 0.0 0.0
498 1.0 0.0 0.0
499 1.0 0.0 0.0
500 1.0 0.0 0.0
501 1.0 0.0 0.0
502 1.0 0.0 0.0
503 1.0 0.0 0.0
504 1.0 0.0 0.0
505 1.0 0.0 0.0
506 1.0 0.0 0.0
507 1.0 0.0 0.0
508 1.0 0.0 0.0
509 1.0 0.0 0.0
510 1.0 0.0 0.0
511 1.0 0.0 0.0
512 1.0 0.0 0.0
513 1.0 0.0 0.0
514 1.0 0.0 0.0
515 1.0 0.0 0.0
516 1.0 0.0 0.0
517 1.0 0.0 0.0
518 1.0 0.0 0.0
519 1.0 0.0 0.0
520 1.0 0.0 0.0
521 1.0 0.0 0.0
522 1.0 0.0 0.0
523 1.0 0.0 0.0
524 1.0 0.0 0.0
525 1.0 0.0 0.0
526 1.0 0.0 0.0
527 1.0 0.0 0.0
528 1.0 0.0 0.0
529 1.0 0.0 0.0
530 1.0 0.0 0.0
531 1.0 0.0 0.0
532 1.0 0.0 0.0
533 1.0 0.0 0.0
534 1.0 0.0 0.0
535 1.0 0.0 0.0
536 1.0 0.0 0.0
537 1.0 0.0 0.0
538 1.0 0.0 0.0
539 1.0 0.0 0.0
540 1.0 0.0 0.0
541 1.0 0.0 0.0
542 1.0 0.0 0.0
543 1.0 0.0 0.0
544 1.0 0.0 0.0
545 1.0 0.0 0.0
546 1.0 0.0 0.0
547 1.0 0.0 0.0
548 1.0 0.0 0.0
549 1.0 0.0 0.0
550 1.0 0.0 0.0
551 1.0 0.0 0.0
552 1.0 0.0 0.0
553 1.0 0.0 0.0
554 1.0 0.0 0.0
555 1.0 0.0 0.0
556 1.0 0.0 0.0
557 1.0 0.0 0.0
558 1.0 0.0 0.0
559 1.0 0.0 0.0
560 1.0 0.0 0.0
561 1.0 0.0 0.0
562 1.0 0.0 0.0
563 1.0 0.0 0.0
564 1.0 0.0 0.0
565 1.0 0.0 0.0
566 1.0 0.0 0.0
567 1.0 0.0 0.0
568 1.0 0.0 0.0
569 1.0 0.0 0.0
570 1.0 0.0 0.0
571 1.0 0.0 0.0
572 1.0 0.0 0.0
573 1.0 0.0 0.0
574 1.0 0.0 0.0
575 1.0 0.0 0.0
576 1.0 0.0 0.0
577 1.0 0.0 0.0
578 1.0 0.0 0.0
579 1.0 0.0 0.0
580 1.0 0.0 0.0
581 1.0 0.0 0.0
582 1.0 0.0 0.0
583 1.0 0.0 0.0
584 1.0 0.0 0.0
585 1.0 0.0 0.0
586 1.0 0.0 0.0
587 1.0 0.0 0.0
588 1.0 0.0 0.0
589 1.0 0.0 0.0
590 1.0 0.0 0.0
591 1.0 0.0 0.0
592 1.0 0.0 0.0
593 1.0 0.0 0.0
594 1.0 0.0 0.0
595 1.0 0.0 0.0
596 1.0 0.0 0.0
597 1.0 0.0 0.0
598 1.0 0.0 0.0
599 1.0 0.0 0.0
600 1.0 0.0 0.0
601 1.0 0.0 0.0
602 1.0 0.0 0.0
603 1.0 0.0 0.0
604 1.0 0.0 0.0
605 1.0 0.0 0.0
606 1.0 0.0 0.0
607 1.0 0.0 0.0
608 1.0 0.0 0.0
609 1.0 0.0 0.0
610 1.0 0.0 0.0
611 1.0 0.0 0.0
612 1.0 0.0 0.0
613 1.0 0.0 0.0
614 1.0 0.0 0.0
615 1.0 0.0 0.0
616 1.0 0.0 0.0
617 1.0 0.0 0.0
618 1.0 0.0 0.0
619 1.0 0.0 0.0
620 1.0 0.0 0.0
621 1.0 0.0 0.0
622 1.0 0.0 0.0
623 1.0 0.0 0.0
624 1.0 0.0 0.0
625 1.0 0.0 0.0
626 1.0 0.0 0.0
627 1.0 0.0 0.0
628 1.0 0.0 0.0
629 1.0 0.0 0.0
630 1.0 0.0 0.0
631 1.0 0.0 0.0
632 1.0 0.0 0.0
633 1.0 0.0 0.0
634 1.0 0.0 0.0
635 1.0 0.0 0.0
636 1.0 0.0 0.0
637 1.0 0.0 0.0
638 1.0 0.0 0.0
639 1.0 0.0 0.0
640 1.0 0.0 0.0
641 1.0 0.0 0.0
642 1.0 0.0 0.0
643 1.0 0.0 0.0
644 1.0 0.0 0.0
645 1.0 0.0 0.0
646 1.0 0.0 0.0
647 1.0 0.0 0.0
648 1.0 0.0 0.0
649 1.0 0.0 0.0
650 1.0 0.0 0.0
651 1.0 0.0 0.0
652 1.0 0.0 0.0
653 1.0 0.0 0.0
654 1.0 0.0 0.0
655 1.0 0.0 0.0
656 1.0 0.0 0.0
657 1.0 0.0 0.0
658 1.0 0.0 0.0
659 1.0 0.0 0.0
660 1.0 0.0 0.0
661 1.0 0.0 0.0
662 1.0 0.0 0.0
663 1.0 0.0 0.0
664 1.0 0.0 0.0
665 1.0 0.0 0.0
666 1.0 0.0 0.0
667 1.0 0.0 0.0
668 1.0 0.0 0.0
669 1.0 0.0 0.0
670 1.0 0.0 0.0
671 1.0 0.0 0.0
672 1.0 0.0 0.0
673 1.0 0.0 0.0
674 1.0 0.0 0.0
675 1.0 0.0 0.0
676 1.0 0.0 0.0
677 1.0 0.0 0.0
678 1.0 0.0 0.0
679 1.0 0.0 0.0
680 1.0 0.0 0.0
681 1.0 0.0 0.0
682 1.0 0.0 0.0
683 1.0 0.0 0.0
684 1.0 0.0 0.0
685 1.0 0.0 0.0
686 1.0 0.0 0.0
687 1.0 0.0 0.0
688 1.0 0.0 0.0
689 1.0 0.0 0.0
690 1.0 0.0 0.0
691 1.0 0.0 0.0
692 1.0 0.0 0.0
693 1.0 0.0 0.0
694 1.0 0.0 0.0
695 1.0 0.0 0.0
696 1.0 0.0 0.0
697 1.0 0.0 0.0
698 1.0 0.0 0.0
699 1.0 0.0 0.0
700 1.0 0.0 0.0
701 1.0 0.0 0.0
702 1.0 0.0 0.0
703 1.0 0.0 0.0
704 1.0 0.0 0.0
705 1.0 0.0 0.0
706 1.0 0.0 0.0
707 1.0 0.0 0.0
708 1.0 0.0 0.0
709 1.0 0.0 0.0
710 1.0 0.0 0.0
711 1.0 0.0 0.0
712 1.0 0.0 0.0
713 1.0 0.0 0.0
714 1.0 0.0 0.0
715 1.0 0.0 0.0
716 1.0 0.0 0.0
717 1.0 0.0 0.0
718 1.0 0.0 0.0
719 1.0 0.0 0.0
720 1.0 0.0 0.0
721 1.0 0.0 0.0
722 1.0 0.0 0.0
723 1.0 0.0 0.0
724 1.0 0.0 0.0
725 1.0 0.0 0.0
726 1.0 0.0 0.0
727 1.0 0.0 0.0
728 1.0 0.0 0.0
729 1.0 0.0 0.0
730 1.0 0.0 0.0
731 1.0 0.0 0.0
732 1.0 0.0 0.0
733 1.0 0.0 0.0
734 1.0 0.0 0.0
735 1.0 0.0 0.0
736 1.0 0.0 0.0
737 1.0 0.0 0.0
738 1.0 0.0 0.0
739 1.0 0.0 0.0
740 1.0 0.0 0.0
741 1.0 0.0 0.0
742 1.0 0.0 0.0
743 1.0 0.0 0.0
744 1.0 0.0 0.0
745 1.0 0.0 0.0
746 1.0 0.0 0.0
747 1.0 0.0 0.0
748 1.0 0.0 0.0
749 1.0 0.0 0.0
750 1.0 0.0 0.0
751 1.0 0.0 0.0
752 1.0 0.0 0.0
753 1.0 0.0 0.0
754 1.0 0.0 0.0
755 1.0 0.0 0.0
756 1.0 0.0 0.0
757 1.0 0.0 0.0
758 1.0 0.0 0.0
759 1.0 0.0 0.0
760 1.0 0.0 0.0
761 1.0 0.0 0.0
762 1.0 0.0 0.0
763 1.0 0.0 0.0
764 1.0 0.0 0.0
765 1.0 0.0 0.0
766 1.0 0.0 0.0
767 1.0 0.0 0.0
768 1.0 0.0 0.0
769 1.0 0.0 0.0
770 1.0 0.0 0.0
771 1.0 0.0 0.0
772 1.0 0.0 0.0
773 1.0 0.0 0.0
774 1.0 0.0 0.0
775 1.0 0.0 0.0
776 1.0 0.0 0.0
777 1.0 0.0 0.0
778 1.0 0.0 0.0
779 1.0 0.0 0.0
780 1.0 0.0 0.0
781 1.0 0.0 0.0
782 1.0 0.0 0.0
783 1.0 0.0 0.0
784 1.0 0.0 0.0
785 1.0 0.0 0.0
786 1.0 0.0 0.0
787 1.0 0.0 0.0
788 1.0 0.0 0.0
789 1.0 0.0 0.0
790 1.0 0.0 0.0
791 1.0 0.0 0.0
792 1.0 0.0 0.0
793 1.0 0.0 0.0
794 1.0 0.0 0.0
795 1.0 0.0 0.0
796 1.0 0.0 0.0
797 1.0 0.0 0.0
798 1.0 0.0 0.0
799 1.0 0.0 0.0
800 1.0 0.0 0.0
801 1.0 0.0 0.0
802 1.0 0.0 0.0
803 1.0 0.0 0.0
804 1.0 0.0 0.0
805 1.0 0.0 0.0
806 1.0 0.0 0.0
807 1.0 0.0 0.0
808 1.0 0.0 0.0
809 1.0 0.0 0.0
810 1.0 0.0 0.0
811 1.0 0.0 0.0
812 1.0 0.0 0.0
813 1.0 0.0 0.0
814 1.0 0.0 0.0
815 1.0 0.0 0.0
816 1.0 0.0 0.0
817 1.0 0.0 0.0
818 1.0 0.0 0.0
819 1.0 0.0 0.0
820 1.0 0.0 0.0
821 1.0 0.0 0.0
822 1.0 0.0 0.0
823 1.0 0.0 0.0
824 1.0 0.0 0.0
825 1.0 0.0 0.0
826 1.0 0.0 0.0
827 1.0 0.0 0.0
828 1.0 0.0 0.0
829 1.0 0.0 0.0
830 1.0 0.0 0.0
831 1.0 0.0 0.0
832 1.0 0.0 0.0
833 1.0 0.0 0.0
834 1.0 0.0 0.0
835 1.0 0.0 0.0
836 1.0 0.0 0.0
837 1.0 0.0 0.0
838 1.0 0.0 0.0
839 1.0 0.0 0.0
840 1.0 0.0 0.0
841 1.0 0.0 0.0
842 1.0 0.0 0.0
843 1.0 0.0 0.0
844 1.0 0.0 0.0
845 1.0 0.0 0.0
846 1.0 0.0 0.0
847 1.0 0.0 0.0
848 1.0 0.0 0.0
849 1.0 0.0 0.0
850 1.0 0.0 0.0
851 1.0 0.0 0.0
852 1.0 0.0 0.0
853 1.0 0.0 0.0
854 1.0 0.0 0.0
855 1.0 0.0 0.0
856 1.0 0.0 0.0
857 1.0 0.0 0.0
858 1.0 0.0 0.0
859 1.0 0.0 0.0
860 1.0 0.0 0.0
861 1.0 0.0 0.0
862 1.0 0.0 0.0
863 1.0 0.0 0.0
864 1.0 0.0 0.0
865 1.0 0.0 0.0
866 1.0 0.0 0.0
867 1.0 0.0 0.0
868 1.0 0.0 0.0
869 1.0 0.0 0.0
870 1.0 0.0 0.0
871 1.0 0.0 0.0
872 1.0 0.0 0.0
873 1.0 0.0 0.0
874 1.0 0.0 0.0
875 1.0 0.0 0.0
876 1.0 0.0 0.0
877 1.0 0.0 0.0
878 1.0 0.0 0.0
879 1.0 0.0 0.0
880 1.0 0.0 0.0
881 1.0 0.0 0.0
882 1.0 0.0 0.0
883 1.0 0.0 0.0
884 1.0 0.0 0.0
885 1.0 0.0 0.0
886 1.0 0.0 0.0
887 1.0 0.0 0.0
888 1.0 0.0 0.0
889 1.0 0.0 0.0
890 1.0 0.0 0.0
891 1.0 0.0 0.0
892 1.0 0.0 0.0
893 1.0 0.0 0.0
894 1.0 0.0 0.0
895 1.0 0.0 0.0
896 1.0 0.0 0.0
897 1.0 0.0 0.0
898 1.0 0.0 0.0
899 1.0 0.0 0.0
900 1.0 0.0 0.0
901 1.0 0.0 0.0
902 1.0 0.0 0.0
903 1.0 0.0 0.0
904 1.0 0.0 0.0
905 1.0 0.0 0.0
906 1.0 0.0 0.0
907 1.0 0.0 0.0
908 1.0 0.0 0.0
909 1.0 0.0 0.0
910 1.0 0.0 0.0
911 1.0 0.0 0.0
912 1.0 0.0 0.0
913 1.0 0.0 0.0
914 1.0 0.0 0.0
915 1.0 0.0 0.0
916 1.0 0.0 0.0
917 1.0 0.0 0.0
918 1.0 0.0 0.0
919 1.0 0.0 0.0
920 1.0 0.0 0.0
921 1.0 0.0 0.0
922 1.0 0.0 0.0
923 1.0 0.0 0.0
924 1.0 0.0 0.0
925 1.0 0.0 0.0
926 1.0 0.0 0.0
927 1.0 0.0 0.0
928 1.0 0.0 0.0
929 1.0 0.0 0.0
930 1.0 0.0 0.0
931 1.0 0.0 0.0
932 1.0 0.0 0.0
933 1.0 0.0 0.0
934 1.0 0.0 0.0
935 1.0 0.0 0.0
936 1.0 0.0 0.0
937 1.0 0.0 0.0
938 1.0 0.0 0.0
939 1.0 0.0 0.0
940 1.0 0.0 0.0
941 1.0 0.0 0.0
942 1.0 0.0 0.0
943 1.0 0.0 0.0
944 1.0 0.0 0.0
945 1.0 0.0 0.0
946 1.0 0.0 0.0
947 1.0 0.0 0.0
948 1.0 0.0 0.0
949 1.0 0.0 0.0
950 1.0 0.0 0.0
951 1.0 0.0 0.0
952 1.0 0.0 0.0
953 1.0 0.0 0.0
954 1.0 0.0 0.0
955 1.0 0.0 0.0
956 1.0 0.0 0.0
957 1.0 0.0 0.0
958 1.0 0.0 0.0
959 1.0 0.0 0.0
960 1.0 0.0 0.0
961 1.0 0.0 0.0
962 1.0 0.0 0.0
963 1.0 0.0 0.0
964 1.0 0.0 0.0
965 1.0 0.0 0.0
966 1.0 0.0 0.0
967 1.0 0.0 0.0
968 1.0 0.0 0.0
969 1.0 0.0 0.0
970 1.0 0.0 0.0
971 1.0 0.0 0.0
972 1.0 0.0 0.0
973 1.0 0.0 0.0
974 1.0 0.0 0.0
975 1.0 0.0 0.0
976 1.0 0.0 0.0
977 1.0 0.0 0.0
978 1.0 0.0 0.0
979 1.0 0.0 0.0
980 1.0 0.0 0.0
981 1.0 0.0 0.0
982 1.0 0.0 0.0
983 1.0 0.0 0.0
984 1.0 0.0 0.0
985 1.0 0.0 0.0
986 1.0 0.0 0.0
987 1.0 0.0 0.0
988 1.0 0.0 0.0
989 1.0 0.0 0.0
990 1.0 0.0 0.0
991 1.0 0.0 0.0
992 1.0 0.0 0.0
993 1.0 0.0 0.0
994 1.0 0.0 0.0
995 1.0 0.0 0.0
996 1.0 0.0 0.0
997 1.0 0.0 0.0
998 1.0 0.0 0.0
999 1.0 0.0 0.0
1000 1.0 0.0 0.0
1001 1.0 0.0 0.0
1002 1.0 0.0 0.0
1003 1.0 0.0 0.0
1004 1.0 0.0 0.0
1005 1.0 0.0 0.0
1006 1.0 0.0 0.0
1007 1.0 0.0 0.0
1008 1.0 0.0 0.0
1009 1.0 0.0 0.0
1010 1.0 0.0 0.0
1011 1.0 0.0 0.0
1012 1.0 0.0 0.0
1013 1.0 0.0 0.0
1014 1.0 0.0 0.0
1015 1.0 0.0 0.0
1016 1.0 0.0 0.0
1017 1.0 0.0 0.0
1018 1.0 0.0 0.0
1019 1.0 0.0 0.0
1020 1.0 0.0 0.0
1021 1.0 0.0 0.0
1022 1.0 0.0 0.0
1023 1.0 0.0 0.0
1024 1.0 0.0 0.0
1025 1.0 0.0 0.0
1026 1.0 0.0 0.0
1027 1.0 0.0 0.0
1028 1.0 0.0 0.0
1029 1.0 0.0 0.0
1030 1.0 0.0 0.0
1031 1.0 0.0 0.0
1032 1.0 0.0 0.0
1033 1.0 0.0 0.0
1034 1.0 0.0 0.0
1035 1.0 0.0 0.0
1036 1.0 0.0 0.0
1037 1.0 0.0 0.0
1038 1.0 0.0 0.0
1039 1.0 0.0 0.0
1040 1.0 0.0 0.0
1041 1.0 0.0 0.0
1042 1.0 0.0 0.0
1043 1.0 0.0 0.0
1044 1.0 0.0 0.0
1045 1.0 0.0 0.0
1046 1.0 0.0 0.0
1047 1.0 0.0 0.0
1048 1.0 0.0 0.0
1049 1.0 0.0 0.0
1050 1.0 0.0 0.0
1051 1.0 0.0 0.0
1052 1.0 0.0 0.0
1053 1.0 0.0 0.0
1054 1.0 0.0 0.0
1055 1.0 0.0 0.0
1056 1.0 0.0 0.0
1057 1.0 0.0 0.0
1058 1.0 0.0 0.0
1059 1.0 0.0 0.0
1060 1.0 0.0 0.0
1061 1.0 0.0 0.0
1062 1.0 0.0 0.0
1063 1.0 0.0 0.0
1064 1.0 0.0 0.0
1065 1.0 0.0 0.0
1066 1.0 0.0 0.0
1067 1.0 0.0 0.0
1068 1.0 0.0 0.0
1069 1.0 0.0 0.0
1070 1.0 0.0 0.0
1071 1.0 0.0 0.0
1072 1.0 0.0 0.0
1073 1.0 0.0 0.0
1074 1.0 0.0 0.0
1075 1.0 0.0 0.0
1076 1.0 0.0 0.0
1077 1.0 0.0 0.0
1078 1.0 0.0 0.0
1079 1.0 0.0 0.0
1080 1.0 0.0 0.0
1081 1.0 0.0 0.0
1082 1.0 0.0 0.0
1083 1.0 0.0 0.0
1084 1.0 0.0 0.0
1085 1.0 0.0 0.0
1086 1.0 0.0 0.0
1087 1.0 0.0 0.0
1088 1.0 0.0 0.0
1089 1.0 0.0 0.0
1090 1.0 0.0 0.0
1091 1.0 0.0 0.0
1092 1.0 0.0 0.0
1093 1.0 0.0 0.0
1094 1.0 0.0 0.0
1095 1.0 0.0 0.0
1096 1.0 0.0 0.0
1097 1.0 0.0 0.0
1098 1.0 0.0 0.0
1099 1.0 0.0 0.0
1100 1.0 0.0 0.0
1101 1.0 0.0 0.0
1102 1.0 0.0 0.0
1103 1.0 0.0 0.0
1104 1.0 0.0 0.0
1105 1.0 0.0 0.0
1106 1.0 0.0 0.0
1107 1.0 0.0 0.0
1108 1.0 0.0 0.0
1109 1.0 0.0 0.0
1110 1.0 0.0 0.0
1111 1.0 0.0 0.0
1112 1.0 0.0 0.0
1113 1.0 0.0 0.0
1114 1.0 0.0 0.0
1115 1.0 0.0 0.0
1116 1.0 0.0 0.0
1117 1.0 0.0 0.0
1118 1.0 0.0 0.0
1119 1.0 0.0 0.0
1120 1.0 0.0 0.0
1121 1.0 0.0 0.0
1122 1.0 0.0 0.0
1123 1.0 0.0 0.0
1124 1.0 0.0 0.0
1125 1.0 0.0 0.0
1126 1.0 0.0 0.0
1127 1.0 0.0 0.0
1128 1.0 0.0 0.0
1129 1.0 0.0 0.0
1130 1.0 0.0 0.0
$EndElementData
$ElementData
1
"e2"
1
0.0
3
0
3
734
397 0.0 1.0 0.0
398 0.0 1.0 0.0
399 0.0 1.0 0.0
400 0.0 1.0 0.0
401 0.0 1.0 0.0
402 0.0 1.0 0.0
403 0.0 1.0 0.0
404 0.0 1.0 0.0
405 0.0 1.0 0.0
406 0.0 1.0 0.0
407 0.0 1.0 0.0
408 0.0 1.0 0.0
409 0.0 1.0 0.0
410 0.0 1.0 0.0
411 0.0 1.0 0.0
412 0.0 1.0 0.0
413 0.0 1.0 0.0
414 0.0 1.0 0.0
415 0.0 1.0 0.0
416 0.0 1.0 0.0
417 0.0 1.0 0.0
418 0.0 1.0 0.0
419 0.0 1.0 0.0
420 0.0 1.0 0.0
421 0.0 1.0 0.0
422 0.0 1.0 0.0
423 0.0 1.0 0.0
424 0.0 1.0 0.0
425 0.0 1.0 0.0
426 0.0 1.0 0.0
427 0.0 1.0 0.0
428 0.0 1.0 0.0
429 0.0 1.0 0.0
430 0.0 1.0 0.0
431 0.0 1.0 0.0
432 0.0 1.0 0.0
433 0.0 1.0 0.0
434 0.0 1.0 0.0
435 0.0 1.0 0.0
436 0.0 1.0 0.0
437 0.0 1.0 0.0
438 0.0 1.0 0.0
439 0.0 1.0 0.0
440 0.0 1.0 0.0
441 0.0 1.0 0.0
442 0.0 1.0 0.0
443 0.0 1.0 0.0
444 0.0 1.0 0.0
445 0.0 1.0 0.0
446 0.0 1.0 0.0
447 0.0 1.0 0.0
448 0.0 1.0 0.0
449 0.0 1.0 0.0
450 0.0 1.0 0.0
451 0.0 1.0 0.0
452 0.0 1.0 0.0
453 0.0 1.0 0.0
454 0.0 1.0 0.0
455 0.0 1.0 0.0
456 0.0 1.0 0.0
457 0.0 1.0 0.0
458 0.0 1.0 0.0
459 0.0 1.0 0.0
460 0.0 1.0 0.0
461 0.0 1.0 0.0
462 0.0 1.0 0.0
463 0.0 1.0 0.0
464 0.0 1.0 0.0
465 0.0 1.0 0.0
466 0.0 1.0 0.0
467 0.0 1.0 0.0
468 0.0 1.0 0.0
469 0.0 1.0 0.0
470 0.0 1.0 0.0
471 0.0 1.0 0.0
472 0.0 1.0 0.0
473 0.0 1.0 0.0
474 0.0 1.0 0.0
475 0.0 1.0 0.0
476 0.0 1.0 0.0
477 0.0 1.0 0.0
478 0.0 1.0 0.0
479 0.0 1.0 0.0
480 0.0 1.0 0.0
481 0.0 1.0 0.0
482 0.0 1.0 0.0
483 0.0 1.0 0.0
484 0.0 1.0 0.0
485 0.0 1.0 0.0
486 0.0 1.0 0.0
487 0.0 1.0 0.0
488 0.0 1.0 0.0
489 0.0 1.0 0.0
490 0.0 1.0 0.0
491 0.0 1.0 0.0
492 0.0 1.0 0.0
493 0.0 1.0 0.0
494 0.0 1.0 0.0
495 0.0 1.0 0.0
496 0.0 1.0 0.0
497 0.0 1.0 0.0
498 0.0 1.0 0.0
499 0.0 1.0 0.0
500 0.0 1.0 0.0
501 0.0 1.0 0.0
502 0.0 1.0 0.0
503 0.0 1.0 0.0
504 0.0 1.0 0.0
505 0.0 1.0 0.0
506 0.0 1.0 0.0
507 0.0 1.0 0.0
508 0.0 1.0 0.0
509 0.0 1.0 0.0
510 0.0 1.0 0.0
511 0.0 1.0 0.0
512 0.0 1.0 0.0
513 0.0 1.0 0.0
514 0.0 1.0 0.0
515 0.0 1.0 0.0
516 0.0 1.0 0.0
517 0.0 1.0 0.0
518 0.0 1.0 0.0
519 0.0 1.0 0.0
520 0.0 1.0 0.0
521 0.0 1.0 0.0
522 0.0 1.0 0.0
523 0.0 1.0 0.0
524 0.0 1.0 0.0
525 0.0 1.0 0.0
526 0.0 1.0 0.0
527 0.0 1.0 0.0
528 0.0 1.0 0.0
529 0.0 1.0 0.0
530 0.0 1.0 0.0
531 0.0 1.0 0.0
532 0.0 1.0 0.0
533 0.0 1.0 0.0
534 0.0 1.0 0.0
535 0.0 1.0 0.0
536 0.0 1.0 0.0
537 0.0 1.0 0.0
538 0.0 1.0 0.0
539 0.0 1.0 0.0
540 0.0 1.0 0.0
541 0.0 1.0 0.0
542 0.0 1.0 0.0
543 0.0 1.0 0.0
544 0.0 1.0 0.0
545 0.0 1.0 0.0
546 0.0 1.0 0.0
547 0.0 1.0 0.0
548 0.0 1.0 0.0
549 0.0 1.0 0.0
550 0.0 1.0 0.0
551 0.0 1.0 0.0
552 0.0 1.0 0.0
553 0.0 1.0 0.0
554 0.0 1.0 0.0
555 0.0 1.0 0.0
556 0.0 1.0 0.0
557 0.0 1.0 0.0
558 0.0 1.0 0.0
559 0.0 1.0 0.0
560 0.0 1.0 0.0
561 0.0 1.0 0.0
562 0.0 1.0 0.0
563 0.0 1.0 0.0
564 0.0 1.0 0.0
565 0.0 1.0 0.0
566 0.0 1.0 0.0
567 0.0 1.0 0.0
568 0.0 1.0 0.0
569 0.0 1.0 0.0
570 0.0 1.0 0.0
571 0.0 1.0 0.0
572 0.0 1.0 0.0
573 0.0 1.0 0.0
574 0.0 1.0 0.0
575 0.0 1.0 0.0
576 0.0 1.0 0.0
577 0.0 1.0 0.0
578 0.0 1.0 0.0
579 0.0 1.0 0.0
580 0.0 1.0 0.0
581 0.0 1.0 0.0
582 0.0 1.0 0.0
583 0.0 1.0 0.0
584 0.0 1.0 0.0
585 0.0 1.0 0.0
586 0.0 1.0 0.0
587 0.0 1.0 0.0
588 0.0 1.0 0.0
589 0.0 1.0 0.0
590 0.0 1.0 0.0
591 0.0 1.0 0.0
592 0.0 1.0 0.0
593 0.0 1.0 0.0
594 0.0 1.0 0.0
595 0.0 1.0 0.0
596 0.0 1.0 0.0
597 0.0 1.0 0.0
598 0.0 1.0 0.0
599 0.0 1.0 0.0
600 0.0 1.0 0.0
601 0.0 1.0 0.0
602 0.0 1.0 0.0
603 0.0 1.0 0.0
604 0.0 1.0 0.0
605 0.0 1.0 0.0
606 0.0 1.0 0.0
607 0.0 1.0 0.0
608 0.0 1.0 0.0
609 0.0 1.0 0.0
610 0.0 1.0 0.0
611 0.0 1.0 0.0
612 0.0 1.0 0.0
613 0.0 1.0 0.0
614 0.0 1.0 0.0
615 0.0 1.0 0.0
616 0.0 1.0 0.0
617 0.0 1.0 0.0
618 0.0 1.0 0.0
619 0.0 1.0 0.0
620 0.0 1.0 0.0
621 0.0 1.0 0.0
622 0.0 1.0 0.0
623 0.0 1.0 0.0
624 0.0 1.0 0.0
625 0.0 1.0 0.0
626 0.0 1.0 0.0
627 0.0 1.0 0.0
628 0.0 1.0 0.0
629 0.0 1.0 0.0
630 0.0 1.0 0.0
631 0.0 1.0 0.0
632 0.0 1.0 0.0
633 0.0 1.0 0.0
634 0.0 1.0 0.0
635 0.0 1.0 0.0
636 0.0 1.0 0.0
637 0.0 1.0 0.0
638 0.0 1.0 0.0
639 0.0 1.0 0.0
640 0.0 1.0 0.0
641 0.0 1.0 0.0
642 0.0 1.0 0.0
643 0.0 1.0 0.0
644 0.0 1.0 0.0
645 0.0 1.0 0.0
646 0.0 1.0 0.0
647 0.0 1.0 0.0
648 0.0 1.0 0.0
649 0.0 1.0 0.0
650 0.0 1.0 0.0
651 0.0 1.0 0.0
652 0.0 1.0 0.0
653 0.0 1.0 0.0
654 0.0 1.0 0.0
655 0.0 1.0 0.0
656 0.0 1.0 0.0
657 0.0 1.0 0.0
658 0.0 1.0 0.0
659 0.0 1.0 0.0
660 0.0 1.0 0.0
661 0.0 1.0 0.0
662 0.0 1.0 0.0
663 0.0 1.0 0.0
664 0.0 1.0 0.0
665 0.0 1.0 0.0
666 0.0 1.0 0.0
667 0.0 1.0 0.0
668 0.0 1.0 0.0
669 0.0 1.0 0.0
670 0.0 1.0 0.0
671 0.0 1.0 0.0
672 0.0 1.0 0.0
673 0.0 1.0 0.0
674 0.0 1.0 0.0
675 0.0 1.0 0.0
676 0.0 1.0 0.0
677 0.0 1.0 0.0
678 0.0 1.0 0.0
679 0.0 1.0 0.0
680 0.0 1.0 0.0
681 0.0 1.0 0.0
682 0.0 1.0 0.0
683 0.0 1.0 0.0
684 0.0 1.0 0.0
685 0.0 1.0 0.0
686 0.0 1.0 0.0
687 0.0 1.0 0.0
688 0.0 1.0 0.0
689 0.0 1.0 0.0
690 0.0 1.0 0.0
691 0.0 1.0 0.0
692 0.0 1.0 0.0
693 0.0 1.0 0.0
694 0.0 1.0 0.0
695 0.0 1.0 0.0
696 0.0 1.0 0.0
697 0.0 1.0 0.0
698 0.0 1.0 0.0
699 0.0 1.0 0.0
700 0.0 1.0 0.0
701 0.0 1.0 0.0
702 0.0 1.0 0.0
703 0.0 1.0 0.0
704 0.0 1.0 0.0
705 0.0 1.0 0.0
706 0.0 1.0 0.0
707 0.0 1.0 0.0
708 0.0 1.0 0.0
709 0.0 1.0 0.0
710 0.0 1.0 0.0
711 0.0 1.0 0.0
712 0.0 1.0 0.0
713 0.0 1.0 0.0
714 0.0 1.0 0.0
715 0.0 1.0 0.0
716 0.0 1.0 0.0
717 0.0 1.0 0.0
718 0.0 1.0 0.0
719 0.0 1.0 0.0
720 0.0 1.0 0.0
721 0.0 1.0 0.0
722 0.0 1.0 0.0
723 0.0 1.0 0.0
724 0.0 1.0 0.0
725 0.0 1.0 0.0
726 0.0 1.0 0.0
727 0.0 1.0 0.0
728 0.0 1.0 0.0
729 0.0 1.0 0.0
730 0.0 1.0 0.0
731 0.0 1.0 0.0
732 0.0 1.0 0.0
733 0.0 1.0 0.0
734 0.0 1.0 0.0
735 0.0 1.0 0.0
736 0.0 1.0 0.0
737 0.0 1.0 0.0
738 0.0 1.0 0.0
739 0.0 1.0 0.0
740 0.0 1.0 0.0
741 0.0 1.0 0.0
742 0.0 1.0 0.0
743 0.0 1.0 0.0
744 0.0 1.0 0.0
745 0.0 1.0 0.0
746 0.0 1.0 0.0
747 0.0 1.0 0.0
748 0.0 1.0 0.0
749 0.0 1.0 0.0
750 0.0 1.0 0.0
751 0.0 1.0 0.0
752 0.0 1.0 0.0
753 0.0 1.0 0.0
754 0.0 1.0 0.0
755 0.0 1.0 0.0
756 0.0 1.0 0.0
757 0.0 1.0 0.0
758 0.0 1.0 0.0
759 0.0 1.0 0.0
760 0.0 1.0 0.0
761 0.0 1.0 0.0
762 0.0 1.0 0.0
763 0.0 1.0 0.0
764 0.0 1.0 0.0
765 0.0 1.0 0.0
766 0.0 1.0 0.0
767 0.0 1.0 0.0
768 0.0 1.0 0.0
769 0.0 1.0 0.0
770 0.0 1.0 0.0
771 0.0 1.0 0.0
772 0.0 1.0 0.0
773 0.0 1.0 0.0
774 0.0 1.0 0.0
775 0.0 1.0 0.0
776 0.0 1.0 0.0
777 0.0 1.0 0.0
778 0.0 1.0 0.0
779 0.0 1.0 0.0
780 0.0 1.0 0.0
781 0.0 1.0 0.0
782 0.0 1.0 0.0
783 0.0 1.0 0.0
784 0.0 1.0 0.0
785 0.0 1.0 0.0
786 0.0 1.0 0.0
787 0.0 1.0 0.0
788 0.0 1.0 0.0
789 0.0 1.0 0.0
790 0.0 1.0 0.0
791 0.0 1.0 0.0
792 0.0 1.0 0.0
793 0.0 1.0 0.0
794 0.0 1.0 0.0
795 0.0 1.0 0.0
796 0.0 1.0 0.0
797 0.0 1.0 0.0
798 0.0 1.0 0.0
799 0.0 1.0 0.0
800 0.0 1.0 0.0
801 0.0 1.0 0.0
802 0.0 1.0 0.0
803 0.0 1.0 0.0
804 0.0 1.0 0.0
805 0.0 1.0 0.0
806 0.0 1.0 0.0
807 0.0 1.0 0.0
808 0.0 1.0 0.0
809 0.0 1.0 0.0
810 0.0 1.0 0.0
811 0.0 1.0 0.0
812 0.0 1.0 0.0
813 0.0 1.0 0.0
814 0.0 1.0 0.0
815 0.0 1.0 0.0
816 0.0 1.0 0.0
817 0.0 1.0 0.0
818 0.0 1.0 0.0
819 0.0 1.0 0.0
820 0.0 1.0 0.0
821 0.0 1.0 0.0
822 0.0 1.0 0.0
823 0.0 1.0 0.0
824 0.0 1.0 0.0
825 0.0 1.0 0.0
826 0.0 1.0 0.0
827 0.0 1.0 0.0
828 0.0 1.0 0.0
829 0.0 1.0 0.0
830 0.0 1.0 0.0
831 0.0 1.0 0.0
832 0.0 1.0 0.0
833 0.0 1.0 0.0
834 0.0 1.0 0.0
835 0.0 1.0 0.0
836 0.0 1.0 0.0
837 0.0 1.0 0.0
838 0.0 1.0 0.0
839 0.0 1.0 0.0
840 0.0 1.0 0.0
841 0.0 1.0 0.0
842 0.0 1.0 0.0
843 0.0 1.0 0.0
844 0.0 1.0 0.0
845 0.0 1.0 0.0
846 0.0 1.0 0.0
847 0.0 1.0 0.0
848 0.0 1.0 0.0
849 0.0 1.0 0.0
850 0.0 1.0 0.0
851 0.0 1.0 0.0
852 0.0 1.0 0.0
853 0.0 1.0 0.0
854 0.0 1.0 0.0
855 0.0 1.0 0.0
856 0.0 1.0 0.0
857 0.0 1.0 0.0
858 0.0 1.0 0.0
859 0.0 1.0 0.0
860 0.0 1.0 0.0
861 0.0 1.0 0.0
862 0.0 1.0 0.0
863 0.0 1.0 0.0
864 0.0 1.0 0.0
865 0.0 1.0 0.0
866 0.0 1.0 0.0
867 0.0 1.0 0.0
868 0.0 1.0 0.0
869 0.0 1.0 0.0
870 0.0 1.0 0.0
871 0.0 1.0 0.0
872 0.0 1.0 0.0
873 0.0 1.0 0.0
874 0.0 1.0 0.0
875 0.0 1.0 0.0
876 0.0 1.0 0.0
877 0.0 1.0 0.0
878 0.0 1.0 0.0
879 0.0 1.0 0.0
880 0.0 1.0 0.0
881 0.0 1.0 0.0
882 0.0 1.0 0.0
883 0.0 1.0 0.0
884 0.0 1.0 0.0
885 0.0 1.0 0.0
886 0.0 1.0 0.0
887 0.0 1.0 0.0
888 0.0 1.0 0.0
889 0.0 1.0 0.0
890 0.0 1.0 0.0
891 0.0 1.0 0.0
892 0.0 1.0 0.0
893 0.0 1.0 0.0
894 0.0 1.0 0.0
895 0.0 1.0 0.0
896 0.0 1.0 0.0
897 0.0 1.0 0.0
898 0.0 1.0 0.0
899 0.0 1.0 0.0
900 0.0 1.0 0.0
901 0.0 1.0 0.0
902 0.0 1.0 0.0
903 0.0 1.0 0.0
904 0.0 1.0 0.0
905 0.0 1.0 0.0
906 0.0 1.0 0.0
907 0.0 1.0 0.0
908 0.0 1.0 0.0
909 0.0 1.0 0.0
910 0.0 1.0 0.0
911 0.0 1.0 0.0
912 0.0 1.0 0.0
913 0.0 1.0 0.0
914 0.0 1.0 0.0
915 0.0 1.0 0.0
916 0.0 1.0 0.0
917 0.0 1.0 0.0
918 0.0 1.0 0.0
919 0.0 1.0 0.0
920 0.0 1.0 0.0
921 0.0 1.0 0.0
922 0.0 1.0 0.0
923 0.0 1.0 0.0
924 0.0 1.0 0.0
925 0.0 1.0 0.0
926 0.0 1.0 0.0
927 0.0 1.0 0.0
928 0.0 1.0 0.0
929 0.0 1.0 0.0
930 0.0 1.0 0.0
931 0.0 1.0 0.0
932 0.0 1.0 0.0
933 0.0 1.0 0.0
934 0.0 1.0 0.0
935 0.0 1.0 0.0
936 0.0 1.0 0.0
937 0.0 1.0 0.0
938 0.0 1.0 0.0
939 0.0 1.0 0.0
940 0.0 1.0 0.0
941 0.0 1.0 0.0
942 0.0 1.0 0.0
943 0.0 1.0 0.0
944 0.0 1.0 0.0
945 0.0 1.0 0.0
946 0.0 1.0 0.0
947 0.0 1.0 0.0
948 0.0 1.0 0.0
949 0.0 1.0 0.0
950 0.0 1.0 0.0
951 0.0 1.0 0.0
952 0.0 1.0 0.0
953 0.0 1.0 0.0
954 0.0 1.0 0.0
955 0.0 1.0 0.0
956 0.0 1.0 0.0
957 0.0 1.0 0.0
958 0.0 1.0 0.0
959 0.0 1.0 0.0
960 0.0 1.0 0.0
961 0.0 1.0 0.0
962 0.0 1.0 0.0
963 0.0 1.0 0.0
964 0.0 1.0 0.0
965 0.0 1.0 0.0
966 0.0 1.0 0.0
967 0.0 1.0 0.0
968 0.0 1.0 0.0
969 0.0 1.0 0.0
970 0.0 1.0 0.0
971 0.0 1.0 0.0
972 0.0 1.0 0.0
973 0.0 1.0 0.0
974 0.0 1.0 0.0
975 0.0 1.0 0.0
976 0.0 1.0 0.0
977 0.0 1.0 0.0
978 0.0 1.0 0.0
979 0.0 1.0 0.0
980 0.0 1.0 0.0
981 0.0 1.0 0.0
982 0.0 1.0 0.0
983 0.0 1.0 0.0
984 0.0 1.0 0.0
985 0.0 1.0 0.0
986 0.0 1.0 0.0
987 0.0 1.0 0.0
988 0.0 1.0 0.0
989 0.0 1.0 0.0
990 0.0 1.0 0.0
991 0.0 1.0 0.0
992 0.0 1.0 0.0
993 0.0 1.0 0.0
994 0.0 1.0 0.0
995 0.0 1.0 0.0
996 0.0 1.0 0.0
997 0.0 1.0 0.0
998 0.0 1.0 0.0
999 0.0 1.0 0.0
1000 0.0 1.0 0.0
1001 0.0 1.0 0.0
1002 0.0 1.0 0.0
1003 0.0 1.0 0.0
1004 0.0 1.0 0.0
1005 0.0 1.0 0.0
1006 0.0 1.0 0.0
1007 0.0 1.0 0.0
1008 0.0 1.0 0.0
1009 0.0 1.0 0.0
1010 0.0 1.0 0.0
1011 0.0 1.0 0.0
1012 0.0 1.0 0.0
1013 0.0 1.0 0.0
1014 0.0 1.0 0.0
1015 0.0 1.0 0.0
1016 0.0 1.0 0.0
1017 0.0 1.0 0.0
1018 0.0 1.0 0.0
1019 0.0 1.0 0.0
1020 0.0 1.0 0.0
1021 0.0 1.0 0.0
1022 0.0 1.0 0.0
1023 0.0 1.0 0.0
1024 0.0 1.0 0.0
1025 0.0 1.0 0.0
1026 0.0 1.0 0.0
1027 0.0 1.0 0.0
1028 0.0 1.0 0.0
1029 0.0 1.0 0.0
1030 0.0 1.0 0.0
1031 0.0 1.0 0.0
1032 0.0 1.0 0.0
1033 0.0 1.0 0.0
1034 0.0 1.0 0.0
1035 0.0 1.0 0.0
1036 0.0 1.0 0.0
1037 0.0 1.0 0.0
1038 0.0 1.0 0.0
1039 0.0 1.0 0.0
1040 0.0 1.0 0.0
1041 0.0 1.0 0.0
1042 0.0 1.0 0.0
1043 0.0 1.0 0.0
1044 0.0 1.0 0.0
1045 0.0 1.0 0.0
1046 0.0 1.0 0.0
1047 0.0 1.0 0.0
1048 0.0 1.0 0.0
1049 0.0 1.0 0.0
1050 0.0 1.0 0.0
1051 0.0 1.0 0.0
1052 0.0 1.0 0.0
1053 0.0 1.0 0.0
1054 0.0 1.0 0.0
1055 0.0 1.0 0.0
1056 0.0 1.0 0.0
1057 0.0 1.0 0.0
1058 0.0 1.0 0.0
1059 0.0 1.0 0.0
1060 0.0 1.0 0.0
1061 0.0 1.0 0.0
1062 0.0 1.0 0.0
1063 0.0 1.0 0.0
1064 0.0 1.0 0.0
1065 0.0 1.0 0.0
1066 0.0 1.0 0.0
1067 0.0 1.0 0.0
1068 0.0 1.0 0.0
1069 0.0 1.0 0.0
1070 0.0 1.0 0.0
1071 0.0 1.0 0.0
1072 0.0 1.0 0.0
1073 0.0 1.0 0.0
1074 0.0 1.0 0.0
1075 0.0 1.0 0.0
1076 0.0 1.0 0.0
1077 0.0 1.0 0.0
1078 0.0 1.0 0.0
1079 0.0 1.0 0.0
1080 0.0 1.0 0.0
1081 0.0 1.0 0.0
1082 0.0 1.0 0.0
1083 0.0 1.0 0.0
1084 0.0 1.0 0.0
1085 0.0 1.0 0.0
1086 0.0 1.0 0.0
1087 0.0 1.0 0.0
1088 0.0 1.0 0.0
1089 0.0 1.0 0.0
1090 0.0 1.0 0.0
1091 0.0 1.0 0.0
1092 0.0 1.0 0.0
1093 0.0 1.0 0.0
1094 0.0 1.0 0.0
1095 0.0 1.0 0.0
1096 0.0 1.0 0.0
1097 0.0 1.0 0.0
1098 0.0 1.0 0.0
1099 0.0 1.0 0.0
1100 0.0 1.0 0.0
1101 0.0 1.0 0.0
1102 0.0 1.0 0.0
1103 0.0 1.0 0.0
1104 0.0 1.0 0.0
1105 0.0 1.0 0.0
1106 0.0 1.0 0.0
1107 0.0 1.0 0.0
1108 0.0 1.0 0.0
1109 0.0 1.0 0.0
1110 0.0 1.0 0.0
1111 0.0 1.0 0.0
1112 0.0 1.0 0.0
1113 0.0 1.0 0.0
1114 0.0 1.0 0.0
1115 0.0 1.0 0.0
1116 0.0 1.0 0.0
1117 0.0 1.0 0.0
1118 0.0 1.0 0.0
1119 0.0 1.0 0.0
1120 0.0 1.0 0.0
1121 0.0 1.0 0.0
1122 0.0 1.0 0.0
1123 0.0 1.0 0.0
1124 0.0 1.0 0.0
1125 0.0 1.0 0.0
1126 0.0 1.0 0.0
1127 0.0 1.0 0.0
1128 0.0 1.0 0.0
1129 0.0 1.0 0.0
1130 0.0 1.0 0.0
$EndElementData
$ElementData
1
"e3"
1
0.0
3
0
3
734
397 0.0 0.0 1.0
398 0.0 0.0 1.0
399 0.0 0.0 1.0
400 0.0 0.0 1.0
401 0.0 0.0 1.0
402 0.0 0.0 1.0
403 0.0 0.0 1.0
404 0.0 0.0 1.0
405 0.0 0.0 1.0
406 0.0 0.0 1.0
407 0.0 0.0 1.0
408 0.0 0.0 1.0
409 0.0 0.0 1.0
410 0.0 0.0 1.0
411 0.0 0.0 1.0
412 0.0 0.0 1.0
413 0.0 0.0 1.0
414 0.0 0.0 1.0
415 0.0 0.0 1.0
416 0.0 0.0 1.0
417 0.0 0.0 1.0
418 0.0 0.0 1.0
419 0.0 0.0 1.0
420 0.0 0.0 1.0
421 0.0 0.0 1.0
422 0.0 0.0 1.0
423 0.0 0.0 1.0
424 0.0 0.0 1.0
425 0.0 0.0 1.0
426 0.0 0.0 1.0
427 0.0 0.0 1.0
428 0.0 0.0 1.0
429 0.0 0.0 1.0
430 0.0 0.0 1.0
431 0.0 0.0 1.0
432 0.0 0.0 1.0
433 0.0 0.0 1.0
434 0.0 0.0 1.0
435 0.0 0.0 1.0
436 0.0 0.0 1.0
437 0.0 0.0 1.0
438 0.0 0.0 1.0
439 0.0 0.0 1.0
440 0.0 0.0 1.0
441 0.0 0.0 1.0
442 0.0 0.0 1.0
443 0.0 0.0 1.0
444 0.0 0.0 1.0
445 0.0 0.0 1.0
446 0.0 0.0 1.0
447 0.0 0.0 1.0
448 0.0 0.0 1.0
449 0.0 0.0 1.0
450 0.0 0.0 1.0
451 0.0 0.0 1.0
452 0.0 0.0 1.0
453 0.0 0.0 1.0
454 0.0 0.0 1.0
455 0.0 0.0 1.0
456 0.0 0.0 1.0
457 0.0 0.0 1.0
458 0.0 0.0 1.0
459 0.0 0.0 1.0
460 0.0 0.0 1.0
461 0.0 0.0 1.0
462 0.0 0.0 1.0
463 0.0 0.0 1.0
464 0.0 0.0 1.0
465 0.0 0.0 1.0
466 0.0 0.0 1.0
467 0.0 0.0 1.0
468 0.0 0.0 1.0
469 0.0 0.0 1.0
470 0.0 0.0 1.0
471 0.0 0.0 1.0
472 0.0 0.0 1.0
473 0.0 0.0 1.0
474 0.0 0.0 1.0
475 0.0 0.0 1.0
476 0.0 0.0 1.0
477 0.0 0.0 1.0
478 0.0 0.0 1.0
479 0.0 0.0 1.0
480 0.0 0.0 1.0
481 0.0 0.0 1.0
482 0.0 0.0 1.0
483 0.0 0.0 1.0
484 0.0 0.0 1.0
485 0.0 0.0 1.0
486 0.0 0.0 1.0
487 0.0 0.0 1.0
488 0.0 0.0 1.0
489 0.0 0.0 1.0
490 0.0 0.0 1.0
491 0.0 0.0 1.0
492 0.0 0.0 1.0
493 0.0 0.0 1.0
494 0.0 0.0 1.0
495 0.0 0.0 1.0
496 0.0 0.0 1.0
497 0.0 0.0 1.0
498 0.0 0.0 1.0
499 0.0 0.0 1.0
500 0.0 0.0 1.0
501 0.0 0.0 1.0
502 0.0 0.0 1.0
503 0.0 0.0 1.0
504 0.0 0.0 1.0
505 0.0 0.0 1.0
506 0.0 0.0 1.0
507 0.0 0.0 1.0
508 0.0 0.0 1.0
509 0.0 0.0 1.0
510 0.0 0.0 1.0
511 0.0 0.0 1.0
512 0.0 0.0 1.0
513 0.0 0.0 1.0
514 0.0 0.0 1.0
515 0.0 0.0 1.0
516 0.0 0.0 1.0
517 0.0 0.0 1.0
518 0.0 0.0 1.0
519 0.0 0.0 1.0
520 0.0 0.0 1.0
521 0.0 0.0 1.0
522 0.0 0.0 1.0
523 0.0 0.0 1.0
524 0.0 0.0 1.0
525 0.0 0.0 1.0
526 0.0 0.0 1.0
527 0.0 0.0 1.0
528 0.0 0.0 1.0
529 0.0 0.0 1.0
530 0.0 0.0 1.0
531 0.0 0.0 1.0
532 0.0 0.0 1.0
533 0.0 0.0 1.0
534 0.0 0.0 1.0
535 0.0 0.0 1.0
536 0.0 0.0 1.0
537 0.0 0.0 1.0
538 0.0 0.0 1.0
539 0.0 0.0 1.0
540 0.0 0.0 1.0
541 0.0 0.0 1.0
542 0.0 0.0 1.0
543 0.0 0.0 1.0
544 0.0 0.0 1.0
545 0.0 0.0 1.0
546 0.0 0.0 1.0
547 0.0 0.0 1.0
548 0.0 0.0 1.0
549 0.0 0.0 1.0
550 0.0 0.0 1.0
551 0.0 0.0 1.0
552 0.0 0.0 1.0
553 0.0 0.0 1.0
554 0.0 0.0 1.0
555 0.0 0.0 1.0
556 0.0 0.0 1.0
557 0.0 0.0 1.0
558 0.0 0.0 1.0
559 0.0 0.0 1.0
560 0.0 0.0 1.0
561 0.0 0.0 1.0
562 0.0 0.0 1.0
563 0.0 0.0 1.0
564 0.0 0.0 1.0
565 0.0 0.0 1.0
566 0.0 0.0 1.0
567 0.0 0.0 1.0
568 0.0 0.0 1.0
569 0.0 0.0 1.0
570 0.0 0.0 1.0
571 0.0 0.0 1.0
572 0.0 0.0 1.0
573 0.0 0.0 1.0
574 0.0 0.0 1.0
575 0.0 0.0 1.0
576 0.0 0.0 1.0
577 0.0 0.0 1.0
578 0.0 0.0 1.0
579 0.0 0.0 1.0
580 0.0 0.0 1.0
581 0.0 0.0 1.0
582 0.0 0.0 1.0
583 0.0 0.0 1.0
584 0.0 0.0 1.0
585 0.0 0.0 1.0
586 0.0 0.0 1.0
587 0.0 0.0 1.0
588 0.0 0.0 1.0
589 0.0 0.0 1.0
590 0.0 0.0 1.0
591 0.0 0.0 1.0
592 0.0 0.0 1.0
593 0.0 0.0 1.0
594 0.0 0.0 1.0
595 0.0 0.0 1.0
596 0.0 0.0 1.0
597 0.0 0.0 1.0
598 0.0 0.0 1.0
599 0.0 0.0 1.0
600 0.0 0.0 1.0
601 0.0 0.0 1.0
602 0.0 0.0 1.0
603 0.0 0.0 1.0
604 0.0 0.0 1.0
605 0.0 0.0 1.0
606 0.0 0.0 1.0
607 0.0 0.0 1.0
608 0.0 0.0 1.0
609 0.0 0.0 1.0
610 0.0 0.0 1.0
611 0.0 0.0 1.0
612 0.0 0.0 1.0
613 0.0 0.0 1.0
614 0.0 0.0 1.0
615 0.0 0.0 1.0
616 0.0 0.0 1.0
617 0.0 0.0 1.0
618 0.0 0.0 1.0
619 0.0 0.0 1.0
620 0.0 0.0 1.0
621 0.0 0.0 1.0
622 0.0 0.0 1.0
623 0.0 0.0 1.0
624 0.0 0.0 1.0
625 0.0 0.0 1.0
626 0.0 0.0 1.0
627 0.0 0.0 1.0
628 0.0 0.0 1.0
629 0.0 0.0 1.0
630 0.0 0.0 1.0
631 0.0 0.0 1.0
632 0.0 0.0 1.0
633 0.0 0.0 1.0
634 0.0 0.0 1.0
635 0.0 0.0 1.0
636 0.0 0.0 1.0
637 0.0 0.0 1.0
638 0.0 0.0 1.0
639 0.0 0.0 1.0
640 0.0 0.0 1.0
641 0.0 0.0 1.0
642 0.0 0.0 1.0
643 0.0 0.0 1.0
644 0.0 0.0 1.0
645 0.0 0.0 1.0
646 0.0 0.0 1.0
647 0.0 0.0 1.0
648 0.0 0.0 1.0
649 0.0 0.0 1.0
650 0.0 0.0 1.0
651 0.0 0.0 1.0
652 0.0 0.0 1.0
653 0.0 0.0 1.0
654 0.0 0.0 1.0
655 0.0 0.0 1.0
656 0.0 0.0 1.0
657 0.0 0.0 1.0
658 0.0 0.0 1.0
659 0.0 0.0 1.0
660 0.0 0.0 1.0
661 0.0 0.0 1.0
662 0.0 0.0 1.0
663 0.0 0.0 1.0
664 0.0 0.0 1.0
665 0.0 0.0 1.0
666 0.0 0.0 1.0
667 0.0 0.0 1.0
668 0.0 0.0 1.0
669 0.0 0.0 1.0
670 0.0 0.0 1.0
671 0.0 0.0 1.0
672 0.0 0.0 1.0
673 0.0 0.0 1.0
674 0.0 0.0 1.0
675 0.0 0.0 1.0
676 0.0 0.0 1.0
677 0.0 0.0 1.0
678 0.0 0.0 1.0
679 0.0 0.0 1.0
680 0.0 0.0 1.0
681 0.0 0.0 1.0
682 0.0 0.0 1.0
683 0.0 0.0 1.0
684 0.0 0.0 1.0
685 0.0 0.0 1.0
686 0.0 0.0 1.0
687 0.0 0.0 1.0
688 0.0 0.0 1.0
689 0.0 0.0 1.0
690 0.0 0.0 1.0
691 0.0 0.0 1.0
692 0.0 0.0 1.0
693 0.0 0.0 1.0
694 0.0 0.0 1.0
695 0.0 0.0 1.0
696 0.0 0.0 1.0
697 0.0 0.0 1.0
698 0.0 0.0 1.0
699 0.0 0.0 1.0
700 0.0 0.0 1.0
701 0.0 0.0 1.0
702 0.0 0.0 1.0
703 0.0 0.0 1.0
704 0.0 0.0 1.0
705 0.0 0.0 1.0
706 0.0 0.0 1.0
707 0.0 0.0 1.0
708 0.0 0.0 1.0
709 0.0 0.0 1.0
710 0.0 0.0 1.0
711 0.0 0.0 1.0
712 0.0 0.0 1.0
713 0.0 0.0 1.0
714 0.0 0.0 1.0
715 0.0 0.0 1.0
716 0.0 0.0 1.0
717 0.0 0.0 1.0
718 0.0 0.0 1.0
719 0.0 0.0 1.0
720 0.0 0.0 1.0
721 0.0 0.0 1.0
722 0.0 0.0 1.0
723 0.0 0.0 1.0
724 0.0 0.0 1.0
725 0.0 0.0 1.0
726 0.0 0.0 1.0
727 0.0 0.0 1.0
728 0.0 0.0 1.0
729 0.0 0.0 1.0
730 0.0 0.0 1.0
731 0.0 0.0 1.0
732 0.0 0.0 1.0
733 0.0 0.0 1.0
734 0.0 0.0 1.0
735 0.0 0.0 1.0
736 0.0 0.0 1.0
737 0.0 0.0 1.0
738 0.0 0.0 1.0
739 0.0 0.0 1.0
740 0.0 0.0 1.0
741 0.0 0.0 1.0
742 0.0 0.0 1.0
743 0.0 0.0 1.0
744 0.0 0.0 1.0
745 0.0 0.0 1.0
746 0.0 0.0 1.0
747 0.0 0.0 1.0
748 0.0 0.0 1.0
749 0.0 0.0 1.0
750 0.0 0.0 1.0
751 0.0 0.0 1.0
752 0.0 0.0 1.0
753 0.0 0.0 1.0
754 0.0 0.0 1.0
755 0.0 0.0 1.0
756 0.0 0.0 1.0
757 0.0 0.0 1.0
758 0.0 0.0 1.0
759 0.0 0.0 1.0
760 0.0 0.0 1.0
761 0.0 0.0 1.0
762 0.0 0.0 1.0
763 0.0 0.0 1.0
764 0.0 0.0 1.0
765 0.0 0.0 1.0
766 0.0 0.0 1.0
767 0.0 0.0 1.0
768 0.0 0.0 1.0
769 0.0 0.0 1.0
770 0.0 0.0 1.0
771 0.0 0.0 1.0
772 0.0 0.0 1.0
773 0.0 0.0 1.0
774 0.0 0.0 1.0
775 0.0 0.0 1.0
776 0.0 0.0 1.0
777 0.0 0.0 1.0
778 0.0 0.0 1.0
779 0.0 0.0 1.0
780 0.0 0.0 1.0
781 0.0 0.0 1.0
782 0.0 0.0 1.0
783 0.0 0.0 1.0
784 0.0 0.0 1.0
785 0.0 0.0 1.0
786 0.0 0.0 1.0
787 0.0 0.0 1.0
788 0.0 0.0 1.0
789 0.0 0.0 1.0
790 0.0 0.0 1.0
791 0.0 0.0 1.0
792 0.0 0.0 1.0
793 0.0 0.0 1.0
794 0.0 0.0 1.0
795 0.0 0.0 1.0
796 0.0 0.0 1.0
797 0.0 0.0 1.0
798 0.0 0.0 1.0
799 0.0 0.0 1.0
800 0.0 0.0 1.0
801 0.0 0.0 1.0
802 0.0 0.0 1.0
803 0.0 0.0 1.0
804 0.0 0.0 1.0
805 0.0 0.0 1.0
806 0.0 0.0 1.0
807 0.0 0.0 1.0
808 0.0 0.0 1.0
809 0.0 0.0 1.0
810 0.0 0.0 1.0
811 0.0 0.0 1.0
812 0.0 0.0 1.0
813 0.0 0.0 1.0
814 0.0 0.0 1.0
815 0.0 0.0 1.0
816 0.0 0.0 1.0
817 0.0 0.0 1.0
818 0.0 0.0 1.0
819 0.0 0.0 1.0
820 0.0 0.0 1.0
821 0.0 0.0 1.0
822 0.0 0.0 1.0
823 0.0 0.0 1.0
824 0.0 0.0 1.0
825 0.0 0.0 1.0
826 0.0 0.0 1.0
827 0.0 0.0 1.0
828 0.0 0.0 1.0
829 0.0 0.0 1.0
830 0.0 0.0 1.0
831 0.0 0.0 1.0
832 0.0 0.0 1.0
833 0.0 0.0 1.0
834 0.0 0.0 1.0
835 0.0 0.0 1.0
836 0.0 0.0 1.0
837 0.0 0.0 1.0
838 0.0 0.0 1.0
839 0.0 0.0 1.0
840 0.0 0.0 1.0
841 0.0 0.0 1.0
842 0.0 0.0 1.0
843 0.0 0.0 1.0
844 0.0 0.0 1.0
845 0.0 0.0 1.0
846 0.0 0.0 1.0
847 0.0 0.0 1.0
848 0.0 0.0 1.0
849 0.0 0.0 1.0
850 0.0 0.0 1.0
851 0.0 0.0 1.0
852 0.0 0.0 1.0
853 0.0 0.0 1.0
854 0.0 0.0 1.0
855 0.0 0.0 1.0
856 0.0 0.0 1.0
857 0.0 0.0 1.0
858 0.0 0.0 1.0
859 0.0 0.0 1.0
860 0.0 0.0 1.0
861 0.0 0.0 1.0
862 0.0 0.0 1.0
863 0.0 0.0 1.0
864 0.0 0.0 1.0
865 0.0 0.0 1.0
866 0.0 0.0 1.0
867 0.0 0.0 1.0
868 0.0 0.0 1.0
869 0.0 0.0 1.0
870 0.0 0.0 1.0
871 0.0 0.0 1.0
872 0.0 0.0 1.0
873 0.0 0.0 1.0
874 0.0 0.0 1.0
875 0.0 0.0 1.0
876 0.0 0.0 1.0
877 0.0 0.0 1.0
878 0.0 0.0 1.0
879 0.0 0.0 1.0
880 0.0 0.0 1.0
881 0.0 0.0 1.0
882 0.0 0.0 1.0
883 0.0 0.0 1.0
884 0.0 0.0 1.0
885 0.0 0.0 1.0
886 0.0 0.0 1.0
887 0.0 0.0 1.0
888 0.0 0.0 1.0
889 0.0 0.0 1.0
890 0.0 0.0 1.0
891 0.0 0.0 1.0
892 0.0 0.0 1.0
893 0.0 0.0 1.0
894 0.0 0.0 1.0
895 0.0 0.0 1.0
896 0.0 0.0 1.0
897 0.0 0.0 1.0
898 0.0 0.0 1.0
899 0.0 0.0 1.0
900 0.0 0.0 1.0
901 0.0 0.0 1.0
902 0.0 0.0 1.0
903 0.0 0.0 1.0
904 0.0 0.0 1.0
905 0.0 0.0 1.0
906 0.0 0.0 1.0
907 0.0 0.0 1.0
908 0.0 0.0 1.0
909 0.0 0.0 1.0
910 0.0 0.0 1.0
911 0.0 0.0 1.0
912 0.0 0.0 1.0
913 0.0 0.0 1.0
914 0.0 0.0 1.0
915 0.0 0.0 1.0
916 0.0 0.0 1.0
917 0.0 0.0 1.0
918 0.0 0.0 1.0
919 0.0 0.0 1.0
920 0.0 0.0 1.0
921 0.0 0.0 1.0
922 0.0 0.0 1.0
923 0.0 0.0 1.0
924 0.0 0.0 1.0
925 0.0 0.0 1.0
926 0.0 0.0 1.0
927 0.0 0.0 1.0
928 0.0 0.0 1.0
929 0.0 0.0 1.0
930 0.0 0.0 1.0
931 0.0 0.0 1.0
932 0.0 0.0 1.0
933 0.0 0.0 1.0
934 0.0 0.0 1.0
935 0.0 0.0 1.0
936 0.0 0.0 1.0
937 0.0 0.0 1.0
938 0.0 0.0 1.0
939 0.0 0.0 1.0
940 0.0 0.0 1.0
941 0.0 0.0 1.0
942 0.0 0.0 1.0
943 0.0 0.0 1.0
944 0.0 0.0 1.0
945 0.0 0.0 1.0
946 0.0 0.0 1.0
947 0.0 0.0 1.0
948 0.0 0.0 1.0
949 0.0 0.0 1.0
950 0.0 0.0 1.0
951 0.0 0.0 1.0
952 0.0 0.0 1.0
953 0.0 0.0 1.0
954 0.0 0.0 1.0
955 0.0 0.0 1.0
956 0.0 0.0 1.0
957 0.0 0.0 1.0
958 0.0 0.0 1.0
959 0.0 0.0 1.0
960 0.0 0.0 1.0
961 0.0 0.0 1.0
962 0.0 0.0 1.0
963 0.0 0.0 1.0
964 0.0 0.0 1.0
965 0.0 0.0 1.0
966 0.0 0.0 1.0
967 0.0 0.0 1.0
968 0.0 0.0 1.0
969 0.0 0.0 1.0
970 0.0 0.0 1.0
971 0.0 0.0 1.0
972 0.0 0.0 1.0
973 0.0 0.0 1.0
974 0.0 0.0 1.0
975 0.0 0.0 1.0
976 0.0 0.0 1.0
977 0.0 0.0 1.0
978 0.0 0.0 1.0
979 0.0 0.0 1.0
980 0.0 0.0 1.0
981 0.0 0.0 1.0
982 0.0 0.0 1.0
983 0.0 0.0 1.0
984 0.0 0.0 1.0
985 0.0 0.0 1.0
986 0.0 0.0 1.0
987 0.0 0.0 1.0
988 0.0 0.0 1.0
989 0.0 0.0 1.0
990 0.0 0.0 1.0
991 0.0 0.0 1.0
992 0.0 0.0 1.0
993 0.0 0.0 1.0
994 0.0 0.0 1.0
995 0.0 0.0 1.0
996 0.0 0.0 1.0
997 0.0 0.0 1.0
998 0.0 0.0 1.0
999 0.0 0.0 1.0
1000 0.0 0.0 1.0
1001 0.0 0.0 1.0
1002 0.0 0.0 1.0
1003 0.0 0.0 1.0
1004 0.0 0.0 1.0
1005 0.0 0.0 1.0
1006 0.0 0.0 1.0
1007 0.0 0.0 1.0
1008 0.0 0.0 1.0
1009 0.0 0.0 1.0
1010 0.0 0.0 1.0
1011 0.0 0.0 1.0
1012 0.0 0.0 1.0
1013 0.0 0.0 1.0
1014 0.0 0.0 1.0
1015 0.0 0.0 1.0
1016 0.0 0.0 1.0
1017 0.0 0.0 1.0
1018 0.0 0.0 1.0
1019 0.0 0.0 1.0
1020 0.0 0.0 1.0
1021 0.0 0.0 1.0
1022 0.0 0.0 1.0
1023 0.0 0.0 1.0
1024 0.0 0.0 1.0
1025 0.0 0.0 1.0
1026 0.0 0.0 1.0
1027 0.0 0.0 1.0
1028 0.0 0.0 1.0
1029 0.0 0.0 1.0
1030 0.0 0.0 1.0
1031 0.0 0.0 1.0
1032 0.0 0.0 1.0
1033 0.0 0.0 1.0
1034 0.0 0.0 1.0
1035 0.0 0.0 1.0
1036 0.0 0.0 1.0
1037 0.0 0.0 1.0
1038 0.0 0.0 1.0
1039 0.0 0.0 1.0
1040 0.0 0.0 1.0
1041 0.0 0.0 1.0
1042 0.0 0.0 1.0
1043 0.0 0.0 1.0
1044 0.0 0.0 1.0
1045 0.0 0.0 1.0
1046 0.0 0.0 1.0
1047 0.0 0.0 1.0
1048 0.0 0.0 1.0
1049 0.0 0.0 1.0
1050 0.0 0.0 1.0
1051 0.0 0.0 1.0
1052 0.0 0.0 1.0
1053 0.0 0.0 1.0
1054 0.0 0.0 1.0
1055 0.0 0.0 1.0
1056 0.0 0.0 1.0
1057 0.0 0.0 1.0
1058 0.0 0.0 1.0
1059 0.0 0.0 1.0
1060 0.0 0.0 1.0
1061 0.0 0.0 1.0
1062 0.0 0.0 1.0
1063 0.0 0.0 1.0
1064 0.0 0.0 1.0
1065 0.0 0.0 1.0
1066 0.0 0.0 1.0
1067 0.0 0.0 1.0
1068 0.0 0.0 1.0
1069 0.0 0.0 1.0
1070 0.0 0.0 1.0
1071 0.0 0.0 1.0
1072 0.0 0.0 1.0
1073 0.0 0.0 1.0
1074 0.0 0.0 1.0
1075 0.0 0.0 1.0
1076 0.0 0.0 1.0
1077 0.0 0.0 1.0
1078 0.0 0.0 1.0
1079 0.0 0.0 1.0
1080 0.0 0.0 1.0
1081 0.0 0.0 1.0
1082 0.0 0.0 1.0
1083 0.0 0.0 1.0
1084 0.0 0.0 1.0
1085 0.0 0.0 1.0
1086 0.0 0.0 1.0
1087 0.0 0.0 1.0
1088 0.0 0.0 1.0
1089 0.0 0.0 1.0
1090 0.0 0.0 1.0
1091 0.0 0.0 1.0
1092 0.0 0.0 1.0
1093 0.0 0.0 1.0
1094 0.0 0.0 1.0
1095 0.0 0.0 1.0
1096 0.0 0.0 1.0
1097 0.0 0.0 1.0
1098 0.0 0.0 1.0
1099 0.0 0.0 1.0
1100 0.0 0.0 1.0
1101 0.0 0.0 1.0
1102 0.0 0.0 1.0
1103 0.0 0.0 1.0
1104 0.0 0.0 1.0
1105 0.0 0.0 1.0
1106 0.0 0.0 1.0
1107 0.0 0.0 1.0
1108 0.0 0.0 1.0
1109 0.0 0.0 1.0
1110 0.0 0.0 1.0
1111 0.0 0.0 1.0
1112 0.0 0.0 1.0
1113 0.0 0.0 1.0
1114 0.0 0.0 1.0
1115 0.0 0.0 1.0
1116 0.0 0.0 1.0
1117 0.0 0.0 1.0
1118 0.0 0.0 1.0
1119 0.0 0.0 1.0
1120 0.0 0.0 1.0
1121 0.0 0.0 1.0
1122 0.0 0.0 1.0
1123 0.0 0.0 1.0
1124 0.0 0.0 1.0
1125 0.0 0.0 1.0
1126 0.0 0.0 1.0
1127 0.0 0.0 1.0
1128 0.0 0.0 1.0
1129 0.0 0.0 1.0
1130 0.0 0.0 1.0
$EndElementData
