$MeshFormat
4.1 0 8
$EndMeshFormat
$PhysicalNames
7
2 1 "x0"
2 2 "x1"
2 3 "y0"
2 4 "y1"
2 5 "z0"
2 6 "z1"
3 10 "cube"
$EndPhysicalNames
$Entities
8 12 6 1
1 0 0 1 0 
2 0 0 0 0 
3 0 1 1 0 
4 0 1 0 0 
5 1 0 1 0 
6 1 0 0 0 
7 1 1 1 0 
8 1 1 0 0 
1 -1e-07 -1e-07 -9.999999994736442e-08 1e-07 1e-07 1.0000001 0 2 2 -1 
2 -1e-07 -9.999999994736442e-08 0.9999999000000001 1e-07 1.0000001 1.0000001 0 2 1 -3 
3 -1e-07 0.9999999000000001 -9.999999994736442e-08 1e-07 1.0000001 1.0000001 0 2 4 -3 
4 -1e-07 -9.999999994736442e-08 -1e-07 1e-07 1.0000001 1e-07 0 2 2 -4 
5 0.9999999000000001 -1e-07 -9.999999994736442e-08 1.0000001 1e-07 1.0000001 0 2 6 -5 
6 0.9999999000000001 -9.999999994736442e-08 0.9999999000000001 1.0000001 1.0000001 1.0000001 0 2 5 -7 
7 0.9999999000000001 0.9999999000000001 -9.999999994736442e-08 1.0000001 1.0000001 1.0000001 0 2 8 -7 
8 0.9999999000000001 -9.999999994736442e-08 -1e-07 1.0000001 1.0000001 1e-07 0 2 6 -8 
9 -9.999999994736442e-08 -1e-07 -1e-07 1.0000001 1e-07 1e-07 0 2 2 -6 
10 -9.999999994736442e-08 -1e-07 0.9999999000000001 1.0000001 1e-07 1.0000001 0 2 1 -5 
11 -9.999999994736442e-08 0.9999999000000001 -1e-07 1.0000001 1.0000001 1e-07 0 2 4 -8 
12 -9.999999994736442e-08 0.9999999000000001 0.9999999000000001 1.0000001 1.0000001 1.0000001 0 2 3 -7 
1 -1e-07 -9.999999994736442e-08 -9.999999994736442e-08 1e-07 1.0000001 1.0000001 1 1 4 -1 4 3 -2 
2 0.9999999000000001 -9.999999994736442e-08 -9.999999994736442e-08 1.0000001 1.0000001 1.0000001 1 2 4 -5 8 7 -6 
3 -9.999999994736442e-08 -1e-07 -9.999999994736442e-08 1.0000001 1e-07 1.0000001 1 3 4 -9 1 10 -5 
4 -9.999999994736442e-08 0.9999999000000001 -9.999999994736442e-08 1.0000001 1.0000001 1.0000001 1 4 4 -11 3 12 -7 
5 -9.999999994736442e-08 -9.999999994736442e-08 -1e-07 1.0000001 1.0000001 1e-07 1 5 4 -4 9 8 -11 
6 -9.999999994736442e-08 -9.999999994736442e-08 0.9999999000000001 1.0000001 1.0000001 1.0000001 1 6 4 -2 10 6 -12 
1 -9.999999994736442e-08 -9.999999994736442e-08 -9.999999994736442e-08 1.0000001 1.0000001 1.0000001 1 10 6 -1 2 -3 4 -5 6 
$EndEntities
$Nodes
27 216 1 216
0 1 0 1
1
0 0 1
0 2 0 1
2
0 0 0
0 3 0 1
3
0 1 1
0 4 0 1
4
0 1 0
0 5 0 1
5
1 0 1
0 6 0 1
6
1 0 0
0 7 0 1
7
1 1 1
0 8 0 1
8
1 1 0
1 1 0 4
9
10
11
12
0 0 0.2
0 0 0.4
0 0 0.6000000000000001
0 0 0.8
1 2 0 4
13
14
15
16
0 0.2 1
0 0.4 1
0 0.6000000000000001 1
0 0.8 1
1 3 0 4
17
18
19
20
0 1 0.2
0 1 0.4
0 1 0.6000000000000001
0 1 0.8
1 4 0 4
21
22
23
24
0 0.2 0
0 0.4 0
0 0.6000000000000001 0
0 0.8 0
1 5 0 4
25
26
27
28
1 0 0.2
1 0 0.4
1 0 0.6000000000000001
1 0 0.8
1 6 0 4
29
30
31
32
1 0.2 1
1 0.4 1
1 0.6000000000000001 1
1 0.8 1
1 7 0 4
33
34
35
36
1 1 0.2
1 1 0.4
1 1 0.6000000000000001
1 1 0.8
1 8 0 4
37
38
39
40
1 0.2 0
1 0.4 0
1 0.6000000000000001 0
1 0.8 0
1 9 0 4
41
42
43
44
0.2 0 0
0.4 0 0
0.6000000000000001 0 0
0.8 0 0
1 10 0 4
45
46
47
48
0.2 0 1
0.4 0 1
0.6000000000000001 0 1
0.8 0 1
1 11 0 4
49
50
51
52
0.2 1 0
0.4 1 0
0.6000000000000001 1 0
0.8 1 0
1 12 0 4
53
54
55
56
0.2 1 1
0.4 1 1
0.6000000000000001 1 1
0.8 1 1
2 1 0 16
57
58
59
60
61
62
63
64
65
66
67
68
69
70
71
72
0 0.2 0.2
0 0.4 0.2
0 0.6000000000000001 0.2
0 0.7999999999999999 0.2
0 0.2 0.4
0 0.4 0.4
0 0.6000000000000001 0.4
0 0.8 0.4
0 0.2 0.6000000000000001
0 0.4 0.6000000000000001
0 0.6000000000000001 0.6000000000000001
0 0.8 0.6000000000000001
0 0.2 0.7999999999999999
0 0.4 0.8
0 0.6000000000000001 0.8
0 0.8 0.8
2 2 0 16
73
74
75
76
77
78
79
80
81
82
83
84
85
86
87
88
1 0.2 0.2
1 0.4 0.2
1 0.6000000000000001 0.2
1 0.7999999999999999 0.2
1 0.2 0.4
1 0.4 0.4
1 0.6000000000000001 0.4
1 0.8 0.4
1 0.2 0.6000000000000001
1 0.4 0.6000000000000001
1 0.6000000000000001 0.6000000000000001
1 0.8 0.6000000000000001
1 0.2 0.7999999999999999
1 0.4 0.8
1 0.6000000000000001 0.8
1 0.8 0.8
2 3 0 16
89
90
91
92
93
94
95
96
97
98
99
100
101
102
103
104
0.2 0 0.2
0.2 0 0.4
0.2 0 0.6000000000000001
0.2 0 0.7999999999999999
0.4 0 0.2
0.4 0 0.4
0.4 0 0.6000000000000001
0.4 0 0.8
0.6000000000000001 0 0.2
0.6000000000000001 0 0.4
0.6000000000000001 0 0.6000000000000001
0.6000000000000001 0 0.8
0.7999999999999999 0 0.2
0.8 0 0.4
0.8 0 0.6000000000000001
0.8 0 0.8
2 4 0 16
105
106
107
108
109
110
111
112
113
114
115
116
117
118
119
120
0.2 1 0.2
0.2 1 0.4
0.2 1 0.6000000000000001
0.2 1 0.7999999999999999
0.4 1 0.2
0.4 1 0.4
0.4 1 0.6000000000000001
0.4 1 0.8
0.6000000000000001 1 0.2
0.6000000000000001 1 0.4
0.6000000000000001 1 0.6000000000000001
0.6000000000000001 1 0.8
0.7999999999999999 1 0.2
0.8 1 0.4
0.8 1 0.6000000000000001
0.8 1 0.8
2 5 0 16
121
122
123
124
125
126
127
128
129
130
131
132
133
134
135
136
0.2 0.2 0
0.4 0.2 0
0.6000000000000001 0.2 0
0.7999999999999999 0.2 0
0.2 0.4 0
0.4 0.4 0
0.6000000000000001 0.4 0
0.8 0.4 0
0.2 0.6000000000000001 0
0.4 0.6000000000000001 0
0.6000000000000001 0.6000000000000001 0
0.8 0.6000000000000001 0
0.2 0.7999999999999999 0
0.4 0.8 0
0.6000000000000001 0.8 0
0.8 0.8 0
2 6 0 16
137
138
139
140
141
142
143
144
145
146
147
148
149
150
151
152
0.2 0.2 1
0.4 0.2 1
0.6000000000000001 0.2 1
0.7999999999999999 0.2 1
0.2 0.4 1
0.4 0.4 1
0.6000000000000001 0.4 1
0.8 0.4 1
0.2 0.6000000000000001 1
0.4 0.6000000000000001 1
0.6000000000000001 0.6000000000000001 1
0.8 0.6000000000000001 1
0.2 0.7999999999999999 1
0.4 0.8 1
0.6000000000000001 0.8 1
0.8 0.8 1
3 1 0 64
153
154
155
156
157
158
159
160
161
162
163
164
165
166
167
168
169
170
171
172
173
174
175
176
177
178
179
180
181
182
183
184
185
186
187
188
189
190
191
192
193
194
195
196
197
198
199
200
201
202
203
204
205
206
207
208
209
210
211
212
213
214
215
216
0.1999999999999999 0.2 0.1999999999999999
0.3999999999999997 0.2 0.1999999999999999
0.6000000000000001 0.1999999999999999 0.2
0.7999999999999995 0.1999999999999999 0.1999999999999999
0.2 0.4 0.2
0.4 0.3999999999999999 0.2000000000000001
0.6000000000000001 0.3999999999999999 0.2
0.8 0.3999999999999998 0.2000000000000001
0.2000000000000001 0.6000000000000001 0.2
0.4000000000000001 0.6000000000000001 0.2000000000000001
0.6000000000000001 0.6000000000000001 0.2
0.8000000000000003 0.6000000000000001 0.2000000000000001
0.2 0.7999999999999999 0.2
0.4 0.7999999999999998 0.2000000000000001
0.6000000000000001 0.7999999999999997 0.2
0.8 0.7999999999999996 0.2000000000000001
0.2 0.2 0.3999999999999997
0.4000000000000001 0.2000000000000001 0.3999999999999998
0.6000000000000001 0.2 0.3999999999999999
0.8000000000000002 0.2000000000000001 0.3999999999999998
0.2000000000000001 0.4000000000000001 0.4000000000000001
0.4000000000000002 0.4000000000000001 0.4000000000000002
0.6000000000000001 0.3999999999999999 0.3999999999999999
0.8000000000000005 0.4000000000000001 0.4000000000000001
0.2000000000000001 0.6000000000000001 0.4
0.4000000000000001 0.6000000000000001 0.4000000000000001
0.6000000000000001 0.6000000000000001 0.3999999999999999
0.8000000000000003 0.6000000000000001 0.4000000000000001
0.2000000000000001 0.8000000000000002 0.4000000000000001
0.4000000000000001 0.8000000000000003 0.4000000000000001
0.6000000000000001 0.7999999999999998 0.3999999999999999
0.8000000000000003 0.8000000000000003 0.4000000000000001
0.2 0.2 0.6000000000000001
0.4000000000000001 0.2000000000000001 0.6000000000000001
0.6000000000000002 0.2 0.6000000000000001
0.8000000000000002 0.2000000000000001 0.6000000000000001
0.2000000000000001 0.4000000000000001 0.6000000000000001
0.4000000000000001 0.4000000000000001 0.6000000000000001
0.6000000000000001 0.3999999999999999 0.6000000000000001
0.8000000000000003 0.4000000000000001 0.6000000000000001
0.2000000000000001 0.6000000000000001 0.6000000000000002
0.4000000000000001 0.6000000000000001 0.6000000000000001
0.6000000000000001 0.6000000000000001 0.6000000000000001
0.8000000000000003 0.6000000000000001 0.6000000000000001
0.2000000000000001 0.8000000000000002 0.6000000000000001
0.4000000000000001 0.8000000000000003 0.6000000000000001
0.6000000000000001 0.7999999999999998 0.6000000000000001
0.8000000000000003 0.8000000000000003 0.6000000000000001
0.2 0.2 0.7999999999999995
0.4 0.2000000000000001 0.7999999999999996
0.6000000000000001 0.2 0.7999999999999998
0.8 0.2000000000000001 0.7999999999999996
0.2 0.4000000000000001 0.8000000000000002
0.4000000000000001 0.4000000000000001 0.8000000000000004
0.6000000000000001 0.3999999999999999 0.7999999999999998
0.8000000000000002 0.4000000000000002 0.8000000000000003
0.2000000000000001 0.6000000000000001 0.8
0.4000000000000001 0.6000000000000001 0.8000000000000003
0.6000000000000001 0.6000000000000001 0.7999999999999998
0.8000000000000003 0.6000000000000001 0.8000000000000003
0.2000000000000001 0.8000000000000002 0.8000000000000002
0.4000000000000002 0.8000000000000003 0.8000000000000003
0.6000000000000001 0.7999999999999998 0.7999999999999998
0.8000000000000004 0.8000000000000004 0.8000000000000003
$EndNodes
$Elements
7 275 69 343
2 1 3 25
69 2 9 57 21 
70 21 57 58 22 
71 22 58 59 23 
72 23 59 60 24 
73 24 60 17 4 
74 9 10 61 57 
75 57 61 62 58 
76 58 62 63 59 
77 59 63 64 60 
78 60 64 18 17 
79 10 11 65 61 
80 61 65 66 62 
81 62 66 67 63 
82 63 67 68 64 
83 64 68 19 18 
84 11 12 69 65 
85 65 69 70 66 
86 66 70 71 67 
87 67 71 72 68 
88 68 72 20 19 
89 12 1 13 69 
90 69 13 14 70 
91 70 14 15 71 
92 71 15 16 72 
93 72 16 3 20 
2 2 3 25
94 6 37 73 25 
95 37 38 74 73 
96 38 39 75 74 
97 39 40 76 75 
98 40 8 33 76 
99 25 73 77 26 
100 73 74 78 77 
101 74 75 79 78 
102 75 76 80 79 
103 76 33 34 80 
104 26 77 81 27 
105 77 78 82 81 
106 78 79 83 82 
107 79 80 84 83 
108 80 34 35 84 
109 27 81 85 28 
110 81 82 86 85 
111 82 83 87 86 
112 83 84 88 87 
113 84 35 36 88 
114 28 85 29 5 
115 85 86 30 29 
116 86 87 31 30 
117 87 88 32 31 
118 88 36 7 32 
2 3 3 25
119 2 41 89 9 
120 9 89 90 10 
121 10 90 91 11 
122 11 91 92 12 
123 12 92 45 1 
124 41 42 93 89 
125 89 93 94 90 
126 90 94 95 91 
127 91 95 96 92 
128 92 96 46 45 
129 42 43 97 93 
130 93 97 98 94 
131 94 98 99 95 
132 95 99 100 96 
133 96 100 47 46 
134 43 44 101 97 
135 97 101 102 98 
136 98 102 103 99 
137 99 103 104 100 
138 100 104 48 47 
139 44 6 25 101 
140 101 25 26 102 
141 102 26 27 103 
142 103 27 28 104 
143 104 28 5 48 
2 4 3 25
144 4 17 105 49 
145 17 18 106 105 
146 18 19 107 106 
147 19 20 108 107 
148 20 3 53 108 
149 49 105 109 50 
150 105 106 110 109 
151 106 107 111 110 
152 107 108 112 111 
153 108 53 54 112 
154 50 109 113 51 
155 109 110 114 113 
156 110 111 115 114 
157 111 112 116 115 
158 112 54 55 116 
159 51 113 117 52 
160 113 114 118 117 
161 114 115 119 118 
162 115 116 120 119 
163 116 55 56 120 
164 52 117 33 8 
165 117 118 34 33 
166 118 119 35 34 
167 119 120 36 35 
168 120 56 7 36 
2 5 3 25
169 2 21 121 41 
170 41 121 122 42 
171 42 122 123 43 
172 43 123 124 44 
173 44 124 37 6 
174 21 22 125 121 
175 121 125 126 122 
176 122 126 127 123 
177 123 127 128 124 
178 124 128 38 37 
179 22 23 129 125 
180 125 129 130 126 
181 126 130 131 127 
182 127 131 132 128 
183 128 132 39 38 
184 23 24 133 129 
185 129 133 134 130 
186 130 134 135 131 
187 131 135 136 132 
188 132 136 40 39 
189 24 4 49 133 
190 133 49 50 134 
191 134 50 51 135 
192 135 51 52 136 
193 136 52 8 40 
2 6 3 25
194 1 45 137 13 
195 45 46 138 137 
196 46 47 139 138 
197 47 48 140 139 
198 48 5 29 140 
199 13 137 141 14 
200 137 138 142 141 
201 138 139 143 142 
202 139 140 144 143 
203 140 29 30 144 
204 14 141 145 15 
205 141 142 146 145 
206 142 143 147 146 
207 143 144 148 147 
208 144 30 31 148 
209 15 145 149 16 
210 145 146 150 149 
211 146 147 151 150 
212 147 148 152 151 
213 148 31 32 152 
214 16 149 53 3 
215 149 150 54 53 
216 150 151 55 54 
217 151 152 56 55 
218 152 32 7 56 
3 1 5 125
219 57 9 2 21 153 89 41 121 
220 153 89 41 121 154 93 42 122 
221 154 93 42 122 155 97 43 123 
222 155 97 43 123 156 101 44 124 
223 156 101 44 124 73 25 6 37 
224 58 57 21 22 157 153 121 125 
225 157 153 121 125 158 154 122 126 
226 158 154 122 126 159 155 123 127 
227 159 155 123 127 160 156 124 128 
228 160 156 124 128 74 73 37 38 
229 59 58 22 23 161 157 125 129 
230 161 157 125 129 162 158 126 130 
231 162 158 126 130 163 159 127 131 
232 163 159 127 131 164 160 128 132 
233 164 160 128 132 75 74 38 39 
234 60 59 23 24 165 161 129 133 
235 165 161 129 133 166 162 130 134 
236 166 162 130 134 167 163 131 135 
237 167 163 131 135 168 164 132 136 
238 168 164 132 136 76 75 39 40 
239 17 60 24 4 105 165 133 49 
240 105 165 133 49 109 166 134 50 
241 109 166 134 50 113 167 135 51 
242 113 167 135 51 117 168 136 52 
243 117 168 136 52 33 76 40 8 
244 61 10 9 57 169 90 89 153 
245 169 90 89 153 170 94 93 154 
246 170 94 93 154 171 98 97 155 
247 171 98 97 155 172 102 101 156 
248 172 102 101 156 77 26 25 73 
249 62 61 57 58 173 169 153 157 
250 173 169 153 157 174 170 154 158 
251 174 170 154 158 175 171 155 159 
252 175 171 155 159 176 172 156 160 
253 176 172 156 160 78 77 73 74 
254 63 62 58 59 177 173 157 161 
255 177 173 157 161 178 174 158 162 
256 178 174 158 162 179 175 159 163 
257 179 175 159 163 180 176 160 164 
258 180 176 160 164 79 78 74 75 
259 64 63 59 60 181 177 161 165 
260 181 177 161 165 182 178 162 166 
261 182 178 162 166 183 179 163 167 
262 183 179 163 167 184 180 164 168 
263 184 180 164 168 80 79 75 76 
264 18 64 60 17 106 181 165 105 
265 106 181 165 105 110 182 166 109 
266 110 182 166 109 114 183 167 113 
267 114 183 167 113 118 184 168 117 
268 118 184 168 117 34 80 76 33 
269 65 11 10 61 185 91 90 169 
270 185 91 90 169 186 95 94 170 
271 186 95 94 170 187 99 98 171 
272 187 99 98 171 188 103 102 172 
273 188 103 102 172 81 27 26 77 
274 66 65 61 62 189 185 169 173 
275 189 185 169 173 190 186 170 174 
276 190 186 170 174 191 187 171 175 
277 191 187 171 175 192 188 172 176 
278 192 188 172 176 82 81 77 78 
279 67 66 62 63 193 189 173 177 
280 193 189 173 177 194 190 174 178 
281 194 190 174 178 195 191 175 179 
282 195 191 175 179 196 192 176 180 
283 196 192 176 180 83 82 78 79 
284 68 67 63 64 197 193 177 181 
285 197 193 177 181 198 194 178 182 
286 198 194 178 182 199 195 179 183 
287 199 195 179 183 200 196 180 184 
288 200 196 180 184 84 83 79 80 
289 19 68 64 18 107 197 181 106 
290 107 197 181 106 111 198 182 110 
291 111 198 182 110 115 199 183 114 
292 115 199 183 114 119 200 184 118 
293 119 200 184 118 35 84 80 34 
294 69 12 11 65 201 92 91 185 
295 201 92 91 185 202 96 95 186 
296 202 96 95 186 203 100 99 187 
297 203 100 99 187 204 104 103 188 
298 204 104 103 188 85 28 27 81 
299 70 69 65 66 205 201 185 189 
300 205 201 185 189 206 202 186 190 
301 206 202 186 190 207 203 187 191 
302 207 203 187 191 208 204 188 192 
303 208 204 188 192 86 85 81 82 
304 71 70 66 67 209 205 189 193 
305 209 205 189 193 210 206 190 194 
306 210 206 190 194 211 207 191 195 
307 211 207 191 195 212 208 192 196 
308 212 208 192 196 87 86 82 83 
309 72 71 67 68 213 209 193 197 
310 213 209 193 197 214 210 194 198 
311 214 210 194 198 215 211 195 199 
312 215 211 195 199 216 212 196 200 
313 216 212 196 200 88 87 83 84 
314 20 72 68 19 108 213 197 107 
315 108 213 197 107 112 214 198 111 
316 112 214 198 111 116 215 199 115 
317 116 215 199 115 120 216 200 119 
318 120 216 200 119 36 88 84 35 
319 13 1 12 69 137 45 92 201 
320 137 45 92 201 138 46 96 202 
321 138 46 96 202 139 47 100 203 
322 139 47 100 203 140 48 104 204 
323 140 48 104 204 29 5 28 85 
324 14 13 69 70 141 137 201 205 
325 141 137 201 205 142 138 202 206 
326 142 138 202 206 143 139 203 207 
327 143 139 203 207 144 140 204 208 
328 144 140 204 208 30 29 85 86 
329 15 14 70 71 145 141 205 209 
330 145 141 205 209 146 142 206 210 
331 146 142 206 210 147 143 207 211 
332 147 143 207 211 148 144 208 212 
333 148 144 208 212 31 30 86 87 
334 16 15 71 72 149 145 209 213 
335 149 145 209 213 150 146 210 214 
336 150 146 210 214 151 147 211 215 
337 151 147 211 215 152 148 212 216 
338 152 148 212 216 32 31 87 88 
339 3 16 72 20 53 149 213 108 
340 53 149 213 108 54 150 214 112 
341 54 150 214 112 55 151 215 116 
342 55 151 215 116 56 152 216 120 
343 56 152 216 120 7 32 88 36 
$EndElements
$ElementData
1
"e_1"
1
0.0
3
0
3
125
219 1 0 0
220 1 0 0
221 1 0 0
222 1 0 0
223 1 0 0
224 1 0 0
225 1 0 0
226 1 0 0
227 1 0 0
228 1 0 0
229 1 0 0
230 1 0 0
231 1 0 0
232 1 0 0
233 1 0 0
234 1 0 0
235 1 0 0
236 1 0 0
237 1 0 0
238 1 0 0
239 1 0 0
240 1 0 0
241 1 0 0
242 1 0 0
243 1 0 0
244 1 0 0
245 1 0 0
246 1 0 0
247 1 0 0
248 1 0 0
249 1 0 0
250 1 0 0
251 1 0 0
252 1 0 0
253 1 0 0
254 1 0 0
255 1 0 0
256 1 0 0
257 1 0 0
258 1 0 0
259 1 0 0
260 1 0 0
261 1 0 0
262 1 0 0
263 1 0 0
264 1 0 0
265 1 0 0
266 1 0 0
267 1 0 0
268 1 0 0
269 1 0 0
270 1 0 0
271 1 0 0
272 1 0 0
273 1 0 0
274 1 0 0
275 1 0 0
276 1 0 0
277 1 0 0
278 1 0 0
279 1 0 0
280 1 0 0
281 1 0 0
282 1 0 0
283 1 0 0
284 1 0 0
285 1 0 0
286 1 0 0
287 1 0 0
288 1 0 0
289 1 0 0
290 1 0 0
291 1 0 0
292 1 0 0
293 1 0 0
294 1 0 0
295 1 0 0
296 1 0 0
297 1 0 0
298 1 0 0
299 1 0 0
300 1 0 0
301 1 0 0
302 1 0 0
303 1 0 0
304 1 0 0
305 1 0 0
306 1 0 0
307 1 0 0
308 1 0 0
309 1 0 0
310 1 0 0
311 1 0 0
312 1 0 0
313 1 0 0
314 1 0 0
315 1 0 0
316 1 0 0
317 1 0 0
318 1 0 0
319 1 0 0
320 1 0 0
321 1 0 0
322 1 0 0
323 1 0 0
324 1 0 0
325 1 0 0
326 1 0 0
327 1 0 0
328 1 0 0
329 1 0 0
330 1 0 0
331 1 0 0
332 1 0 0
333 1 0 0
334 1 0 0
335 1 0 0
336 1 0 0
337 1 0 0
338 1 0 0
339 1 0 0
340 1 0 0
341 1 0 0
342 1 0 0
343 1 0 0
$EndElementData
$ElementData
1
"e_2"
1
0.0
3
0
3
125
219 0 1 0
220 0 1 0
221 0 1 0
222 0 1 0
223 0 1 0
224 0 1 0
225 0 1 0
226 0 1 0
227 0 1 0
228 0 1 0
229 0 1 0
230 0 1 0
231 0 1 0
232 0 1 0
233 0 1 0
234 0 1 0
235 0 1 0
236 0 1 0
237 0 1 0
238 0 1 0
239 0 1 0
240 0 1 0
241 0 1 0
242 0 1 0
243 0 1 0
244 0 1 0
245 0 1 0
246 0 1 0
247 0 1 0
248 0 1 0
249 0 1 0
250 0 1 0
251 0 1 0
252 0 1 0
253 0 1 0
254 0 1 0
255 0 1 0
256 0 1 0
257 0 1 0
258 0 1 0
259 0 1 0
260 0 1 0
261 0 1 0
262 0 1 0
263 0 1 0
264 0 1 0
265 0 1 0
266 0 1 0
267 0 1 0
268 0 1 0
269 0 1 0
270 0 1 0
271 0 1 0
272 0 1 0
273 0 1 0
274 0 1 0
275 0 1 0
276 0 1 0
277 0 1 0
278 0 1 0
279 0 1 0
280 0 1 0
281 0 1 0
282 0 1 0
283 0 1 0
284 0 1 0
285 0 1 0
286 0 1 0
287 0 1 0
288 0 1 0
289 0 1 0
290 0 1 0
291 0 1 0
292 0 1 0
293 0 1 0
294 0 1 0
295 0 1 0
296 0 1 0
297 0 1 0
298 0 1 0
299 0 1 0
300 0 1 0
301 0 1 0
302 0 1 0
303 0 1 0
304 0 1 0
305 0 1 0
306 0 1 0
307 0 1 0
308 0 1 0
309 0 1 0
310 0 1 0
311 0 1 0
312 0 1 0
313 0 1 0
314 0 1 0
315 0 1 0
316 0 1 0
317 0 1 0
318 0 1 0
319 0 1 0
320 0 1 0
321 0 1 0
322 0 1 0
323 0 1 0
324 0 1 0
325 0 1 0
326 0 1 0
327 0 1 0
328 0 1 0
329 0 1 0
330 0 1 0
331 0 1 0
332 0 1 0
333 0 1 0
334 0 1 0
335 0 1 0
336 0 1 0
337 0 1 0
338 0 1 0
339 0 1 0
340 0 1 0
341 0 1 0
342 0 1 0
343 0 1 0
$EndElementData
$ElementData
1
"e_3"
1
0.0
3
0
3
125
219 0 0 1
220 0 0 1
221 0 0 1
222 0 0 1
223 0 0 1
224 0 0 1
225 0 0 1
226 0 0 1
227 0 0 1
228 0 0 1
229 0 0 1
230 0 0 1
231 0 0 1
232 0 0 1
233 0 0 1
234 0 0 1
235 0 0 1
236 0 0 1
237 0 0 1
238 0 0 1
239 0 0 1
240 0 0 1
241 0 0 1
242 0 0 1
243 0 0 1
244 0 0 1
245 0 0 1
246 0 0 1
247 0 0 1
248 0 0 1
249 0 0 1
250 0 0 1
251 0 0 1
252 0 0 1
253 0 0 1
254 0 0 1
255 0 0 1
256 0 0 1
257 0 0 1
258 0 0 1
259 0 0 1
260 0 0 1
261 0 0 1
262 0 0 1
263 0 0 1
264 0 0 1
265 0 0 1
266 0 0 1
267 0 0 1
268 0 0 1
269 0 0 1
270 0 0 1
271 0 0 1
272 0 0 1
273 0 0 1
274 0 0 1
275 0 0 1
276 0 0 1
277 0 0 1
278 0 0 1
279 0 0 1
280 0 0 1
281 0 0 1
282 0 0 1
283 0 0 1
284 0 0 1
285 0 0 1
286 0 0 1
287 0 0 1
288 0 0 1
289 0 0 1
290 0 0 1
291 0 0 1
292 0 0 1
293 0 0 1
294 0 0 1
295 0 0 1
296 0 0 1
297 0 0 1
298 0 0 1
299 0 0 1
300 0 0 1
301 0 0 1
302 0 0 1
303 0 0 1
304 0 0 1
305 0 0 1
306 0 0 1
307 0 0 1
308 0 0 1
309 0 0 1
310 0 0 1
311 0 0 1
312 0 0 1
313 0 0 1
314 0 0 1
315 0 0 1
316 0 0 1
317 0 0 1
318 0 0 1
319 0 0 1
320 0 0 1
321 0 0 1
322 0 0 1
323 0 0 1
324 0 0 1
325 0 0 1
326 0 0 1
327 0 0 1
328 0 0 1
329 0 0 1
330 0 0 1
331 0 0 1
332 0 0 1
333 0 0 1
334 0 0 1
335 0 0 1
336 0 0 1
337 0 0 1
338 0 0 1
339 0 0 1
340 0 0 1
341 0 0 1
342 0 0 1
343 0 0 1
$EndElementData
