$MeshFormat
4.1 0 8
$EndMeshFormat
$PhysicalNames
5
1 1 "anterior"
1 2 "posterior"
1 3 "limbus"
1 4 "central_line"
2 10 "cornea"
$EndPhysicalNames
$Entities
4 4 1 0
1 0 0 0 0 
2 1 0 0 0 
3 1 1 0 0 
4 0 1 0 0 
1 -9.999999994736442e-08 -1e-07 -1e-07 1.0000001 1e-07 1e-07 1 2 2 1 -2 
2 0.9999999000000001 -9.999999994736442e-08 -1e-07 1.0000001 1.0000001 1e-07 1 3 2 2 -3 
3 -9.999999994736442e-08 0.9999999000000001 -1e-07 1.0000001 1.0000001 1e-07 1 1 2 3 -4 
4 -1e-07 -9.999999994736442e-08 -1e-07 1e-07 1.0000001 1e-07 1 4 2 4 -1 
1 -9.999999994736442e-08 -9.999999994736442e-08 -1e-07 1.0000001 1.0000001 1e-07 1 10 4 1 2 3 4 
$EndEntities
$Nodes
9 300 1 300
0 1 0 1
1
0 2.313395254976329 0
0 2 0 1
2
5.295 -4.440892098500626e-16 0
0 3 0 1
3
5.729428910373677 0.4364330295402974 0
0 4 0 1
4
0 2.843395254976329 0
1 1 0 48
5
6
7
8
9
10
11
12
13
14
15
16
17
18
19
20
21
22
23
24
25
26
27
28
29
30
31
32
33
34
35
36
37
38
39
40
41
42
43
44
45
46
47
48
49
50
51
52
0.1210275668997443 2.312318165680201 0
0.2420168053769685 2.309087607195763 0
0.3629294515139858 2.30370570536647 0
0.4837273700382329 2.296175995389522 0
0.6043726177376509 2.286503410070636 0
0.7248275057990402 2.27469426351482 0
0.845054660729481 2.260756230384933 0
0.9650170835367833 2.244698320894026 0
1.084678206864268 2.226530851729327 0
1.204001949797462 2.206265413134829 0
1.32295277008536 2.18391483240521 0
1.441495713546008 2.159493134066277 0
1.559596460455153 2.133015497035736 0
1.67722136874683 2.104498209073039 0
1.794337513885686 2.073958618837974 0
1.91091272530212 2.041415085884847 0
2.026915619312256 2.00688692892237 0
2.142315628475329 1.9703943726691 0
2.257083027370427 1.931958493630484 0
2.371188954802715 1.891601165116595 0
2.484605432475625 1.849345001809839 0
2.597305380190134 1.805213304179363 0
2.709262627654652 1.759230003024295 0
2.820451923009166 1.711419604411257 0
2.930848938185211 1.661807135253514 0
3.040430271238476 1.61041808975975 0
3.149173445803943 1.557278376960304 0
3.257056907833947 1.502414269497977 0
3.364060019787781 1.445852353849592 0
3.470163052447496 1.387619482123657 0
3.575347174538412 1.327742725558832 0
3.679594440334756 1.266249329827982 0
3.782887775431036 1.203166672233158 0
3.885210960858115 1.138522220858517 0
3.9865486157201 1.07234349573067 0
4.086886178523797 1.00465803201969 0
4.186209887367177 0.9354933452988143 0
4.284506759146945 0.8648768988670164 0
4.381764567938349 0.7928360731258758 0
4.477971822692556 0.7193981369908999 0
4.573117744388912 0.6445902213071817 0
4.667192242770932 0.5684392942304093 0
4.76018589278618 0.4909721385264872 0
4.852089910841544 0.4122153307363685 0
4.942896130976613 0.3321952221472002 0
5.03259698104932 0.2509379215062735 0
5.121185459019499 0.1684692794106865 0
5.208655109407878 0.08481487430284672 0
1 2 0 4
53
54
55
56
5.381885782074735 0.08728660590805912 0
5.468771564149471 0.1745732118161187 0
5.555657346224207 0.2618598177241783 0
5.642543128298941 0.3491464236322378 0
1 3 0 48
57
58
59
60
61
62
63
64
65
66
67
68
69
70
71
72
73
74
75
76
77
78
79
80
81
82
83
84
85
86
87
88
89
90
91
92
93
94
95
96
97
98
99
100
101
102
103
104
5.63592551724035 0.5268763574866497 0
5.541118357469633 0.615952055199636 0
5.445021801655206 0.7036351594716326 0
5.347650742959994 0.7899007323853238 0
5.24902060724368 0.8747238765137433 0
5.149147362819276 0.9580797508944052 0
5.048047529792385 1.039943587776751 0
4.945738188935493 1.120290710139181 0
4.842236990048328 1.199096549968889 0
4.737562159754182 1.276336667294484 0
4.631732508681345 1.351986769957843 0
4.524767437977941 1.426022734108029 0
4.416686945108152 1.498420625396292 0
4.307511628877498 1.569156720847187 0
4.197262693635034 1.638207531376696 0
4.085961952600587 1.705549824924096 0
3.973631830265973 1.77116065015986 0
3.86029536382008 1.83501736072759 0
3.745976203549152 1.897097639973469 0
3.630698612165373 1.957379526112274 0
3.514487463018959 2.015841437774593 0
3.397368237151577 2.072462199875472 0
3.279367019151791 2.127221069740468 0
3.160510491776651 2.180097763420944 0
3.040825929307271 2.231072482126461 0
2.920341189610338 2.280125938698443 0
2.799084704882175 2.327239384045754 0
2.677085471056775 2.372394633459721 0
2.554373035864522 2.415574092723335 0
2.430977485534021 2.456760783926925 0
2.306929430135209 2.495938370900675 0
2.182259987568238 2.533091184172862 0
2.057000766208966 2.5682042453617 0
1.931183846228486 2.601263290908266 0
1.804841759610883 2.632254795058157 0
1.678007468900221 2.661165992000209 0
1.550714344714613 2.687984897072039 0
1.422996142072063 2.712700326944132 0
1.294886975579524 2.735301918696773 0
1.166421293543182 2.755780147707459 0
1.037633851064432 2.774126344270227 0
0.9085596821920529 2.790332708872838 0
0.7792340712069592 2.804392326062827 0
0.6496925231212639 2.816299176839053 0
0.5199707334783589 2.82604814951148 0
0.3901045575452063 2.833635048978579 0
0.2601299789919209 2.839056604378747 0
0.1300830781570938 2.842310475079556 0
1 4 0 4
105
106
107
108
0 2.737395254976329 0
0 2.631395254976329 0
0 2.525395254976329 0
0 2.419395254976329 0
2 1 0 192
109
110
111
112
113
114
115
116
117
118
119
120
121
122
123
124
125
126
127
128
129
130
131
132
133
134
135
136
137
138
139
140
141
142
143
144
145
146
147
148
149
150
151
152
153
154
155
156
157
158
159
160
161
162
163
164
165
166
167
168
169
170
171
172
173
174
175
176
177
178
179
180
181
182
183
184
185
186
187
188
189
190
191
192
193
194
195
196
197
198
199
200
201
202
203
204
205
206
207
208
209
210
211
212
213
214
215
216
217
218
219
220
221
222
223
224
225
226
227
228
229
230
231
232
233
234
235
236
237
238
239
240
241
242
243
244
245
246
247
248
249
250
251
252
253
254
255
256
257
258
259
260
261
262
263
264
265
266
267
268
269
270
271
272
273
274
275
276
277
278
279
280
281
282
283
284
285
286
287
288
289
290
291
292
293
294
295
296
297
298
299
300
0.1228386691512146 2.418316627560071 0
0.1246497714026842 2.524315089439943 0
0.1264608736541541 2.630313551319815 0
0.1282719759056243 2.736312013199685 0
0.2456394400999596 2.41508140663236 0
0.24926207482295 2.521075206068958 0
0.2528847095459401 2.627069005505554 0
0.2565073442689305 2.733062804942151 0
0.3683644727202302 2.40969157408889 0
0.3737994939264736 2.515677442811314 0
0.3792345151327177 2.621663311533735 0
0.3846695363389623 2.727649180256156 0
0.4909760427262578 2.402150426213914 0
0.498224715414283 2.508124857038305 0
0.5054733881023077 2.614099287862696 0
0.5127220607903331 2.720073718687088 0
0.6134365988143734 2.39246256342432 0
0.6225005798910962 2.498421716778002 0
0.6315645609678183 2.604380870131686 0
0.6406285420445414 2.710340023485369 0
0.7357088188806236 2.380633876024421 0
0.7465901319622072 2.486573488534022 0
0.7574714450437916 2.592513101043624 0
0.7683527581253755 2.698452713553226 0
0.857755665021995 2.366671526082514 0
0.8704566693145099 2.472586821780095 0
0.8831576736070241 2.578502117477676 0
0.8958586778995385 2.684417413175256 0
0.9795404370423129 2.350583925569266 0
0.9940637905478429 2.456469530244506 0
1.008587144053373 2.562355134919747 0
1.023110497558902 2.668240739594987 0
1.10102682420005 2.332380710924954 0
1.117375441535833 2.43823057012058 0
1.133724058871616 2.544080429316206 0
1.150072676207399 2.649930288511833 0
1.222178954953875 2.312072714247217 0
1.240355960110286 2.417880015359606 0
1.258532965266699 2.523687316471995 0
1.276709970423112 2.629494617584384 0
1.3429614444827 2.289671931312995 0
1.362970118880042 2.395429030220779 0
1.382978793277382 2.501186129128563 0
1.402987467674723 2.606943228036348 0
1.463339439779729 2.265191486667429 0
1.485183166013449 2.370889839268582 0
1.50702689224717 2.476588191869734 0
1.528870618480892 2.582286544470886 0
1.583278662144166 2.23864559602863 0
1.60696086383318 2.344275695021525 0
1.630643065522194 2.449905794014421 0
1.654325267211207 2.555535893007314 0
1.70274544691964 2.210049526270062 0
1.728269525092451 2.315600843467086 0
1.753793603265262 2.421152160664109 0
1.779317681438072 2.526703477861134 0
1.821706780354245 2.179419553252032 0
1.849076046822806 2.284880487666091 0
1.876445313291367 2.39034142208015 0
1.903814579759927 2.495802356494208 0
1.940130333483489 2.146772917780218 0
1.969347941664858 2.252130749675588 0
1.998565549846228 2.357488581570959 0
2.027783158027597 2.462846413466329 0
2.057984492963453 2.112127779972468 0
2.089053366614649 2.217368631022567 0
2.120122240265845 2.322609482072665 0
2.151191113917042 2.427850333122764 0
2.175238388807306 2.075503172315416 0
2.208161149139281 2.18061197196173 0
2.241083909471258 2.285720771608045 0
2.274006669803234 2.390829571254359 0
2.291861919003146 2.036918951689771 0
2.326640810635865 2.14187940974906 0
2.361419702268583 2.246839867808348 0
2.396198593901303 2.351800325867637 0
2.407825771015077 1.996395750637943 0
2.444462587227439 2.101190336159291 0
2.481099403439801 2.205984921680638 0
2.517736219652161 2.310779507201988 0
2.523101440191855 1.953954928139815 0
2.561597447908085 2.058564854469791 0
2.600093455624315 2.163174780799768 0
2.638589463340545 2.267784707129745 0
2.637661245128543 1.909618520152641 0
2.67801711006695 2.014023736125919 0
2.718372975005359 2.118428952099197 0
2.758728839943767 2.222834168072476 0
2.751478340045788 1.863409190159125 0
2.793694052436926 1.967588377293954 0
2.835909764828064 2.071767564428784 0
2.878125477219201 2.175946751563614 0
2.864526724268786 1.815350179954298 0
2.908601525528408 1.919280755497339 0
2.952676326788029 2.023211331040379 0
2.996751128047651 2.12714190658342 0
2.976781248903499 1.765465260886999 0
3.022713559621787 1.869123386520486 0
3.068645870340076 1.972781512153972 0
3.114578181058364 2.076439637787458 0
3.088217620821138 1.713778685755893 0
3.136004970403802 1.817139281752038 0
3.183792319986465 1.92049987774818 0
3.231579669569128 2.023860473744324 0
3.19881240407347 1.660315141543338 0
3.248451362342997 1.763351906126371 0
3.298090320612522 1.866388670709405 0
3.347729278882051 1.969425435292438 0
3.308543018870949 1.6050997031533 0
3.360029129907951 1.707785136808623 0
3.411515240944954 1.810470570463946 0
3.463001351981957 1.913156004119269 0
3.4173877382633 1.548157788302129 0
3.470715456738817 1.650463222754665 0
3.524043175214335 1.752768657207201 0
3.577370893689854 1.855074091659738 0
3.525325682667827 1.48951511369362 0
3.580488312888158 1.591410745263582 0
3.63565094310849 1.693306376833544 0
3.690813573328821 1.795202008403506 0
3.632336812394745 1.429197652592584 0
3.689326450251079 1.530652579626335 0
3.746316088107413 1.632107506660087 0
3.803305725963746 1.733562433693839 0
3.738401918321 1.367231593894358 0
3.797209396307242 1.468213857960733 0
3.856016874293486 1.56919612202711 0
3.91482435227973 1.670178386093485 0
3.843502610864946 1.303643302771345 0
3.904117446298856 1.404119933309533 0
3.964732281732767 1.504596563847721 0
4.025347117166676 1.605073194385909 0
3.947621307413499 1.238459282962153 0
4.010031653968882 1.338396345065789 0
4.072442000524267 1.438333407169424 0
4.134852347079651 1.53827046927306 0
4.050741218351579 1.171706140753973 0
4.114933820983059 1.271068785777277 0
4.179126423614537 1.37043143080058 0
4.243319026246017 1.469794075823884 0
4.152846331840667 1.10341055069501 0
4.21880648515754 1.202163069370331 0
4.284766638474411 1.30091558804565 0
4.35072679179128 1.399668106720972 0
4.25392139748933 1.033599223060657 0
4.321632907611483 1.1317051008225 0
4.389344417733636 1.229810978584343 0
4.457055927855789 1.327916856346186 0
4.353951909053825 0.9622988730851815 0
4.423397058960704 1.059720847303347 0
4.492842208867584 1.157142821521511 0
4.562287358774464 1.254564795739677 0
4.452924086301515 0.889536191959597 0
4.524083604664682 0.9862363107933189 0
4.595243123027849 1.082936429627041 0
4.666402641391016 1.179636548460762 0
4.550824856163708 0.8153378195864979 0
4.623677889634863 0.911277502182096 0
4.69653092310602 1.007217184777693 0
4.769383956577173 1.103156867373291 0
4.647641833298229 0.7397303190735816 0
4.722165922207543 0.8348704168399823 0
4.796690011116862 0.9300105146063814 0
4.871214100026177 1.025150612372782 0
4.743363300175222 0.6627401529396777 0
4.819534357579514 0.7570410116489465 0
4.895705414983805 0.8513418703582152 0
4.971876472388094 0.9456427290674838 0
4.8379781867928 0.5843936610000707 0
4.915770480799417 0.6778151834736543 0
4.993562774806038 0.7712367059472381 0
5.071355068812656 0.8646582284208217 0
4.931476050121971 0.5047170398918435 0
5.0108621894024 0.5972187490473179 0
5.090248328682826 0.6897204582027935 0
5.169634467963254 0.7822221673582683 0
5.02384705337329 0.4237363241948244 0
5.104797975769965 0.5152774262424501 0
5.185748898166642 0.6068185282900749 0
5.266699820563316 0.698359630337699 0
5.115081945170497 0.3414773690993453 0
5.197566909291673 0.4320168166924171 0
5.280051873412852 0.5225562642854888 0
5.362536837534029 0.6130957118785608 0
5.205172038709525 0.2579658345684765 0
5.289158618399551 0.3474623897262664 0
5.373145198089579 0.4369589448840563 0
5.457131777779606 0.5264555000418463 0
5.294109190974372 0.1732271709396073 0
5.379563272540867 0.2616394675763679 0
5.465017354107362 0.3500517642131285 0
5.550471435673857 0.4384640608498891 0
$EndNodes
$Elements
5 353 5 357
1 1 1 49
5 1 5 
6 5 6 
7 6 7 
8 7 8 
9 8 9 
10 9 10 
11 10 11 
12 11 12 
13 12 13 
14 13 14 
15 14 15 
16 15 16 
17 16 17 
18 17 18 
19 18 19 
20 19 20 
21 20 21 
22 21 22 
23 22 23 
24 23 24 
25 24 25 
26 25 26 
27 26 27 
28 27 28 
29 28 29 
30 29 30 
31 30 31 
32 31 32 
33 32 33 
34 33 34 
35 34 35 
36 35 36 
37 36 37 
38 37 38 
39 38 39 
40 39 40 
41 40 41 
42 41 42 
43 42 43 
44 43 44 
45 44 45 
46 45 46 
47 46 47 
48 47 48 
49 48 49 
50 49 50 
51 50 51 
52 51 52 
53 52 2 
1 2 1 5
54 2 53 
55 53 54 
56 54 55 
57 55 56 
58 56 3 
1 3 1 49
59 3 57 
60 57 58 
61 58 59 
62 59 60 
63 60 61 
64 61 62 
65 62 63 
66 63 64 
67 64 65 
68 65 66 
69 66 67 
70 67 68 
71 68 69 
72 69 70 
73 70 71 
74 71 72 
75 72 73 
76 73 74 
77 74 75 
78 75 76 
79 76 77 
80 77 78 
81 78 79 
82 79 80 
83 80 81 
84 81 82 
85 82 83 
86 83 84 
87 84 85 
88 85 86 
89 86 87 
90 87 88 
91 88 89 
92 89 90 
93 90 91 
94 91 92 
95 92 93 
96 93 94 
97 94 95 
98 95 96 
99 96 97 
100 97 98 
101 98 99 
102 99 100 
103 100 101 
104 101 102 
105 102 103 
106 103 104 
107 104 4 
1 4 1 5
108 4 105 
109 105 106 
110 106 107 
111 107 108 
112 108 1 
2 1 3 245
113 1 5 109 108 
114 108 109 110 107 
115 107 110 111 106 
116 106 111 112 105 
117 105 112 104 4 
118 5 6 113 109 
119 109 113 114 110 
120 110 114 115 111 
121 111 115 116 112 
122 112 116 103 104 
123 6 7 117 113 
124 113 117 118 114 
125 114 118 119 115 
126 115 119 120 116 
127 116 120 102 103 
128 7 8 121 117 
129 117 121 122 118 
130 118 122 123 119 
131 119 123 124 120 
132 120 124 101 102 
133 8 9 125 121 
134 121 125 126 122 
135 122 126 127 123 
136 123 127 128 124 
137 124 128 100 101 
138 9 10 129 125 
139 125 129 130 126 
140 126 130 131 127 
141 127 131 132 128 
142 128 132 99 100 
143 10 11 133 129 
144 129 133 134 130 
145 130 134 135 131 
146 131 135 136 132 
147 132 136 98 99 
148 11 12 137 133 
149 133 137 138 134 
150 134 138 139 135 
151 135 139 140 136 
152 136 140 97 98 
153 12 13 141 137 
154 137 141 142 138 
155 138 142 143 139 
156 139 143 144 140 
157 140 144 96 97 
158 13 14 145 141 
159 141 145 146 142 
160 142 146 147 143 
161 143 147 148 144 
162 144 148 95 96 
163 14 15 149 145 
164 145 149 150 146 
165 146 150 151 147 
166 147 151 152 148 
167 148 152 94 95 
168 15 16 153 149 
169 149 153 154 150 
170 150 154 155 151 
171 151 155 156 152 
172 152 156 93 94 
173 16 17 157 153 
174 153 157 158 154 
175 154 158 159 155 
176 155 159 160 156 
177 156 160 92 93 
178 17 18 161 157 
179 157 161 162 158 
180 158 162 163 159 
181 159 163 164 160 
182 160 164 91 92 
183 18 19 165 161 
184 161 165 166 162 
185 162 166 167 163 
186 163 167 168 164 
187 164 168 90 91 
188 19 20 169 165 
189 165 169 170 166 
190 166 170 171 167 
191 167 171 172 168 
192 168 172 89 90 
193 20 21 173 169 
194 169 173 174 170 
195 170 174 175 171 
196 171 175 176 172 
197 172 176 88 89 
198 21 22 177 173 
199 173 177 178 174 
200 174 178 179 175 
201 175 179 180 176 
202 176 180 87 88 
203 22 23 181 177 
204 177 181 182 178 
205 178 182 183 179 
206 179 183 184 180 
207 180 184 86 87 
208 23 24 185 181 
209 181 185 186 182 
210 182 186 187 183 
211 183 187 188 184 
212 184 188 85 86 
213 24 25 189 185 
214 185 189 190 186 
215 186 190 191 187 
216 187 191 192 188 
217 188 192 84 85 
218 25 26 193 189 
219 189 193 194 190 
220 190 194 195 191 
221 191 195 196 192 
222 192 196 83 84 
223 26 27 197 193 
224 193 197 198 194 
225 194 198 199 195 
226 195 199 200 196 
227 196 200 82 83 
228 27 28 201 197 
229 197 201 202 198 
230 198 202 203 199 
231 199 203 204 200 
232 200 204 81 82 
233 28 29 205 201 
234 201 205 206 202 
235 202 206 207 203 
236 203 207 208 204 
237 204 208 80 81 
238 29 30 209 205 
239 205 209 210 206 
240 206 210 211 207 
241 207 211 212 208 
242 208 212 79 80 
243 30 31 213 209 
244 209 213 214 210 
245 210 214 215 211 
246 211 215 216 212 
247 212 216 78 79 
248 31 32 217 213 
249 213 217 218 214 
250 214 218 219 215 
251 215 219 220 216 
252 216 220 77 78 
253 32 33 221 217 
254 217 221 222 218 
255 218 222 223 219 
256 219 223 224 220 
257 220 224 76 77 
258 33 34 225 221 
259 221 225 226 222 
260 222 226 227 223 
261 223 227 228 224 
262 224 228 75 76 
263 34 35 229 225 
264 225 229 230 226 
265 226 230 231 227 
266 227 231 232 228 
267 228 232 74 75 
268 35 36 233 229 
269 229 233 234 230 
270 230 234 235 231 
271 231 235 236 232 
272 232 236 73 74 
273 36 37 237 233 
274 233 237 238 234 
275 234 238 239 235 
276 235 239 240 236 
277 236 240 72 73 
278 37 38 241 237 
279 237 241 242 238 
280 238 242 243 239 
281 239 243 244 240 
282 240 244 71 72 
283 38 39 245 241 
284 241 245 246 242 
285 242 246 247 243 
286 243 247 248 244 
287 244 248 70 71 
288 39 40 249 245 
289 245 249 250 246 
290 246 250 251 247 
291 247 251 252 248 
292 248 252 69 70 
293 40 41 253 249 
294 249 253 254 250 
295 250 254 255 251 
296 251 255 256 252 
297 252 256 68 69 
298 41 42 257 253 
299 253 257 258 254 
300 254 258 259 255 
301 255 259 260 256 
302 256 260 67 68 
303 42 43 261 257 
304 257 261 262 258 
305 258 262 263 259 
306 259 263 264 260 
307 260 264 66 67 
308 43 44 265 261 
309 261 265 266 262 
310 262 266 267 263 
311 263 267 268 264 
312 264 268 65 66 
313 44 45 269 265 
314 265 269 270 266 
315 266 270 271 267 
316 267 271 272 268 
317 268 272 64 65 
318 45 46 273 269 
319 269 273 274 270 
320 270 274 275 271 
321 271 275 276 272 
322 272 276 63 64 
323 46 47 277 273 
324 273 277 278 274 
325 274 278 279 275 
326 275 279 280 276 
327 276 280 62 63 
328 47 48 281 277 
329 277 281 282 278 
330 278 282 283 279 
331 279 283 284 280 
332 280 284 61 62 
333 48 49 285 281 
334 281 285 286 282 
335 282 286 287 283 
336 283 287 288 284 
337 284 288 60 61 
338 49 50 289 285 
339 285 289 290 286 
340 286 290 291 287 
341 287 291 292 288 
342 288 292 59 60 
343 50 51 293 289 
344 289 293 294 290 
345 290 294 295 291 
346 291 295 296 292 
347 292 296 58 59 
348 51 52 297 293 
349 293 297 298 294 
350 294 298 299 295 
351 295 299 300 296 
352 296 300 57 58 
353 52 2 53 297 
354 297 53 54 298 
355 298 54 55 299 
356 299 55 56 300 
357 300 56 3 57 
$EndElements
$ElementData
1
"e_1"
1
0.0
3
0
3
245
113 0.99996092807786618 -0.0088398143449080618 0
114 0.99996195512003838 -0.0087228614863673094 0
115 0.99996293944196868 -0.0086092823497584767 0
116 0.99996388342007447 -0.00849893260613486 0
117 0.99996478925835763 -0.0083916770366997632 0
118 0.99964844679049636 -0.02651382336344826 0
119 0.99965767862185895 -0.026163439612483907 0
120 0.9996665265972221 -0.02582316016767372 0
121 0.99967501202459896 -0.025492554474159025 0
122 0.99968315475866332 -0.025171215540101117 0
123 0.99902398547522075 -0.044170990991891847 0
124 0.99904956538236489 -0.043588598386595061 0
125 0.99907408244924079 -0.043022991274522283 0
126 0.99909759563474076 -0.042473455202983137 0
127 0.99912015987397407 -0.041939314889546393 0
128 0.99808854388520274 -0.061800150203018475 0
129 0.99813849267246801 -0.060988109050320274 0
130 0.99818636829141538 -0.060199453130364088 0
131 0.99823228566309008 -0.059433188201904311 0
132 0.99827635182968411 -0.058688375148889367 0
133 0.99684361480160899 -0.079390223763769238 0
134 0.9969257707538377 -0.078351819422822558 0
135 0.99700452155239161 -0.077343286742203129 0
136 0.99708005576912362 -0.076363357622890066 0
137 0.9971525489982187 -0.075410834940048063 0
138 0.99529117590239935 -0.096930259314720879 0
139 0.99541313620574556 -0.095669683123975321 0
140 0.9955300505284933 -0.094445320131468669 0
141 0.99564219780375207 -0.093255637644671097 0
142 0.99574983790154414 -0.092099187396244411 0
143 0.99343367902263813 -0.11440946369748435 0
144 0.99360274316101138 -0.11293178818611357 0
145 0.99376482722652459 -0.11149649396925207 0
146 0.99392031634468958 -0.110101792706895 0
147 0.99406956940940716 -0.1087459938305587 0
148 0.9912740370174502 -0.13181723534927745 0
149 0.99149715248035752 -0.13012838515613212 0
150 0.99171107883350396 -0.12848788315980467 0
151 0.99191632209668446 -0.12689369550212723 0
152 0.99211335376871146 -0.12534390002628559 0
153 0.98881560831918591 -0.14914319543431545 0
154 0.98909931894899028 -0.14724991427720308 0
155 0.98937137746122572 -0.14541071989532545 0
156 0.9896324239849259 -0.14362334558740769 0
157 0.98988305504278928 -0.1418856488132399 0
158 0.98606217921771933 -0.16637721814119452 0
159 0.98641257685369199 -0.16428702999585579 0
160 0.98674862852046419 -0.1622564147051917 0
161 0.98707112017858434 -0.16028288651442071 0
162 0.98738078450511024 -0.15836409438402735 0
163 0.98301794442894053 -0.18350945733313145 0
164 0.9834406237837876 -0.18123062514860655 0
165 0.98384605759066557 -0.17901657734216944 0
166 0.98423518798538301 -0.17686462261113095 0
167 0.98460889326270418 -0.1747722154920312 0
168 0.97968748557935725 -0.20053037325850842 0
169 0.98018750295871027 -0.19807185323404336 0
170 0.98066719648682621 -0.19568303384470695 0
171 0.98112767286009939 -0.19336103420318632 0
172 0.98156996424874599 -0.19110312735461812 0
173 0.97607574855339141 -0.21743075469200918 0
174 0.97665758443259587 -0.21480214796478886 0
175 0.9772158677359627 -0.21224784532486884 0
176 0.97775187664304097 -0.2097647914236602 0
177 0.9782668034217169 -0.20735009361718645 0
178 0.97218801904121832 -0.23420174131016153 0
179 0.97285554484508185 -0.23141324262923871 0
180 0.97349616847639542 -0.2287033230230324 0
181 0.97411134457539506 -0.2260687691157626 0
182 0.97470243040211269 -0.22350653719346711 0
183 0.96802989753223478 -0.25083484104831022 0
184 0.96878634652988027 -0.24789718590029738 0
185 0.96951245336985037 -0.24504204284321079 0
186 0.97020985222253775 -0.24226605756960937 0
187 0.97088006855654096 -0.23956605034863809 0
188 0.96360727289201642 -0.26732194752696808 0
189 0.96445521566682202 -0.26424635659373602 0
190 0.96526931670378779 -0.26125685872375226 0
191 0.9660513913641956 -0.2583499743435283 0
192 0.96680313446979571 -0.2555224044567872 0
193 0.95892629587838374 -0.28365535262526331 0
194 0.95986761991483105 -0.28045347606873661 0
195 0.96077157447560546 -0.27734091237981123 0
196 0.96164015554872539 -0.27431407407609087 0
197 0.96247522727927293 -0.27136955775051796 0
198 0.95399335178452771 -0.29982775847296472 0
199 0.95502924573707049 -0.29651161829999523 0
200 0.95602424543386411 -0.29328764403331242 0
201 0.95698052545505874 -0.29015215646236336 0
202 0.95790011730443847 -0.28710166364572554 0
203 0.9488150331695987 -0.31583228592304025 0
204 0.94994597529339442 -0.31241421866471064 0
205 0.95103253238384555 -0.30909079951944457 0
206 0.95207705362170381 -0.30585827431510709 0
207 0.9530817345646454 -0.30271307741696069 0
208 0.94339811263827911 -0.33166248064942899 0
209 0.94462386352310335 -0.32815507989772963 0
210 0.9458018029162274 -0.32474443736639069 0
211 0.94693444929741588 -0.32142673929497501 0
212 0.94802415724190015 -0.31819836153849868 0
213 0.93774951565969966 -0.34731231748960284 0
214 0.93906911518462377 -0.34372837663825179 0
215 0.94033757072598623 -0.34024293244849491 0
216 0.94155756316186157 -0.33685212668572673 0
217 0.9427315995297173 -0.33355229162477779 0
218 0.93187629404704975 -0.36277620180096787 0
219 0.93328806218126192 -0.35912865799034327 0
220 0.93464547655039842 -0.35558097975549646 0
221 0.93595137182418908 -0.3521292796408993 0
222 0.93720839992533833 -0.34876985980641612 0
223 0.92578559983666397 -0.3780489692289456 0
224 0.92728714138785084 -0.37435084802461438 0
225 0.92873126944341688 -0.37075359628467436 0
226 0.93012096286388002 -0.36725331100096098 0
227 0.93145900931748904 -0.36384627792693147 0
228 0.91948466008408791 -0.39312588298158296 0
229 0.9210728729684412 -0.38939024471815109 0
230 0.92260078873844042 -0.38575612065035042 0
231 0.92407151953396938 -0.38221960544454103 0
232 0.92548797855581433 -0.37877698128142973 0
233 0.91298075230490949 -0.40800262979637919 0
234 0.91465183911885184 -0.40424251779903381 0
235 0.91625994596682725 -0.40058421264057154 0
236 0.91780830618067055 -0.39702381931789499 0
237 0.91929994729555453 -0.39355762843882314 0
238 0.90628118114865341 -0.42267531356326182 0
239 0.90803066400034993 -0.41890370401213178 0
240 0.90971470773166363 -0.41523385042249827 0
241 0.91133665367248207 -0.41166188027681461 0
242 0.91289963165358246 -0.40818410371639113 0
243 0.8993932561639203 -0.43714044741577146 0
244 0.90121599418939113 -0.43337020181044683 0
245 0.90297107881113536 -0.42970132747136613 0
246 0.90466194546850165 -0.42612998535792529 0
247 0.90629181315177731 -0.42265251615726129 0
248 0.89232427042034501 -0.45139494505233324 0
249 0.89421448014940008 -0.44763876450899331 0
250 0.89603508623120964 -0.44398324770494307 0
251 0.89778960381154571 -0.44042459886785151 0
252 0.89948132722918517 -0.43695919942944744 0
253 0.88508148092806638 -0.46543610959849357 0
254 0.88703275840418228 -0.46170649282619758 0
255 0.88891276392953555 -0.45807651994307008 0
256 0.89072507664505007 -0.45454244888202666 0
257 0.89247305217728023 -0.45110071063718093 0
258 0.87767208978697597 -0.47926162250795995 0
259 0.87967743553817035 -0.47557082480424329 0
260 0.88161013812676259 -0.47197835157145784 0
261 0.88347382523744078 -0.4684805226691115 0
262 0.88527189876830903 -0.46507382774259926 0
263 0.8701032271509439 -0.49286953050631271 0
264 0.87215507207318899 -0.4892295271720733 0
265 0.87413321361793828 -0.48568624115778258 0
266 0.87604131169310862 -0.48223606274004205 0
267 0.87788279938557257 -0.47887554807376675 0
268 0.86238193513779693 -0.50625823247428647 0
269 0.86447216831994411 -0.50268068413279443 0
270 0.86648796071947942 -0.49919797067716337 0
271 0.86843298794479684 -0.49580656051455441 0
272 0.87031069877527933 -0.49250308384545671 0
273 0.85451515337478923 -0.51942646510633284 0
274 0.85663515114258748 -0.51592268590062618 0
275 0.85868030340569856 -0.51251159649621336 0
276 0.86065428472954308 -0.50918975065949501 0
277 0.86256054381794689 -0.50595385980194663 0
278 0.84650970572104844 -0.53237328832320663 0
279 0.84865036165434871 -0.52895421698285294 0
280 0.85071610782707607 -0.52562544067382311 0
281 0.85271060130302545 -0.52238360466752087 0
282 0.8546372748788571 -0.51922550822127445 0
283 0.83837228851626844 -0.54509806993603882 0
284 0.84052404367695333 -0.54177424449759792 0
285 0.8426011721015324 -0.53853808107980961 0
286 0.84460729609362872 -0.5353863234949221 0
287 0.84654581685908015 -0.53231586483815485 0
288 0.83010945982955586 -0.55760047049969641 0
289 0.83226233434149155 -0.5543820044305654 0
290 0.83434121658817406 -0.55124834176817761 0
291 0.83634967750668043 -0.54819633064666862 0
292 0.83829107115450052 -0.54522296358704514 0
293 0.82172763033857765 -0.5698804274039827 0
294 0.82387125447495013 -0.56677698969689316 0
295 0.8259418752672284 -0.56375528261831309 0
296 0.8279429960756729 -0.5608122638185068 0
297 0.82987790769693248 -0.55794503162637932 0
298 0.81323305516548294 -0.58193813931225935 0
299 0.81535670086141454 -0.5789589366789234 0
300 0.8174086882974807 -0.57605818828985667 0
301 0.81939243643640136 -0.57323296757149089 0
302 0.82131115764340556 -0.57048048374194971 0
303 0.8046318268427981 -0.59377405065531552 0
304 0.80672443904322122 -0.59092781238523562 0
305 0.80874709399096223 -0.58815655905649267 0
306 0.81070311030112774 -0.5854574851755483 0
307 0.81259560673362896 -0.58282791621301522 0
308 0.79592986947160327 -0.60538883610694105 0
309 0.79798009727601626 -0.60268380130161092 0
310 0.79996242357320524 -0.60005009863417558 0
311 0.80188005069596346 -0.59748504943290348 0
312 0.80373598882354946 -0.59498610090474491 0
313 0.78713293436309906 -0.61678338469914795 0
314 0.78912916145940248 -0.61422729224154504 0
315 0.79105989482093575 -0.61173870468190095 0
316 0.79292820539675057 -0.60931507538078222 0
317 0.79473698015984973 -0.60695397878785062 0
318 0.77824659564623333 -0.62795878556243512 0
319 0.78017697065757907 -0.62555886569975427 0
320 0.78204460815073462 -0.6232224569624909 0
321 0.78385243237109226 -0.6209471509443637 0
322 0.7856031934681742 -0.61873065417240025 0
323 0.76927624826453123 -0.63891631209106514 0
324 0.77112871350384726 -0.63667928127896645 0
325 0.77292154129721202 -0.63450160835000424 0
326 0.77465749505813619 -0.63238102861348833 0
327 0.77633917365411198 -0.63031538728643655 0
328 0.76022710484078593 -0.64965740899753988 0
329 0.76198942563334759 -0.64758946503395265 0
330 0.76369554715146148 -0.64557657273249158 0
331 0.76534805787142246 -0.6436166174924649 0
332 0.76694939263591355 -0.64170758849759879 0
333 0.7511041959193987 -0.66018367661755606 0
334 0.75276398758031193 -0.65829049742662082 0
335 0.75437135007693357 -0.65644791581899653 0
336 0.75592868348655051 -0.65465397385358526 0
337 0.75743824581231667 -0.65290681094683067 0
338 0.74191236853494991 -0.67049685861669828 0
339 0.74345712316883406 -0.66878360177976948 0
340 0.74495354373457534 -0.66711634493339933 0
341 0.74640382899845814 -0.66549329377270239 0
342 0.74781004809862484 -0.66391274423882884 0
343 0.7326562867143358 -0.68059882863399135 0
344 0.73407339913435443 -0.67907013237465752 0
345 0.73544658981708755 -0.67758269866224929 0
346 0.73677784412097791 -0.67613490400395981 0
347 0.73806903062956009 -0.67472520778872747 0
348 0.72334043246426705 -0.69049157761873337 0
349 0.72461722444203214 -0.68915156391168819 0
350 0.72585481647642847 -0.6878479376998744 0
351 0.72705496861552366 -0.68657925442841627 0
352 0.72821933816367479 -0.68534414386092157 0
353 0.71396910731586738 -0.70017720171295472 0
354 0.71509285131903122 -0.69902948005961674 0
355 0.71618241779229741 -0.69791313531497545 0
356 0.71723933101393611 -0.69682690967462013 0
357 0.71826502659172908 -0.6957696109885676 0
$EndElementData
$ElementData
1
"e_2"
1
0.0
3
0
3
245
113 0.0088398143449080618 0.99996092807786618 0
114 0.0087228614863673094 0.99996195512003838 0
115 0.008609282349758475 0.99996293944196846 0
116 0.0084989326061348583 0.99996388342007447 0
117 0.0083916770366997632 0.99996478925835774 0
118 0.02651382336344826 0.99964844679049625 0
119 0.026163439612483904 0.99965767862185895 0
120 0.02582316016767372 0.9996665265972221 0
121 0.025492554474159022 0.99967501202459896 0
122 0.025171215540101117 0.99968315475866343 0
123 0.044170990991891861 0.99902398547522087 0
124 0.043588598386595061 0.99904956538236489 0
125 0.043022991274522283 0.99907408244924079 0
126 0.042473455202983137 0.99909759563474088 0
127 0.041939314889546386 0.99912015987397407 0
128 0.061800150203018482 0.99808854388520285 0
129 0.060988109050320267 0.9981384926724679 0
130 0.060199453130364088 0.99818636829141538 0
131 0.059433188201904304 0.99823228566308997 0
132 0.05868837514888936 0.99827635182968399 0
133 0.079390223763769238 0.99684361480160899 0
134 0.078351819422822558 0.9969257707538377 0
135 0.077343286742203143 0.99700452155239172 0
136 0.076363357622890066 0.99708005576912362 0
137 0.075410834940048063 0.99715254899821859 0
138 0.096930259314720879 0.99529117590239946 0
139 0.095669683123975321 0.99541313620574545 0
140 0.094445320131468669 0.99553005052849319 0
141 0.09325563764467111 0.99564219780375207 0
142 0.092099187396244425 0.99574983790154414 0
143 0.11440946369748434 0.99343367902263813 0
144 0.11293178818611357 0.99360274316101138 0
145 0.11149649396925207 0.99376482722652471 0
146 0.11010179270689502 0.99392031634468969 0
147 0.10874599383055869 0.99406956940940705 0
148 0.13181723534927745 0.9912740370174502 0
149 0.13012838515613212 0.99149715248035752 0
150 0.12848788315980467 0.99171107883350396 0
151 0.12689369550212723 0.99191632209668446 0
152 0.12534390002628559 0.99211335376871146 0
153 0.14914319543431542 0.9888156083191858 0
154 0.14724991427720308 0.98909931894899028 0
155 0.14541071989532545 0.98937137746122572 0
156 0.14362334558740769 0.9896324239849259 0
157 0.14188564881323992 0.98988305504278939 0
158 0.16637721814119452 0.98606217921771921 0
159 0.16428702999585582 0.98641257685369199 0
160 0.1622564147051917 0.98674862852046419 0
161 0.16028288651442074 0.98707112017858434 0
162 0.15836409438402735 0.98738078450511024 0
163 0.18350945733313145 0.98301794442894053 0
164 0.18123062514860652 0.9834406237837876 0
165 0.17901657734216944 0.98384605759066546 0
166 0.17686462261113095 0.98423518798538301 0
167 0.1747722154920312 0.98460889326270407 0
168 0.20053037325850842 0.97968748557935725 0
169 0.19807185323404336 0.98018750295871027 0
170 0.19568303384470698 0.98066719648682621 0
171 0.19336103420318629 0.98112767286009928 0
172 0.19110312735461812 0.9815699642487461 0
173 0.21743075469200918 0.97607574855339141 0
174 0.21480214796478883 0.97665758443259587 0
175 0.21224784532486882 0.9772158677359627 0
176 0.20976479142366017 0.97775187664304097 0
177 0.20735009361718645 0.9782668034217169 0
178 0.2342017413101615 0.97218801904121821 0
179 0.23141324262923874 0.97285554484508197 0
180 0.2287033230230324 0.97349616847639542 0
181 0.22606876911576257 0.97411134457539506 0
182 0.22350653719346711 0.97470243040211269 0
183 0.25083484104831022 0.96802989753223478 0
184 0.24789718590029741 0.96878634652988038 0
185 0.24504204284321074 0.96951245336985015 0
186 0.24226605756960939 0.97020985222253786 0
187 0.23956605034863815 0.97088006855654108 0
188 0.26732194752696803 0.96360727289201631 0
189 0.26424635659373602 0.96445521566682191 0
190 0.26125685872375226 0.96526931670378779 0
191 0.25834997434352824 0.9660513913641956 0
192 0.2555224044567872 0.96680313446979571 0
193 0.28365535262526326 0.95892629587838374 0
194 0.28045347606873666 0.95986761991483105 0
195 0.27734091237981123 0.96077157447560546 0
196 0.27431407407609087 0.96164015554872539 0
197 0.27136955775051796 0.96247522727927304 0
198 0.29982775847296472 0.95399335178452771 0
199 0.29651161829999528 0.95502924573707049 0
200 0.29328764403331237 0.956024245433864 0
201 0.29015215646236331 0.95698052545505874 0
202 0.28710166364572554 0.95790011730443836 0
203 0.3158322859230403 0.94881503316959892 0
204 0.3124142186647107 0.94994597529339442 0
205 0.30909079951944463 0.95103253238384577 0
206 0.30585827431510704 0.95207705362170381 0
207 0.30271307741696069 0.9530817345646454 0
208 0.33166248064942899 0.94339811263827911 0
209 0.32815507989772963 0.94462386352310346 0
210 0.32474443736639069 0.9458018029162274 0
211 0.32142673929497501 0.94693444929741577 0
212 0.31819836153849862 0.94802415724190003 0
213 0.34731231748960284 0.93774951565969966 0
214 0.34372837663825179 0.93906911518462377 0
215 0.34024293244849485 0.94033757072598612 0
216 0.33685212668572673 0.94155756316186168 0
217 0.33355229162477773 0.9427315995297173 0
218 0.36277620180096781 0.93187629404704964 0
219 0.35912865799034327 0.93328806218126192 0
220 0.35558097975549646 0.93464547655039831 0
221 0.35212927964089924 0.93595137182418897 0
222 0.34876985980641606 0.93720839992533833 0
223 0.37804896922894554 0.92578559983666397 0
224 0.37435084802461444 0.92728714138785084 0
225 0.37075359628467436 0.92873126944341688 0
226 0.36725331100096098 0.93012096286388013 0
227 0.36384627792693147 0.93145900931748915 0
228 0.39312588298158291 0.91948466008408791 0
229 0.3893902447181512 0.92107287296844131 0
230 0.38575612065035048 0.92260078873844031 0
231 0.38221960544454109 0.92407151953396949 0
232 0.37877698128142967 0.92548797855581433 0
233 0.4080026297963793 0.91298075230490972 0
234 0.4042425177990337 0.91465183911885173 0
235 0.40058421264057159 0.91625994596682736 0
236 0.39702381931789504 0.91780830618067055 0
237 0.39355762843882319 0.91929994729555453 0
238 0.42267531356326182 0.90628118114865341 0
239 0.41890370401213173 0.90803066400034982 0
240 0.41523385042249833 0.90971470773166374 0
241 0.41166188027681466 0.91133665367248207 0
242 0.40818410371639113 0.91289963165358246 0
243 0.43714044741577146 0.89939325616392041 0
244 0.43337020181044678 0.90121599418939113 0
245 0.42970132747136613 0.90297107881113536 0
246 0.42612998535792529 0.90466194546850165 0
247 0.42265251615726124 0.90629181315177731 0
248 0.45139494505233324 0.89232427042034501 0
249 0.44763876450899337 0.89421448014940008 0
250 0.44398324770494307 0.89603508623120953 0
251 0.44042459886785146 0.89778960381154571 0
252 0.43695919942944739 0.89948132722918506 0
253 0.46543610959849346 0.88508148092806627 0
254 0.46170649282619763 0.88703275840418228 0
255 0.45807651994307003 0.88891276392953555 0
256 0.45454244888202661 0.89072507664505007 0
257 0.45110071063718093 0.89247305217728023 0
258 0.47926162250796001 0.87767208978697597 0
259 0.47557082480424329 0.87967743553817035 0
260 0.47197835157145773 0.88161013812676248 0
261 0.46848052266911155 0.88347382523744078 0
262 0.46507382774259931 0.88527189876830892 0
263 0.49286953050631271 0.87010322715094368 0
264 0.48922952717207335 0.87215507207318899 0
265 0.48568624115778258 0.87413321361793839 0
266 0.4822360627400421 0.87604131169310862 0
267 0.47887554807376675 0.87788279938557268 0
268 0.50625823247428647 0.86238193513779682 0
269 0.50268068413279443 0.86447216831994422 0
270 0.49919797067716332 0.86648796071947931 0
271 0.49580656051455435 0.86843298794479673 0
272 0.49250308384545671 0.87031069877527933 0
273 0.51942646510633295 0.85451515337478923 0
274 0.51592268590062618 0.85663515114258748 0
275 0.51251159649621336 0.85868030340569856 0
276 0.50918975065949501 0.86065428472954297 0
277 0.50595385980194651 0.86256054381794689 0
278 0.53237328832320663 0.84650970572104833 0
279 0.52895421698285294 0.84865036165434871 0
280 0.52562544067382311 0.85071610782707607 0
281 0.52238360466752087 0.85271060130302545 0
282 0.51922550822127445 0.85463727487885721 0
283 0.54509806993603882 0.83837228851626855 0
284 0.54177424449759792 0.84052404367695344 0
285 0.53853808107980972 0.84260117210153251 0
286 0.53538632349492221 0.84460729609362872 0
287 0.53231586483815474 0.84654581685908015 0
288 0.55760047049969641 0.83010945982955586 0
289 0.5543820044305654 0.83226233434149155 0
290 0.55124834176817761 0.83434121658817417 0
291 0.54819633064666862 0.83634967750668043 0
292 0.54522296358704503 0.83829107115450041 0
293 0.56988042740398281 0.82172763033857765 0
294 0.56677698969689305 0.82387125447495013 0
295 0.56375528261831298 0.8259418752672284 0
296 0.56081226381850668 0.82794299607567279 0
297 0.55794503162637932 0.82987790769693248 0
298 0.58193813931225935 0.81323305516548294 0
299 0.5789589366789234 0.81535670086141465 0
300 0.57605818828985667 0.8174086882974807 0
301 0.57323296757149089 0.81939243643640136 0
302 0.57048048374194971 0.82131115764340556 0
303 0.59377405065531563 0.80463182684279821 0
304 0.59092781238523562 0.80672443904322111 0
305 0.58815655905649267 0.80874709399096223 0
306 0.5854574851755483 0.81070311030112774 0
307 0.58282791621301522 0.81259560673362885 0
308 0.60538883610694105 0.79592986947160316 0
309 0.60268380130161092 0.79798009727601626 0
310 0.60005009863417558 0.79996242357320524 0
311 0.59748504943290348 0.80188005069596346 0
312 0.5949861009047448 0.80373598882354935 0
313 0.61678338469914795 0.78713293436309906 0
314 0.61422729224154493 0.78912916145940248 0
315 0.61173870468190095 0.79105989482093575 0
316 0.60931507538078222 0.79292820539675068 0
317 0.60695397878785062 0.79473698015984973 0
318 0.62795878556243512 0.77824659564623333 0
319 0.62555886569975416 0.78017697065757896 0
320 0.6232224569624909 0.78204460815073473 0
321 0.6209471509443637 0.78385243237109214 0
322 0.61873065417240036 0.7856031934681742 0
323 0.63891631209106514 0.76927624826453123 0
324 0.63667928127896656 0.77112871350384726 0
325 0.63450160835000424 0.77292154129721202 0
326 0.63238102861348833 0.77465749505813619 0
327 0.63031538728643655 0.77633917365411198 0
328 0.64965740899753976 0.76022710484078593 0
329 0.64758946503395265 0.76198942563334759 0
330 0.64557657273249158 0.76369554715146148 0
331 0.64361661749246502 0.76534805787142246 0
332 0.64170758849759868 0.76694939263591344 0
333 0.66018367661755606 0.75110419591939859 0
334 0.65829049742662082 0.75276398758031193 0
335 0.65644791581899664 0.75437135007693357 0
336 0.65465397385358526 0.75592868348655051 0
337 0.65290681094683067 0.75743824581231667 0
338 0.67049685861669805 0.74191236853494991 0
339 0.66878360177976948 0.74345712316883394 0
340 0.66711634493339922 0.74495354373457523 0
341 0.6654932937727025 0.74640382899845814 0
342 0.66391274423882873 0.74781004809862472 0
343 0.68059882863399124 0.7326562867143358 0
344 0.67907013237465752 0.73407339913435443 0
345 0.67758269866224929 0.73544658981708755 0
346 0.6761349040039597 0.73677784412097791 0
347 0.67472520778872735 0.73806903062956009 0
348 0.69049157761873325 0.72334043246426694 0
349 0.68915156391168819 0.72461722444203214 0
350 0.6878479376998744 0.72585481647642836 0
351 0.68657925442841616 0.72705496861552366 0
352 0.68534414386092168 0.72821933816367479 0
353 0.70017720171295461 0.71396910731586738 0
354 0.69902948005961674 0.71509285131903111 0
355 0.69791313531497556 0.71618241779229741 0
356 0.69682690967462013 0.71723933101393611 0
357 0.6957696109885676 0.71826502659172908 0
$EndElementData
